<svg width="28" height="38" viewBox="0 0 28 38" fill="none" xmlns="http://www.w3.org/2000/svg">
<path d="M26.9816 32.7934L25.3403 29.7107L24.9631 25.2621C24.9563 25.1806 24.9327 25.1014 24.8938 25.0295L22.9114 21.3069C22.7415 21.0232 22.5219 20.7726 22.263 20.5669C22.1456 20.4683 22.0174 20.3833 21.881 20.3133V3.33383C21.88 2.53508 21.5623 1.76932 20.9975 1.20453C20.4327 0.639726 19.667 0.322002 18.8682 0.321045H3.20175C2.403 0.322002 1.63724 0.639726 1.07244 1.20453C0.507646 1.76932 0.189922 2.53508 0.188965 3.33383V34.6668C0.189922 35.4655 0.507646 36.2313 1.07244 36.7961C1.63724 37.3609 2.403 37.6786 3.20175 37.6795H18.8682C19.3191 37.6784 19.764 37.5761 20.1701 37.3802C20.5762 37.1842 20.9331 36.8996 21.2146 36.5473L26.7328 33.6081C26.8738 33.533 26.9792 33.405 27.0258 33.2523C27.0725 33.0995 27.0566 32.9345 26.9816 32.7934ZM14.2779 1.52616L13.6754 2.73127H8.39458L7.79202 1.52616H14.2779ZM3.20175 36.4744C2.72232 36.4744 2.26254 36.284 1.92353 35.945C1.58453 35.606 1.39408 35.1462 1.39408 34.6668V3.33383C1.39408 2.8544 1.58453 2.39462 1.92353 2.05561C2.26254 1.71661 2.72232 1.52616 3.20175 1.52616H6.44471L7.48291 3.60317C7.53296 3.70333 7.60993 3.78757 7.70519 3.84643C7.80045 3.90529 7.91022 3.93644 8.0222 3.93638H14.0478C14.1602 3.937 14.2707 3.90611 14.3665 3.84722C14.4623 3.78833 14.5398 3.70379 14.5901 3.60317L15.6253 1.52616H18.8682C19.3476 1.52616 19.8074 1.71661 20.1464 2.05561C20.4854 2.39462 20.6759 2.8544 20.6759 3.33383V20.4494L20.4668 20.5609L20.183 20.0283C20.0326 19.7463 19.7765 19.5357 19.4708 19.4426C19.1652 19.3494 18.8351 19.3815 18.5531 19.5317L17.4896 20.0981C17.4144 19.9572 17.2863 19.8519 17.1335 19.8053C16.9806 19.7592 16.8157 19.775 16.6743 19.8493L15.8554 20.2855V18.6472L16.032 18.8237C16.1456 18.9335 16.2978 18.9942 16.4558 18.9929C16.6138 18.9915 16.7649 18.9281 16.8767 18.8164C16.9884 18.7047 17.0517 18.5536 17.0531 18.3956C17.0545 18.2376 16.9938 18.0854 16.884 17.9717L11.4272 13.1199C11.3181 13.0266 11.1792 12.9753 11.0356 12.9753C10.892 12.9753 10.7531 13.0266 10.6439 13.1199L5.18717 17.9717C5.12962 18.0273 5.08371 18.0938 5.05214 18.1673C5.02056 18.2408 5.00393 18.3199 5.00324 18.3999C5.00254 18.4799 5.01779 18.5593 5.04809 18.6333C5.07838 18.7074 5.12313 18.7746 5.1797 18.8312C5.23628 18.8878 5.30355 18.9325 5.3776 18.9628C5.45166 18.9931 5.531 19.0084 5.61101 19.0077C5.69102 19.007 5.77008 18.9904 5.8436 18.9588C5.91711 18.9272 5.9836 18.8813 6.03918 18.8237L6.21453 18.6472V22.6156C6.21453 22.7754 6.27801 22.9287 6.39101 23.0417C6.50401 23.1547 6.65728 23.2182 6.81708 23.2182H12.3244L13.8706 26.1213L13.3392 26.4051C13.0579 26.5554 12.8477 26.8109 12.7545 27.1159C12.6614 27.4208 12.6928 27.7502 12.842 28.032L14.2581 30.6911C14.3074 30.7837 14.3801 30.8618 14.4689 30.9177L18.4458 33.4219L19.892 36.1394C19.593 36.3531 19.2357 36.4701 18.8682 36.4744H3.20175ZM11.038 20.8031L11.6821 22.0131H7.41964V17.4698L11.035 14.3709L14.6503 17.4698V19.8951L14.2285 19.1039C14.0783 18.8219 13.8222 18.6111 13.5165 18.5179C13.2108 18.4247 12.8807 18.4567 12.5986 18.6068L11.5345 19.1732C11.2526 19.3236 11.0419 19.5797 10.9488 19.8854C10.8557 20.191 10.8878 20.5211 11.038 20.8031ZM20.8482 35.3772L19.4322 32.7181C19.3831 32.6253 19.3103 32.5472 19.2213 32.4915L15.2444 29.9867L13.9038 27.4686L14.9667 26.9022C15.1076 26.8271 15.2131 26.6992 15.2597 26.5464C15.3064 26.3936 15.2905 26.2286 15.2155 26.0876L12.0997 20.2373L13.1632 19.6703L16.279 25.52C16.3149 25.5921 16.3648 25.6563 16.4259 25.7087C16.487 25.7612 16.5579 25.8009 16.6346 25.8255C16.7113 25.8501 16.7921 25.8591 16.8724 25.8519C16.9526 25.8447 17.0305 25.8215 17.1016 25.7837C17.1727 25.7459 17.2355 25.6942 17.2863 25.6317C17.3371 25.5692 17.3748 25.4971 17.3972 25.4198C17.4197 25.3425 17.4264 25.2614 17.417 25.1814C17.4076 25.1015 17.3823 25.0242 17.3425 24.9542L15.8554 22.1577V21.6515L16.7093 21.1966L18.4085 24.3871C18.4435 24.4607 18.493 24.5263 18.5541 24.5802C18.6152 24.634 18.6866 24.6749 18.7639 24.7004C18.8413 24.7258 18.923 24.7354 19.0041 24.7284C19.0852 24.7214 19.1641 24.6981 19.236 24.6598C19.3078 24.6215 19.3712 24.569 19.4222 24.5055C19.4732 24.442 19.5108 24.3689 19.5327 24.2905C19.5547 24.212 19.5605 24.13 19.5499 24.0492C19.5392 23.9685 19.5123 23.8908 19.4708 23.8207L18.0542 21.1611L19.1177 20.5941L19.6841 21.6582C19.7373 21.7509 19.8145 21.8275 19.9076 21.8799C19.8989 21.9871 19.9198 22.0946 19.9679 22.1908L20.5343 23.2543C20.5715 23.3242 20.6222 23.386 20.6834 23.4362C20.7445 23.4865 20.815 23.5242 20.8907 23.5472C20.9664 23.5702 21.046 23.5781 21.1247 23.5704C21.2035 23.5627 21.28 23.5396 21.3498 23.5023C21.4197 23.465 21.4815 23.4144 21.5317 23.3532C21.582 23.2921 21.6197 23.2216 21.6427 23.1459C21.6657 23.0701 21.6736 22.9906 21.6659 22.9118C21.6582 22.833 21.6351 22.7566 21.5978 22.6867L21.0314 21.6238L21.405 21.4244C21.577 21.547 21.7263 21.6987 21.846 21.8727L23.7742 25.488L24.1508 29.9367C24.1577 30.0181 24.1811 30.0972 24.2195 30.1693L25.6355 32.829L20.8482 35.3772Z" fill="black"/>
</svg>
