<svg width="54" height="54" viewBox="0 0 54 54" fill="none" xmlns="http://www.w3.org/2000/svg">
<path d="M43.9816 40.7933L42.3403 37.7106L41.9631 33.2619C41.9563 33.1804 41.9327 33.1012 41.8938 33.0293L39.9114 29.3068C39.7415 29.0231 39.5219 28.7724 39.263 28.5668C39.1456 28.4682 39.0174 28.3831 38.881 28.3131V11.3337C38.88 10.535 38.5623 9.7692 37.9975 9.2044C37.4327 8.6396 36.667 8.32188 35.8682 8.32092H20.2017C19.403 8.32188 18.6372 8.6396 18.0724 9.2044C17.5076 9.7692 17.1899 10.535 17.189 11.3337V42.6666C17.1899 43.4654 17.5076 44.2311 18.0724 44.7959C18.6372 45.3607 19.403 45.6785 20.2017 45.6794H35.8682C36.3191 45.6783 36.764 45.576 37.1701 45.38C37.5762 45.1841 37.9331 44.8995 38.2146 44.5472L43.7328 41.6079C43.8738 41.5329 43.9792 41.4049 44.0258 41.2521C44.0725 41.0994 44.0566 40.9343 43.9816 40.7933ZM31.2779 9.52604L30.6754 10.7311H25.3946L24.792 9.52604H31.2779ZM20.2017 44.4743C19.7223 44.4743 19.2625 44.2839 18.9235 43.9448C18.5845 43.6058 18.3941 43.1461 18.3941 42.6666V11.3337C18.3941 10.8543 18.5845 10.3945 18.9235 10.0555C19.2625 9.71649 19.7223 9.52604 20.2017 9.52604H23.4447L24.4829 11.603C24.533 11.7032 24.6099 11.7874 24.7052 11.8463C24.8004 11.9052 24.9102 11.9363 25.0222 11.9363H31.0478C31.1602 11.9369 31.2707 11.906 31.3665 11.8471C31.4623 11.7882 31.5398 11.7037 31.5901 11.603L32.6253 9.52604H35.8682C36.3476 9.52604 36.8074 9.71649 37.1464 10.0555C37.4854 10.3945 37.6759 10.8543 37.6759 11.3337V28.4493L37.4668 28.5608L37.183 28.0281C37.0326 27.7462 36.7765 27.5355 36.4708 27.4424C36.1652 27.3493 35.8351 27.3814 35.5531 27.5316L34.4896 28.098C34.4144 27.9571 34.2863 27.8517 34.1335 27.8052C33.9806 27.759 33.8157 27.7748 33.6743 27.8492L32.8554 28.2854V26.6471L33.032 26.8236C33.1456 26.9334 33.2978 26.9941 33.4558 26.9927C33.6138 26.9914 33.7649 26.928 33.8767 26.8163C33.9884 26.7046 34.0517 26.5534 34.0531 26.3954C34.0545 26.2375 33.9938 26.0852 33.884 25.9716L28.4272 21.1198C28.3181 21.0265 28.1792 20.9752 28.0356 20.9752C27.892 20.9752 27.7531 21.0265 27.6439 21.1198L22.1872 25.9716C22.1296 26.0272 22.0837 26.0937 22.0521 26.1672C22.0206 26.2407 22.0039 26.3198 22.0032 26.3998C22.0025 26.4798 22.0178 26.5591 22.0481 26.6332C22.0784 26.7072 22.1231 26.7745 22.1797 26.8311C22.2363 26.8877 22.3036 26.9324 22.3776 26.9627C22.4517 26.993 22.531 27.0082 22.611 27.0076C22.691 27.0069 22.7701 26.9902 22.8436 26.9587C22.9171 26.9271 22.9836 26.8812 23.0392 26.8236L23.2145 26.6471V30.6155C23.2145 30.7753 23.278 30.9286 23.391 31.0416C23.504 31.1546 23.6573 31.2181 23.8171 31.2181H29.3244L30.8706 34.1212L30.3392 34.405C30.0579 34.5552 29.8477 34.8108 29.7545 35.1157C29.6614 35.4207 29.6928 35.7501 29.842 36.0319L31.2581 38.691C31.3074 38.7836 31.3801 38.8617 31.4689 38.9175L35.4458 41.4218L36.892 44.1393C36.593 44.353 36.2357 44.47 35.8682 44.4743H20.2017ZM28.038 28.803L28.6821 30.013H24.4196V25.4697L28.035 22.3707L31.6503 25.4697V27.895L31.2285 27.1038C31.0783 26.8218 30.8222 26.611 30.5165 26.5178C30.2108 26.4245 29.8807 26.4565 29.5986 26.6067L28.5345 27.1731C28.2526 27.3235 28.0419 27.5796 27.9488 27.8853C27.8557 28.1909 27.8878 28.521 28.038 28.803ZM37.8482 43.377L36.4322 40.718C36.3831 40.6252 36.3103 40.547 36.2213 40.4914L32.2444 37.9866L30.9038 35.4685L31.9667 34.9021C32.1076 34.827 32.2131 34.699 32.2597 34.5463C32.3064 34.3935 32.2905 34.2285 32.2155 34.0874L29.0997 28.2372L30.1632 27.6702L33.279 33.5198C33.3149 33.5919 33.3648 33.6561 33.4259 33.7086C33.487 33.7611 33.5579 33.8008 33.6346 33.8254C33.7113 33.85 33.7921 33.859 33.8724 33.8518C33.9526 33.8446 34.0305 33.8214 34.1016 33.7836C34.1727 33.7458 34.2355 33.6941 34.2863 33.6316C34.3371 33.5691 34.3748 33.497 34.3972 33.4197C34.4197 33.3423 34.4264 33.2613 34.417 33.1813C34.4076 33.1013 34.3823 33.0241 34.3425 32.954L32.8554 30.1576V29.6514L33.7093 29.1965L35.4085 32.387C35.4435 32.4605 35.493 32.5262 35.5541 32.58C35.6152 32.6339 35.6866 32.6748 35.7639 32.7002C35.8413 32.7257 35.923 32.7353 36.0041 32.7283C36.0852 32.7213 36.1641 32.698 36.236 32.6596C36.3078 32.6213 36.3712 32.5689 36.4222 32.5054C36.4732 32.4419 36.5108 32.3687 36.5327 32.2903C36.5547 32.2119 36.5605 32.1299 36.5499 32.0491C36.5392 31.9684 36.5123 31.8907 36.4708 31.8206L35.0542 29.1609L36.1177 28.5939L36.6841 29.658C36.7373 29.7507 36.8145 29.8273 36.9076 29.8798C36.8989 29.987 36.9198 30.0945 36.9679 30.1907L37.5343 31.2542C37.5715 31.324 37.6222 31.3859 37.6834 31.4361C37.7445 31.4864 37.815 31.5241 37.8907 31.5471C37.9664 31.5701 38.046 31.578 38.1247 31.5703C38.2035 31.5626 38.28 31.5394 38.3498 31.5022C38.4197 31.4649 38.4815 31.4142 38.5317 31.3531C38.582 31.2919 38.6197 31.2215 38.6427 31.1457C38.6657 31.07 38.6736 30.9905 38.6659 30.9117C38.6582 30.8329 38.6351 30.7564 38.5978 30.6866L38.0314 29.6237L38.405 29.4243C38.577 29.5469 38.7263 29.6986 38.846 29.8726L40.7742 33.4879L41.1508 37.9366C41.1577 38.018 41.1811 38.0971 41.2195 38.1692L42.6355 40.8288L37.8482 43.377Z" fill="black"/>
<path d="M39.1256 40.6476L38.0621 41.2146C37.9909 41.251 37.9276 41.3012 37.876 41.3623C37.8243 41.4234 37.7854 41.4942 37.7614 41.5705C37.7374 41.6468 37.7288 41.7271 37.7362 41.8068C37.7436 41.8864 37.7668 41.9638 37.8044 42.0344C37.842 42.105 37.8933 42.1675 37.9552 42.218C38.0172 42.2686 38.0886 42.3063 38.1654 42.329C38.2421 42.3517 38.3225 42.3589 38.4021 42.3501C38.4816 42.3414 38.5586 42.3169 38.6285 42.2781L39.692 41.7117C39.7619 41.6745 39.8238 41.6239 39.8741 41.5628C39.9244 41.5017 39.9622 41.4313 39.9853 41.3556C40.0084 41.2799 40.0164 41.2004 40.0088 41.1216C40.0011 41.0428 39.9781 40.9663 39.9409 40.8964C39.9037 40.8266 39.8531 40.7647 39.792 40.7144C39.7309 40.6641 39.6605 40.6263 39.5848 40.6032C39.4319 40.5565 39.2667 40.5725 39.1256 40.6476Z" fill="black"/>
<path d="M24.4196 42.6665H19.5991C19.4393 42.6665 19.2861 42.73 19.1731 42.843C19.0601 42.956 18.9966 43.1093 18.9966 43.2691C18.9966 43.4289 19.0601 43.5821 19.1731 43.6951C19.2861 43.8081 19.4393 43.8716 19.5991 43.8716H24.4196C24.5794 43.8716 24.7327 43.8081 24.8457 43.6951C24.9587 43.5821 25.0221 43.4289 25.0221 43.2691C25.0221 43.1093 24.9587 42.956 24.8457 42.843C24.7327 42.73 24.5794 42.6665 24.4196 42.6665Z" fill="black"/>
<path d="M26.8299 42.6665H26.2273C26.0675 42.6665 25.9142 42.73 25.8012 42.843C25.6882 42.956 25.6248 43.1093 25.6248 43.2691C25.6248 43.4289 25.6882 43.5821 25.8012 43.6951C25.9142 43.8081 26.0675 43.8716 26.2273 43.8716H26.8299C26.9897 43.8716 27.1429 43.8081 27.2559 43.6951C27.3689 43.5821 27.4324 43.4289 27.4324 43.2691C27.4324 43.1093 27.3689 42.956 27.2559 42.843C27.1429 42.73 26.9897 42.6665 26.8299 42.6665Z" fill="black"/>
<path d="M28.0349 19.7696C28.1947 19.7696 28.348 19.7061 28.461 19.5931C28.574 19.4801 28.6375 19.3269 28.6375 19.167V17.9619C28.6375 17.8021 28.574 17.6489 28.461 17.5359C28.348 17.4229 28.1947 17.3594 28.0349 17.3594C27.8751 17.3594 27.7219 17.4229 27.6089 17.5359C27.4959 17.6489 27.4324 17.8021 27.4324 17.9619V19.167C27.4324 19.3269 27.4959 19.4801 27.6089 19.5931C27.7219 19.7061 27.8751 19.7696 28.0349 19.7696Z" fill="black"/>
<path d="M25.1987 20.1955C25.3124 20.3053 25.4646 20.366 25.6226 20.3646C25.7805 20.3633 25.9317 20.2999 26.0434 20.1882C26.1551 20.0765 26.2185 19.9253 26.2199 19.7673C26.2212 19.6093 26.1605 19.4571 26.0507 19.3435L24.8456 18.1384C24.732 18.0286 24.5798 17.9679 24.4218 17.9693C24.2638 17.9706 24.1127 18.034 24.0009 18.1457C23.8892 18.2574 23.8259 18.4086 23.8245 18.5666C23.8231 18.7245 23.8838 18.8768 23.9936 18.9904L25.1987 20.1955Z" fill="black"/>
<path d="M30.4452 20.3721C30.605 20.372 30.7582 20.3085 30.8712 20.1955L32.0763 18.9904C32.1861 18.8768 32.2468 18.7245 32.2454 18.5666C32.2441 18.4086 32.1807 18.2574 32.069 18.1457C31.9573 18.034 31.8061 17.9706 31.6481 17.9693C31.4902 17.9679 31.3379 18.0286 31.2243 18.1384L30.0192 19.3435C29.935 19.4278 29.8776 19.5351 29.8543 19.652C29.8311 19.7689 29.843 19.89 29.8886 20.0001C29.9342 20.1102 30.0114 20.2043 30.1105 20.2705C30.2096 20.3367 30.326 20.372 30.4452 20.3721Z" fill="black"/>
</svg>
