<svg width="54" height="54" viewBox="0 0 54 54" fill="none" xmlns="http://www.w3.org/2000/svg">
<g clip-path="url(#clip0)">
<path d="M41.0736 18.7728C43.0428 18.9205 44.0602 19.5933 44.4212 21.0538C44.5196 21.4148 44.5196 21.8086 44.5196 22.1861C44.5196 27.9952 44.5196 33.8042 44.5196 39.6133C44.5196 41.4512 43.9289 42.2881 42.2223 42.9445C41.8941 42.9609 41.5659 42.9773 41.2377 42.9773C34.6409 42.9773 28.0277 42.9773 21.431 42.9773C17.8044 42.9773 14.1778 43.0102 10.5513 43.0102C10.3379 42.9773 10.1246 42.9445 9.89488 42.9281C9.58309 42.764 9.2713 42.6163 8.95952 42.4522C8.1062 41.7466 7.74519 40.8441 7.74519 39.7282C7.7616 35.6586 7.7616 31.5889 7.7616 27.5193C7.7616 27.4044 7.7616 27.3059 7.7616 27.1911C7.74519 26.8136 7.87647 26.5183 8.28671 26.5019C8.71337 26.4855 8.84465 26.7972 8.86106 27.1583C8.89388 27.9787 8.89388 28.7992 8.91029 29.6033C8.84465 30.0464 8.84465 30.473 8.91029 30.9161C8.82824 32.6063 8.84465 34.3129 8.91029 36.0032C8.84465 36.4955 8.84465 36.9877 8.91029 37.48C8.89388 38.399 8.84465 39.3344 8.89388 40.2533C8.94311 41.0574 9.36976 41.6153 10.2231 41.7794C10.5841 42.0092 10.9943 41.8943 11.3882 41.8779C13.0784 41.8779 14.7686 41.8779 16.4588 41.8779C16.9511 41.8779 17.4434 41.8779 17.9357 41.8779C19.5767 41.8779 21.2177 41.8779 22.8422 41.8779C23.3345 41.8779 23.8268 41.8779 24.3191 41.8779C28.1426 41.8779 31.9661 41.8779 35.7896 41.8779C36.2819 41.8779 36.7742 41.8779 37.2665 41.8779C38.7106 41.8943 40.1382 41.9271 41.5823 41.8943C42.5997 41.8779 43.3381 41.1558 43.3709 40.1548C43.4038 38.7272 43.3545 37.2831 43.3545 35.8391C43.4202 35.3468 43.4202 34.8545 43.3545 34.3622C43.4366 32.672 43.4202 30.9653 43.3545 29.2751C43.4202 28.8321 43.4202 28.4054 43.3545 27.9623C43.4366 26.2721 43.4202 24.5655 43.3545 22.8753C43.4202 22.383 43.4366 21.8907 43.3217 21.3984C43.0756 20.463 42.534 19.9707 41.6643 19.9379C40.811 19.9215 39.9413 19.9543 39.088 19.9707C38.7106 19.9707 38.3167 19.9707 37.9393 19.9707C36.2491 19.9707 34.5589 19.9707 32.8687 19.9707C32.4256 19.9707 31.9825 19.9707 31.5559 19.9707C29.8164 19.9707 28.0606 19.9707 26.3211 19.9707C25.8781 19.9707 25.435 19.9707 25.0083 19.9707C23.2525 19.9707 21.513 19.9707 19.7572 19.9707C19.3798 19.9707 18.9859 19.9707 18.6085 19.9707C16.9183 19.9707 15.2281 19.9707 13.5379 19.9707C13.0456 19.9707 12.5369 19.9707 12.0446 19.9707C9.33694 19.8066 8.81183 20.3154 8.89388 22.9737C8.89388 23.0558 8.9267 23.1378 8.9267 23.2199C8.91029 23.466 8.89388 23.7122 8.87747 23.9419C8.84465 24.5327 8.5985 24.8116 7.99134 24.5983C7.67955 23.0886 7.49904 21.5789 8.28671 20.1841C8.82824 19.2323 9.7636 18.8549 10.8302 18.8221C11.782 18.8056 12.7338 18.7892 13.6855 18.7728C14.1778 18.7728 14.6701 18.7728 15.1624 18.7728C16.8526 18.7728 18.5593 18.7728 20.2495 18.7728C20.6926 18.7728 21.1192 18.7728 21.5623 18.7728C23.2525 18.7728 24.9591 18.7728 26.6493 18.7728C27.1416 18.7728 27.6339 18.7728 28.1262 18.7728C29.8164 18.7728 31.523 18.7728 33.2133 18.7728C33.6563 18.7728 34.083 18.7728 34.526 18.7728C36.2163 18.7728 37.9229 18.7728 39.6131 18.7728C40.089 18.7728 40.5813 18.7728 41.0736 18.7728Z" fill="#0E0E0E"/>
<path d="M11.9614 26.9614C11.9778 26.4691 11.9942 25.9932 12.0107 25.5009C12.0599 24.303 12.8311 23.4825 14.0291 23.4004C14.5706 23.3676 15.1121 23.3676 15.6536 23.3512C16.0311 23.4332 16.4249 23.4168 16.8023 23.3512C18.4105 23.8107 18.7059 24.2209 18.8207 26.1409C18.8207 26.5839 18.8207 27.027 18.8207 27.4537C18.7879 27.8803 18.8207 28.3398 18.6895 28.7336C18.312 29.9972 17.2946 30.2761 16.1295 30.2761C15.6372 30.2761 15.1449 30.2761 14.6526 30.2761C12.8804 30.1613 12.3717 29.8167 11.9778 28.4382C11.9778 27.946 11.9778 27.4537 11.9614 26.9614ZM17.6392 25.3532C17.5572 24.746 17.2126 24.5327 16.7367 24.5163C15.8341 24.4999 14.9316 24.4999 14.0291 24.5163C13.6188 24.5163 13.1758 24.7296 13.2086 25.1399C13.225 25.5173 13.6845 25.304 13.947 25.3204C14.308 25.3532 14.6198 25.4517 14.6526 25.8455C14.669 26.305 14.3409 26.4034 13.947 26.4527C13.6352 26.5019 13.0937 26.1409 13.0773 26.8137C13.0609 27.5521 13.6845 27.109 13.9962 27.2239C14.0619 27.2567 14.1603 27.2403 14.2424 27.2403C14.5378 27.2896 14.669 27.4865 14.6526 27.749C14.6362 28.028 14.505 28.2085 14.2096 28.2413C14.0127 28.2577 13.8321 28.2413 13.6352 28.2577C13.4711 28.2741 13.2086 28.1265 13.1758 28.4218C13.1429 28.6188 13.307 28.7664 13.4547 28.8977C13.6352 29.0454 13.8486 29.0946 14.0619 29.0946C14.9644 29.0946 15.867 29.0946 16.7695 29.0782C17.2618 29.0618 17.6064 28.8649 17.6228 28.2906C17.4423 28.2741 17.2782 28.2741 17.1141 28.2577C16.7367 28.2249 16.1952 28.389 16.1623 27.7654C16.1295 27.0762 16.7039 27.2239 17.1141 27.2075C17.4095 27.1911 17.7213 27.2567 17.7213 26.7809C17.7213 26.2557 17.3439 26.4527 17.0813 26.4034C16.95 26.387 16.8023 26.4034 16.671 26.387C16.3757 26.3378 16.1623 26.1737 16.1459 25.8619C16.1295 25.5009 16.3593 25.3204 16.7039 25.304C17.0157 25.3368 17.311 25.3532 17.6392 25.3532Z" fill="#0E0E0E"/>
<path d="M32.5892 12.3731C32.4415 12.6684 32.2282 12.8489 31.8835 12.8654C31.7523 12.7669 31.621 12.6684 31.5061 12.5536C28.2898 9.53416 23.334 9.79671 20.5608 12.8161C20.2982 12.8818 20.0685 12.8161 19.8387 12.6684C19.6254 12.2418 19.8223 11.9628 20.1177 11.6674C20.7905 11.0275 21.5946 10.5844 22.3822 10.0921C23.0879 9.86235 23.7935 9.63262 24.4991 9.41929C26.0416 9.25519 27.5842 9.32083 29.0775 9.76389C29.4057 9.91158 29.7339 10.0593 30.0621 10.207C30.7677 10.6336 31.4897 11.0603 32.0969 11.6346C32.343 11.8479 32.5728 12.0449 32.5892 12.3731Z" fill="#0E0E0E"/>
<path d="M30.2593 14.8182C30.1608 14.8018 30.0295 14.8182 29.9639 14.7526C27.7978 12.6357 24.9917 12.488 22.7107 14.3423C22.3989 14.5885 22.1036 15.0315 21.6933 14.5721C21.2667 14.0962 21.7097 13.7844 22.0215 13.5054C24.3353 11.4706 28.0439 11.487 30.3249 13.5382C30.571 13.7516 30.8172 13.9649 30.8008 14.3423C30.7187 14.6049 30.4726 14.7033 30.2593 14.8182Z" fill="#0E0E0E"/>
<path d="M23.5471 16.6231C23.3502 16.3933 23.1697 16.1636 23.2517 15.8354C25.0404 14.1452 27.2721 14.1452 29.028 15.8354C29.11 16.4098 28.8311 16.6559 28.2731 16.6231C26.8619 15.3923 25.746 15.3267 24.2691 16.3769C24.0558 16.5574 23.8425 16.6723 23.5471 16.6231Z" fill="#0E0E0E"/>
<path d="M23.5321 35.56C23.1547 35.56 22.7608 35.56 22.3834 35.56C20.6932 35.56 19.003 35.56 17.3128 35.56C16.8205 35.56 16.3282 35.56 15.8359 35.56C14.8185 35.5436 13.8011 35.5272 12.7837 35.5272C12.275 35.5272 12.0288 35.3467 12.0288 34.838C12.1273 34.6247 12.3078 34.5098 12.5375 34.4441C14.1785 34.4441 15.8359 34.4277 17.4769 34.4277C17.9692 34.4277 18.4615 34.4277 18.9538 34.4277C20.644 34.4277 22.3342 34.4277 24.0408 34.4277C24.4839 34.4277 24.9105 34.4277 25.3536 34.4277C26.092 34.4441 26.8141 34.4606 27.5525 34.4606C27.9135 34.4606 28.2417 34.5426 28.2581 34.9528C28.2745 35.3959 27.9464 35.5108 27.5361 35.5108C26.1905 35.5272 24.8613 35.5436 23.5321 35.56Z" fill="#0E0E0E"/>
<path d="M37.6276 33.6402C37.9722 33.6731 38.3332 33.7059 38.6778 33.7551C39.9414 34.313 40.6142 35.2648 40.6142 36.6596C40.4829 37.0863 40.4009 37.5458 39.7773 37.4473C39.4983 37.2176 39.4163 36.9386 39.4655 36.5776C39.5147 36.2166 39.4491 35.872 39.2522 35.5602C38.8583 34.9202 38.0871 34.6248 37.3322 34.8546C36.6102 35.0843 36.1179 35.7735 36.1671 36.5284C36.1999 37.2832 36.7907 37.9724 37.5784 38.0873C38.0378 38.1529 38.4645 38.1858 38.4809 38.7929C38.366 39.0063 38.1691 39.1211 37.9722 39.236C37.5456 39.1704 37.0861 39.1868 36.7087 38.957C36.4133 38.7765 36.1835 38.8422 35.8882 38.9734C34.6574 39.4821 33.3775 39.1375 32.6062 38.1201C31.8678 37.1519 31.8678 35.7571 32.5898 34.7725C33.3446 33.7715 34.6738 33.3613 35.8718 33.9028C36.5774 34.2146 37.0204 33.591 37.6276 33.6402ZM34.7723 38.1037C35.3959 38.1037 35.4943 37.9724 35.281 37.4473C35.002 36.7253 34.9856 36.0033 35.3302 35.314C35.5436 34.871 35.3302 34.8053 34.9856 34.7561C34.0667 34.6248 33.2134 35.314 33.0985 36.2658C33.0164 37.2176 33.8205 38.1037 34.7723 38.1037Z" fill="#0E0E0E"/>
<path d="M14.3412 38.4483C13.8489 38.3662 13.3566 38.3662 12.8643 38.4319C12.4869 38.3498 11.9782 38.3826 12.0439 37.7755C12.0931 37.1683 12.5854 37.2832 12.9792 37.2832C13.5371 37.2668 14.1115 37.2504 14.6694 37.2504C15.1125 37.2504 15.5556 37.2504 15.9822 37.2504C16.6878 37.2668 17.3935 37.2832 18.0991 37.2832C18.4765 37.2832 18.7555 37.4309 18.7555 37.8411C18.7555 38.2678 18.4437 38.3826 18.0827 38.3826C16.8519 38.4155 15.5884 38.4319 14.3412 38.4483Z" fill="#0E0E0E"/>
</g>
<defs>
<clipPath id="clip0">
<rect width="36.8073" height="33.6402" fill="white" transform="translate(7.7124 9.35352)"/>
</clipPath>
</defs>
</svg>
