<svg width="54" height="54" viewBox="0 0 54 54" fill="none" xmlns="http://www.w3.org/2000/svg">
<path d="M37.9519 27.3173C38.2618 27.3173 38.5132 27.0836 38.5132 26.795V25.6221C38.5132 25.3334 38.2618 25.0997 37.9519 25.0997C37.6417 25.0997 37.3906 25.3334 37.3906 25.6221V26.795C37.3906 27.0836 37.6417 27.3173 37.9519 27.3173Z" fill="black"/>
<path d="M44.2069 27.406H42.6666C42.2722 25.969 41.5513 24.6021 40.5661 23.43C39.5737 22.2495 38.3081 21.2595 36.8909 20.5524V16.7617C36.8909 16.445 36.7441 16.1436 36.488 15.9346C36.2328 15.7262 35.8937 15.6302 35.5572 15.6713C33.3489 15.943 31.5273 17.3404 30.8082 19.2775H30.2159C30.225 19.1591 30.2297 19.0402 30.2297 18.9203C30.2297 16.2782 27.9208 14.1289 25.0825 14.1289C22.2436 14.1289 19.9341 16.2782 19.9341 18.9203C19.9341 19.2862 19.9797 19.647 20.0668 19.9966C18.0161 20.7262 16.2349 21.9666 14.8919 23.6055C14.7039 23.8349 14.7513 24.1627 14.998 24.3377C15.0994 24.4097 15.219 24.4446 15.3377 24.4446C15.5069 24.4446 15.6739 24.3738 15.7847 24.2392C16.9941 22.7632 18.5952 21.6445 20.4387 20.9828C20.6895 21.4703 21.0275 21.9179 21.4394 22.3037C21.3806 22.3176 21.3221 22.3323 21.2637 22.3472C20.9649 22.4242 20.7898 22.7118 20.8722 22.9901C20.9412 23.2214 21.1669 23.3732 21.413 23.3732C21.4625 23.3732 21.513 23.3669 21.563 23.3541C21.979 23.2469 22.4058 23.1705 22.8315 23.1267C23.472 23.0611 23.1001 23.081 29.6093 23.0804C29.9195 23.0804 30.1706 22.8467 30.1706 22.5581C30.1706 22.2697 29.9195 22.0357 29.6093 22.0357H28.9975C29.4588 21.5359 29.8026 20.9534 30.0081 20.3222H31.2233C31.4779 20.3222 31.7007 20.1628 31.7659 19.9337C32.2576 18.2075 33.8035 16.941 35.7037 16.7073C35.7098 16.7062 35.7285 16.7043 35.7478 16.7201C35.7616 16.7312 35.7683 16.7451 35.7683 16.762V20.8704C35.7683 21.0688 35.8887 21.25 36.0796 21.3381C38.9241 22.6544 41.0149 25.1587 41.6726 28.0375C41.7276 28.2785 41.9565 28.451 42.2217 28.451H44.2069C44.4934 28.451 44.7264 28.6679 44.7264 28.9342V32.8005C44.7264 33.0666 44.4934 33.2832 44.2069 33.2832H42.0553C41.6256 33.2832 41.2379 33.5215 41.0675 33.8915C40.9006 34.2561 40.7076 34.6158 40.4936 34.9599C40.3381 35.2094 40.4296 35.5291 40.698 35.6736C40.7866 35.7215 40.8833 35.744 40.9786 35.744C41.1725 35.744 41.361 35.6504 41.4648 35.4834C41.6969 35.1107 41.9065 34.7216 42.0878 34.3279H44.2069C45.1123 34.3279 45.849 33.6429 45.849 32.8005V28.9342C45.849 28.0916 45.1123 27.406 44.2069 27.406ZM22.9019 22.0703C21.7595 21.383 21.0564 20.1908 21.0564 18.9203C21.0564 16.8545 22.8625 15.1739 25.0822 15.1739C27.3016 15.1739 29.1071 16.8545 29.1071 18.9203C29.1071 19.1717 29.0808 19.4184 29.0296 19.6581C29.0229 19.681 29.0176 19.7044 29.0141 19.7283C28.7946 20.6658 28.1959 21.4905 27.3177 22.0357C23.8365 22.0466 23.6155 22.0107 22.9019 22.0703Z" fill="black"/>
<path d="M39.95 36.6211C39.7214 36.4265 39.3662 36.4412 39.1572 36.6542C38.6491 37.1712 38.0802 37.6386 37.4663 38.0431C37.3228 38.1376 37.2351 38.2891 37.2295 38.4526C37.1901 39.6007 37.0658 40.8794 36.8603 42.2528C36.7294 43.1283 35.9167 43.7857 34.9674 43.7857H34.9572C34.0273 43.781 33.2251 43.1213 33.074 42.2439C32.9737 41.5708 32.8927 40.9183 32.8328 40.3043C32.8006 39.9797 32.774 39.6655 32.7533 39.37C32.7313 39.0506 32.7153 38.738 32.705 38.4409C32.6954 38.1525 32.4332 37.9243 32.1265 37.9354C31.8166 37.9444 31.5734 38.1857 31.583 38.4738C31.5936 38.7821 31.6102 39.1061 31.633 39.4369C31.6418 39.564 31.6517 39.6943 31.6628 39.8271C31.5825 39.8287 31.5024 39.8298 31.4231 39.8298H24.1293C23.7542 39.8298 23.3648 39.8094 22.9713 39.7691C22.8214 39.7536 22.6711 39.7953 22.5545 39.8842C22.4378 39.9729 22.3645 40.1019 22.351 40.2417C22.2884 40.8906 22.2045 41.5672 22.1019 42.2528C21.9713 43.1267 21.1577 43.7857 20.2093 43.7857C19.2613 43.7857 18.4474 43.1267 18.3167 42.2528C18.3144 42.2384 18.3124 42.224 18.3103 42.2096C18.3094 42.2044 18.3086 42.199 18.308 42.1938C18.3071 42.1889 18.3065 42.184 18.3056 42.1791C18.1946 41.4257 18.0665 40.4115 17.9934 39.3379C17.849 37.1701 18.0098 35.8658 18.1489 35.1976C18.2077 34.9144 18.0089 34.6404 17.7046 34.5855C17.4 34.5308 17.1056 34.7158 17.0468 34.999C16.9153 35.631 16.8457 36.3335 16.8211 37.0653C14.7996 35.2411 13.6566 32.7588 13.649 30.1026C13.6487 30.0596 13.649 30.0169 13.6496 29.9739C13.6496 29.9737 13.6496 29.9734 13.6496 29.9731C13.6496 29.9682 13.6496 29.9633 13.6496 29.9584C13.6674 28.5921 13.9928 27.2704 14.6184 26.0276C14.7499 25.7662 14.6289 25.4552 14.3483 25.3328C14.0673 25.2106 13.7335 25.3232 13.6019 25.5844C12.9863 26.8076 12.6325 28.0999 12.5469 29.4344C10.9288 29.4584 9.7913 29.7783 8.99059 30.4277C8.18695 31.0812 7.86596 32.0136 8.15333 32.8616C8.58219 34.1268 10.1608 34.5512 11.1191 33.6411C11.462 33.3155 11.6257 32.8894 11.5684 32.4718C11.529 32.1856 11.2483 31.9837 10.9405 32.0199C10.6329 32.0563 10.4154 32.3181 10.4549 32.6043C10.4742 32.7441 10.3652 32.8646 10.3175 32.9098C10.1915 33.0295 10.0129 33.0973 9.86292 33.0823C9.5662 33.0526 9.32765 32.8527 9.22417 32.5474C9.07069 32.0947 9.25954 31.5965 9.72874 31.2151C10.3073 30.7455 11.2276 30.5039 12.5343 30.48C12.6571 33.6057 14.203 36.485 16.8238 38.4627C16.8668 39.7504 17.0129 41.1161 17.2047 42.3968C17.4123 43.7843 18.7041 44.8304 20.2093 44.8304C21.7146 44.8304 23.0061 43.7843 23.2137 42.3968C23.2918 41.8749 23.3593 41.3577 23.4151 40.8533C23.6566 40.8675 23.8951 40.8745 24.1293 40.8745H31.4228C31.5354 40.8745 31.6491 40.8729 31.7634 40.8699C31.8172 41.3531 31.8815 41.8483 31.9555 42.347C31.9578 42.3633 31.9604 42.3799 31.9634 42.3962V42.3968C31.9642 42.4019 31.9651 42.4071 31.966 42.4123C32.2045 43.7881 33.4756 44.823 34.9511 44.8304C34.9566 44.8304 34.9619 44.8307 34.9674 44.8304C36.4738 44.8304 37.7639 43.7867 37.9721 42.397C38.1679 41.0878 38.2919 39.86 38.3413 38.7426C38.9345 38.3315 39.4864 37.8671 39.9854 37.3592C40.1947 37.1461 40.1789 36.8159 39.95 36.6211Z" fill="black"/>
<path d="M25.47 18.3977H24.6944C24.5245 18.3977 24.3863 18.269 24.3863 18.111C24.3863 17.9532 24.5245 17.8245 24.6944 17.8245H26.1786C26.4888 17.8245 26.7399 17.5908 26.7399 17.3021C26.7399 17.0137 26.4888 16.7797 26.1786 16.7797H25.7269V16.5213C25.7269 16.2326 25.4758 15.9989 25.1656 15.9989C24.8557 15.9989 24.6043 16.2326 24.6043 16.5213V16.7825C23.8574 16.8257 23.2637 17.4052 23.2637 18.1112C23.2637 18.8453 23.9054 19.4425 24.6944 19.4425H25.47C25.6395 19.4425 25.7778 19.5711 25.7778 19.7289C25.7778 19.887 25.6395 20.0154 25.47 20.0154H23.9855C23.6756 20.0154 23.4242 20.2494 23.4242 20.5378C23.4242 20.8265 23.6756 21.0602 23.9855 21.0602H24.6043V21.3189C24.6043 21.6073 24.8557 21.8413 25.1656 21.8413C25.4758 21.8413 25.7269 21.6073 25.7269 21.3189V21.0387C26.3934 20.9258 26.9004 20.3814 26.9004 19.7289C26.9004 18.9949 26.2587 18.3977 25.47 18.3977Z" fill="black"/>
<path d="M14.9544 18.7519C17.793 18.7519 20.1025 16.6028 20.1025 13.9608C20.1025 11.319 17.793 9.16992 14.9544 9.16992C13.9231 9.16992 12.9276 9.45287 12.0758 9.98857C11.8188 10.1499 11.7513 10.4745 11.9249 10.7136C12.0983 10.9528 12.4473 11.0156 12.7043 10.8543C13.3697 10.4358 14.1479 10.2147 14.9544 10.2147C17.1742 10.2147 18.9799 11.8952 18.9799 13.9608C18.9799 16.0266 17.1742 17.7071 14.9544 17.7071C12.735 17.7071 10.9292 16.0266 10.9292 13.9608C10.9292 13.3617 11.0766 12.7895 11.3669 12.2601C11.5078 12.0032 11.3984 11.6884 11.1222 11.5573C10.8462 11.4262 10.5083 11.5279 10.3671 11.785C10.0005 12.4532 9.80664 13.2058 9.80664 13.9608C9.80664 16.6028 12.1158 18.7519 14.9544 18.7519Z" fill="black"/>
<path d="M15.0379 11.0399C14.728 11.0399 14.4766 11.2736 14.4766 11.5623V11.8235C13.7297 11.8667 13.1362 12.4462 13.1362 13.1522C13.1362 13.8863 13.7776 14.4835 14.5666 14.4835H15.3422C15.5118 14.4835 15.6501 14.6119 15.6501 14.77C15.6501 14.928 15.5118 15.0564 15.3422 15.0564H13.858C13.5478 15.0564 13.2967 15.2902 13.2967 15.5788C13.2967 15.8675 13.5478 16.1012 13.858 16.1012H14.4769V16.3596C14.4769 16.6483 14.728 16.882 15.0382 16.882C15.3481 16.882 15.5995 16.6483 15.5995 16.3596V16.0797C16.2657 15.9668 16.7726 15.4224 16.7726 14.77C16.7726 14.0359 16.1309 13.4387 15.3422 13.4387H14.5666C14.3968 13.4387 14.2588 13.31 14.2588 13.1522C14.2588 12.9942 14.3968 12.8658 14.5666 12.8658H16.0508C16.361 12.8658 16.6121 12.6318 16.6121 12.3434C16.6121 12.0547 16.361 11.821 16.0508 11.821H15.5995V11.5623C15.5992 11.2736 15.3481 11.0399 15.0379 11.0399Z" fill="black"/>
</svg>
