<svg width="199" height="60" viewBox="0 0 199 60" fill="none" xmlns="http://www.w3.org/2000/svg">
<path d="M191.92 60H6.9709C3.12799 60 0 56.808 0 52.9005V7.089C0 3.18 3.12799 0 6.9709 0H191.92C195.761 0 199 3.18 199 7.089V52.9005C199 56.808 195.761 60 191.92 60Z" fill="black"/>
<path d="M41.4863 10.3093C41.7317 12.5526 40.8476 14.763 39.5554 16.3879C38.2071 17.9873 36.0501 19.2109 33.9492 19.0532C33.6742 16.8948 34.7387 14.5995 35.9304 13.1992C37.2772 11.61 39.6161 10.3925 41.4863 10.3093Z" fill="white"/>
<path d="M48.3641 23.2494C48.1309 23.3893 44.2441 25.721 44.2864 30.4774C44.3353 36.2199 49.2822 38.1181 49.3427 38.1389C49.3131 38.2727 48.5681 40.8787 46.7125 43.5248C45.1631 45.8542 43.5398 48.1316 40.9615 48.1732C39.7358 48.2016 38.908 47.8472 38.0456 47.4777C37.1459 47.0925 36.2084 46.6911 34.7418 46.6911C33.1867 46.6911 32.2076 47.1054 31.2634 47.505C30.447 47.8505 29.6567 48.185 28.5427 48.2313C26.087 48.3219 24.2108 45.7441 22.6053 43.4355C19.3957 38.7217 16.897 30.1517 20.2472 24.3199C21.8705 21.4599 24.8303 19.618 27.9942 19.5689C29.3873 19.5403 30.7237 20.0802 31.8951 20.5535C32.7909 20.9155 33.5903 21.2384 34.245 21.2384C34.8199 21.2384 35.5963 20.9286 36.5012 20.5675C37.9282 19.998 39.676 19.3003 41.4554 19.4887C42.672 19.5244 46.1346 19.9719 48.3685 23.2467L48.3641 23.2494Z" fill="white"/>
<path d="M128.157 37.8537C129.323 36.7969 129.904 35.4277 129.904 33.7449C129.904 32.3772 129.506 31.2311 128.709 30.3153C127.91 29.3966 126.666 28.5955 124.973 27.9102C123.59 27.3617 122.636 26.8532 122.111 26.3834C121.508 25.8751 121.208 25.2285 121.208 24.4465C121.208 23.7403 121.471 23.1443 121.996 22.6552C122.617 22.1081 123.483 21.833 124.592 21.833C125.995 21.833 127.249 22.1363 128.358 22.7429L129.146 20.1592C127.958 19.5334 126.471 19.2197 124.681 19.2197C122.673 19.2197 121.068 19.7386 119.864 20.7776C118.656 21.8152 118.053 23.1488 118.053 24.7749C118.053 27.2634 119.774 29.1559 123.219 30.4478C124.484 30.919 125.39 31.4289 125.933 31.9774C126.479 32.5259 126.751 33.2023 126.751 34.0051C126.751 34.9059 126.421 35.6284 125.76 36.1665C125.096 36.7047 124.172 36.9752 122.985 36.9752C121.331 36.9752 119.812 36.553 118.428 35.7116L117.698 38.3531C118.983 39.1753 120.68 39.5855 122.797 39.5855C125.09 39.5855 126.875 39.0088 128.157 37.8537Z" fill="white"/>
<path fill-rule="evenodd" clip-rule="evenodd" d="M75.6974 39.2928H79.0548L72.6902 19.5097H68.7783L62.4446 39.2928H65.7134L67.4653 33.4819H73.8581L75.6974 39.2928ZM71.6404 25.878L73.3037 31.044H68.0212L69.655 25.878C70.0837 24.2354 70.3955 22.9926 70.5893 22.1512H70.6485C71.1348 24.1077 71.4645 25.3503 71.6404 25.878Z" fill="white"/>
<path fill-rule="evenodd" clip-rule="evenodd" d="M95.3426 31.9848C95.3426 34.411 94.6908 36.3286 93.3867 37.7364C92.2188 38.9895 90.7684 39.6153 89.0372 39.6153C87.1683 39.6153 85.826 38.9405 85.0084 37.5906H84.9493V45.1052H81.7973V29.7237C81.7973 28.1986 81.7574 26.6333 81.6805 25.0278H84.4525L84.6285 27.2887H84.6877C85.7388 25.5851 87.334 24.7349 89.4748 24.7349C91.1483 24.7349 92.5454 25.3993 93.6632 26.7298C94.7838 28.0619 95.3426 29.8129 95.3426 31.9848ZM92.1316 32.1008C92.1316 30.7124 91.821 29.5677 91.1971 28.6669C90.5156 27.7274 89.6004 27.2575 88.4532 27.2575C87.6755 27.2575 86.9688 27.5192 86.3374 28.035C85.7048 28.5552 85.2908 29.2346 85.0972 30.076C84.9995 30.4686 84.9508 30.7897 84.9508 31.0424V33.4208C84.9508 34.4584 85.2672 35.334 85.8998 36.049C86.5327 36.7641 87.3547 37.1209 88.366 37.1209C89.5531 37.1209 90.4772 36.6601 91.1381 35.7414C91.8003 34.8212 92.1316 33.6082 92.1316 32.1008Z" fill="white"/>
<path fill-rule="evenodd" clip-rule="evenodd" d="M111.66 31.9848C111.66 34.411 111.008 36.3286 109.703 37.7364C108.536 38.9895 107.086 39.6153 105.355 39.6153C103.486 39.6153 102.143 38.9405 101.327 37.5906H101.268V45.1052H98.1162V29.7237C98.1162 28.1986 98.0764 26.6333 97.9994 25.0278H100.771L100.947 27.2887H101.007C102.056 25.5851 103.651 24.7349 105.794 24.7349C107.466 24.7349 108.863 25.3993 109.984 26.7298C111.1 28.0619 111.66 29.8129 111.66 31.9848ZM108.449 32.1008C108.449 30.7124 108.137 29.5677 107.513 28.6669C106.831 27.7274 105.919 27.2575 104.771 27.2575C103.992 27.2575 103.286 27.5192 102.653 28.035C102.021 28.5552 101.608 29.2346 101.415 30.076C101.318 30.4686 101.268 30.7897 101.268 31.0424V33.4208C101.268 34.4584 101.585 35.334 102.214 36.049C102.847 36.7625 103.669 37.1209 104.683 37.1209C105.871 37.1209 106.795 36.6601 107.455 35.7414C108.118 34.8212 108.449 33.6082 108.449 32.1008Z" fill="white"/>
<path d="M136.851 27.4064H140.326V25.025H136.851V21.4736L133.755 22.4131V25.025H131.686V27.4035H133.755V34.594C133.755 36.3941 134.107 37.6755 134.807 38.4397C135.509 39.2022 136.482 39.5844 137.726 39.5844C138.739 39.5844 139.557 39.4668 140.178 39.2336L140.09 36.8267C139.721 36.925 139.254 36.974 138.69 36.974C137.463 36.974 136.851 36.094 136.851 34.3323V27.4064Z" fill="white"/>
<path fill-rule="evenodd" clip-rule="evenodd" d="M154.133 37.4433C155.377 36.0355 156.001 34.2354 156.001 32.0427C156.001 29.9095 155.398 28.1688 154.189 26.8204C152.925 25.4305 151.25 24.7362 149.168 24.7362C147.008 24.7362 145.29 25.4409 144.017 26.8501C142.741 28.2578 142.106 30.0686 142.106 32.2791C142.106 34.3915 142.724 36.1442 143.96 37.5325C145.196 38.9209 146.853 39.6152 148.934 39.6152C151.094 39.6152 152.827 38.8928 154.133 37.4433ZM151.885 28.7604C152.452 29.7013 152.731 30.8297 152.731 32.1453C152.731 33.4593 152.438 34.5995 151.857 35.5584C151.176 36.7149 150.231 37.2948 149.028 37.2948C147.799 37.2948 146.847 36.7268 146.165 35.588C145.599 34.6485 145.32 33.5203 145.32 32.2047C145.32 30.849 145.599 29.7029 146.165 28.7604C146.826 27.6232 147.789 27.0537 149.056 27.0537C150.28 27.0537 151.225 27.6216 151.885 28.7604Z" fill="white"/>
<path d="M165.253 27.7274C165.602 27.7274 165.935 27.757 166.247 27.8151V24.7929C166.013 24.7557 165.75 24.7349 165.459 24.7349C164.641 24.7349 163.883 24.9891 163.181 25.499C162.462 26.0654 161.937 26.8204 161.605 27.7586H161.517L161.402 25.0291H158.657C158.735 26.379 158.775 27.8759 158.775 29.52L158.745 39.2926H161.896V31.8079C161.896 30.6738 162.159 29.7341 162.684 28.991C163.287 28.148 164.145 27.7274 165.253 27.7274Z" fill="white"/>
<path fill-rule="evenodd" clip-rule="evenodd" d="M180.228 32.9227C180.307 32.5318 180.344 32.0531 180.344 31.4852C180.344 29.7058 179.925 28.2074 179.093 26.9958C178.042 25.4705 176.494 24.708 174.449 24.708C172.368 24.708 170.713 25.4705 169.489 26.9958C168.32 28.4244 167.736 30.2157 167.736 32.3668C167.736 34.5579 168.364 36.3047 169.618 37.6053C170.874 38.9062 172.601 39.5573 174.801 39.5573C176.63 39.5573 178.215 39.2644 179.557 38.6757L179.063 36.4755C177.915 36.9259 176.637 37.1506 175.237 37.1506C173.972 37.1506 172.941 36.8175 172.144 36.153C171.266 35.4097 170.809 34.3319 170.772 32.9227H180.228ZM176.726 28.2266C177.153 28.9119 177.359 29.7237 177.338 30.6632L170.772 30.6616C170.868 29.7043 171.18 28.8823 171.705 28.197C172.345 27.3348 173.184 26.9052 174.214 26.9052C175.342 26.9052 176.18 27.3452 176.726 28.2266Z" fill="white"/>
</svg>
