<svg width="60" height="60" viewBox="0 0 60 60" fill="none" xmlns="http://www.w3.org/2000/svg">
<g clip-path="url(#clip0)">
<circle cx="42" cy="18" r="18" fill="#FFE294"/>
<path d="M46.3043 12.8805H39.7826V11.25C39.7826 11.0338 39.6967 10.8265 39.5438 10.6736C39.391 10.5207 39.1836 10.4348 38.9674 10.4348C38.7512 10.4348 38.5438 10.5207 38.3909 10.6736C38.2381 10.8265 38.1522 11.0338 38.1522 11.25V12.8805H21.8478V11.25C21.8478 11.0338 21.7619 10.8265 21.6091 10.6736C21.4562 10.5207 21.2488 10.4348 21.0326 10.4348C20.8164 10.4348 20.609 10.5207 20.4562 10.6736C20.3033 10.8265 20.2174 11.0338 20.2174 11.25V12.8805H13.6957C13.047 12.8805 12.425 13.1381 11.9663 13.5968C11.5077 14.0554 11.25 14.6775 11.25 15.3261V47.1196C11.25 47.7682 11.5077 48.3903 11.9663 48.8489C12.425 49.3076 13.047 49.5652 13.6957 49.5652H46.3043C46.953 49.5652 47.575 49.3076 48.0337 48.8489C48.4923 48.3903 48.75 47.7682 48.75 47.1196V15.3261C48.75 14.6775 48.4923 14.0554 48.0337 13.5968C47.575 13.1381 46.953 12.8805 46.3043 12.8805ZM12.8804 15.3261C12.8804 15.1099 12.9663 14.9026 13.1192 14.7497C13.2721 14.5968 13.4794 14.5109 13.6957 14.5109H20.2174V16.1413C20.2174 16.3575 20.3033 16.5649 20.4562 16.7178C20.609 16.8707 20.8164 16.9566 21.0326 16.9566C21.2488 16.9566 21.4562 16.8707 21.6091 16.7178C21.7619 16.5649 21.8478 16.3575 21.8478 16.1413V14.5109H38.1522V16.1413C38.1522 16.3575 38.2381 16.5649 38.3909 16.7178C38.5438 16.8707 38.7512 16.9566 38.9674 16.9566C39.1836 16.9566 39.391 16.8707 39.5438 16.7178C39.6967 16.5649 39.7826 16.3575 39.7826 16.1413V14.5109H46.3043C46.5206 14.5109 46.7279 14.5968 46.8808 14.7497C47.0337 14.9026 47.1196 15.1099 47.1196 15.3261V20.2174H12.8804V15.3261ZM47.1196 47.1196C47.1196 47.3358 47.0337 47.5432 46.8808 47.696C46.7279 47.8489 46.5206 47.9348 46.3043 47.9348H13.6957C13.4794 47.9348 13.2721 47.8489 13.1192 47.696C12.9663 47.5432 12.8804 47.3358 12.8804 47.1196V21.8479H47.1196V47.1196Z" fill="black"/>
<path d="M25.1087 34.8912H34.8913C35.1075 34.8912 35.3148 34.8053 35.4677 34.6524C35.6206 34.4995 35.7065 34.2922 35.7065 34.076C35.7065 33.8597 35.6206 33.6524 35.4677 33.4995C35.3148 33.3466 35.1075 33.2607 34.8913 33.2607H25.1087C24.8925 33.2607 24.6851 33.3466 24.5322 33.4995C24.3793 33.6524 24.2935 33.8597 24.2935 34.076C24.2935 34.2922 24.3793 34.4995 24.5322 34.6524C24.6851 34.8053 24.8925 34.8912 25.1087 34.8912Z" fill="black"/>
</g>
<defs>
<clipPath id="clip0">
<rect width="60" height="60" fill="white"/>
</clipPath>
</defs>
</svg>
