<svg width="60" height="60" viewBox="0 0 60 60" fill="none" xmlns="http://www.w3.org/2000/svg">
<path d="M43.7439 12.6664C43.7353 12.3737 43.6187 12.0882 43.4031 11.8727L31.8733 0.342871C31.8729 0.342383 31.8724 0.342187 31.872 0.341699C31.6602 0.130566 31.3681 0 31.0456 0H8.71855C7.35947 0 6.25391 1.10547 6.25391 2.46455V47.5353C6.25391 48.8943 7.35938 49.9999 8.71846 49.9999H41.2813C42.6403 49.9999 43.7459 48.8944 43.7459 47.5353V12.7004C43.7461 12.6889 43.7447 12.6777 43.7439 12.6664ZM32.2163 3.99717L39.749 11.5299H32.7104C32.4379 11.5299 32.2163 11.3083 32.2163 11.0358V3.99717ZM41.4047 47.5355C41.4046 47.6033 41.3493 47.6586 41.2814 47.6586H8.71855C8.65068 47.6586 8.59541 47.6033 8.59541 47.5354V2.46455C8.59541 2.39668 8.65068 2.34141 8.71855 2.34141H29.8749V11.0358C29.8749 12.5992 31.1469 13.8713 32.7104 13.8713H41.4048V47.5355H41.4047Z" fill="black"/>
<circle cx="37.5" cy="40.5" r="19.5" fill="#FECA40"/>
<path d="M43.25 29.75H32.75C32.1533 29.75 31.581 29.9871 31.159 30.409C30.7371 30.831 30.5 31.4033 30.5 32V50C30.5 50.5967 30.7371 51.169 31.159 51.591C31.581 52.0129 32.1533 52.25 32.75 52.25H43.25C43.8467 52.25 44.419 52.0129 44.841 51.591C45.2629 51.169 45.5 50.5967 45.5 50V32C45.5 31.4033 45.2629 30.831 44.841 30.409C44.419 29.9871 43.8467 29.75 43.25 29.75ZM44.75 50C44.75 50.3978 44.592 50.7794 44.3107 51.0607C44.0294 51.342 43.6478 51.5 43.25 51.5H32.75C32.3522 51.5 31.9706 51.342 31.6893 51.0607C31.408 50.7794 31.25 50.3978 31.25 50V32C31.25 31.6022 31.408 31.2206 31.6893 30.9393C31.9706 30.658 32.3522 30.5 32.75 30.5H43.25C43.6478 30.5 44.0294 30.658 44.3107 30.9393C44.592 31.2206 44.75 31.6022 44.75 32V50Z" fill="black"/>
<path d="M38.75 48.5H37.25C36.9516 48.5 36.6655 48.6185 36.4545 48.8295C36.2435 49.0405 36.125 49.3266 36.125 49.625C36.125 49.9234 36.2435 50.2095 36.4545 50.4205C36.6655 50.6315 36.9516 50.75 37.25 50.75H38.75C39.0484 50.75 39.3345 50.6315 39.5455 50.4205C39.7565 50.2095 39.875 49.9234 39.875 49.625C39.875 49.3266 39.7565 49.0405 39.5455 48.8295C39.3345 48.6185 39.0484 48.5 38.75 48.5ZM38.75 50H37.25C37.1505 50 37.0552 49.9605 36.9848 49.8902C36.9145 49.8198 36.875 49.7245 36.875 49.625C36.875 49.5255 36.9145 49.4302 36.9848 49.3598C37.0552 49.2895 37.1505 49.25 37.25 49.25H38.75C38.8495 49.25 38.9448 49.2895 39.0152 49.3598C39.0855 49.4302 39.125 49.5255 39.125 49.625C39.125 49.7245 39.0855 49.8198 39.0152 49.8902C38.9448 49.9605 38.8495 50 38.75 50Z" fill="black"/>
<path d="M35.375 31.25H36.125V32H35.375V31.25Z" fill="black"/>
<path d="M36.875 31.25H39.125V32H36.875V31.25Z" fill="black"/>
<path d="M36.875 42.125H39.125V42.875H36.875V42.125Z" fill="black"/>
<path d="M44.0003 40.25C43.9994 39.9519 43.8806 39.6663 43.6698 39.4555C43.459 39.2447 43.1734 39.1259 42.8753 39.125C42.5987 39.1258 42.3325 39.2301 42.1291 39.4175L41.7278 38.6187L41.4353 37.4413C41.3949 37.2791 41.3012 37.1352 41.1693 37.0325C41.0375 36.9299 40.875 36.8744 40.7078 36.875H39.8753V35.75C39.8753 35.6505 39.8358 35.5552 39.7655 35.4848C39.6952 35.4145 39.5998 35.375 39.5003 35.375H36.5003C36.4009 35.375 36.3055 35.4145 36.2352 35.4848C36.1648 35.5552 36.1253 35.6505 36.1253 35.75V36.875H35.2928C35.1257 36.8744 34.9632 36.9299 34.8313 37.0325C34.6994 37.1352 34.6058 37.2791 34.5653 37.4413L34.2728 38.6187L33.8716 39.4175C33.6682 39.2301 33.4019 39.1258 33.1253 39.125C32.8823 39.126 32.6461 39.2057 32.4521 39.3521C32.2581 39.4985 32.1168 39.7038 32.0492 39.9373C31.9817 40.1708 31.9915 40.4199 32.0774 40.6473C32.1632 40.8747 32.3204 41.0681 32.5253 41.1987C32.4278 41.3661 32.3761 41.5563 32.3753 41.75V45.125C32.3759 45.3237 32.4551 45.5142 32.5957 45.6547C32.7362 45.7952 32.9266 45.8744 33.1253 45.875H34.6253C34.8241 45.8744 35.0145 45.7952 35.155 45.6547C35.2955 45.5142 35.3747 45.3237 35.3753 45.125V44.375H40.6253V45.125C40.6259 45.3237 40.7051 45.5142 40.8457 45.6547C40.9862 45.7952 41.1766 45.8744 41.3753 45.875H42.8753C43.0741 45.8744 43.2645 45.7952 43.405 45.6547C43.5455 45.5142 43.6247 45.3237 43.6253 45.125V41.75C43.6246 41.5563 43.5729 41.3661 43.4753 41.1987C43.6361 41.0981 43.7686 40.9582 43.8605 40.7922C43.9523 40.6263 44.0004 40.4397 44.0003 40.25ZM36.8753 36.125H39.1253V36.875H36.8753V36.125ZM35.2928 37.625H40.7078L40.8953 38.375H35.1053L35.2928 37.625ZM34.8578 39.125H41.1428L41.8928 40.625H34.1078L34.8578 39.125ZM32.7503 40.25C32.75 40.1566 32.7847 40.0665 32.8477 39.9976C32.9107 39.9286 32.9973 39.8859 33.0903 39.8779C33.1834 39.8699 33.276 39.8971 33.3499 39.9542C33.4238 40.0114 33.4735 40.0942 33.4891 40.1862L33.2903 40.58C33.2399 40.6084 33.1832 40.6239 33.1253 40.625C33.0259 40.625 32.9305 40.5855 32.8602 40.5152C32.7898 40.4448 32.7503 40.3495 32.7503 40.25ZM34.6253 45.125H33.1253V44.3075C33.2456 44.3512 33.3724 44.374 33.5003 44.375H34.6253V45.125ZM42.8753 45.125H41.3753V44.375H42.5003C42.6283 44.374 42.7551 44.3512 42.8753 44.3075V45.125ZM42.8753 43.25C42.8753 43.3495 42.8358 43.4448 42.7655 43.5152C42.6952 43.5855 42.5998 43.625 42.5003 43.625H33.5003C33.4009 43.625 33.3055 43.5855 33.2352 43.5152C33.1648 43.4448 33.1253 43.3495 33.1253 43.25V41.75C33.1253 41.6505 33.1648 41.5552 33.2352 41.4848C33.3055 41.4145 33.4009 41.375 33.5003 41.375H42.5003C42.5998 41.375 42.6952 41.4145 42.7655 41.4848C42.8358 41.5552 42.8753 41.6505 42.8753 41.75V43.25ZM42.8753 40.625C42.8174 40.6239 42.7608 40.6084 42.7103 40.58L42.5116 40.1862C42.5242 40.1165 42.5565 40.0517 42.6047 39.9997C42.6529 39.9476 42.7149 39.9104 42.7835 39.8924C42.8521 39.8744 42.9244 39.8764 42.992 39.8981C43.0595 39.9198 43.1194 39.9604 43.1647 40.015C43.2099 40.0696 43.2386 40.136 43.2475 40.2063C43.2563 40.2767 43.2448 40.3481 43.2144 40.4122C43.184 40.4763 43.136 40.5304 43.0759 40.5681C43.0158 40.6057 42.9462 40.6255 42.8753 40.625Z" fill="black"/>
<path d="M41.375 43.25C41.7892 43.25 42.125 42.9142 42.125 42.5C42.125 42.0858 41.7892 41.75 41.375 41.75C40.9608 41.75 40.625 42.0858 40.625 42.5C40.625 42.9142 40.9608 43.25 41.375 43.25Z" fill="black"/>
<path d="M34.625 43.25C35.0392 43.25 35.375 42.9142 35.375 42.5C35.375 42.0858 35.0392 41.75 34.625 41.75C34.2108 41.75 33.875 42.0858 33.875 42.5C33.875 42.9142 34.2108 43.25 34.625 43.25Z" fill="black"/>
</svg>
