<svg width="60" height="60" viewBox="0 0 60 60" fill="none" xmlns="http://www.w3.org/2000/svg">
<path d="M43.7439 12.6664C43.7353 12.3737 43.6187 12.0882 43.4031 11.8727L31.8733 0.342871C31.8729 0.342383 31.8724 0.342187 31.872 0.341699C31.6602 0.130566 31.3681 0 31.0456 0H8.71855C7.35947 0 6.25391 1.10547 6.25391 2.46455V47.5353C6.25391 48.8943 7.35938 49.9999 8.71846 49.9999H41.2813C42.6403 49.9999 43.7459 48.8944 43.7459 47.5353V12.7004C43.7461 12.6889 43.7447 12.6777 43.7439 12.6664ZM32.2163 3.99717L39.749 11.5299H32.7104C32.4379 11.5299 32.2163 11.3083 32.2163 11.0358V3.99717ZM41.4047 47.5355C41.4046 47.6033 41.3493 47.6586 41.2814 47.6586H8.71855C8.65068 47.6586 8.59541 47.6033 8.59541 47.5354V2.46455C8.59541 2.39668 8.65068 2.34141 8.71855 2.34141H29.8749V11.0358C29.8749 12.5992 31.1469 13.8713 32.7104 13.8713H41.4048V47.5355H41.4047Z" fill="black"/>
<circle cx="37.5" cy="40.5" r="19.5" fill="#FECA40"/>
<path d="M30.6554 38.1496C35.5264 37.4407 40.4744 37.4407 45.3455 38.1496C45.3631 38.1521 45.381 38.1534 45.3988 38.1534C45.4566 38.1534 45.5135 38.1399 45.5651 38.1139C45.6167 38.088 45.6615 38.0504 45.696 38.0041C45.7305 37.9578 45.7537 37.9041 45.7637 37.8472C45.7738 37.7903 45.7704 37.7319 45.7539 37.6766C45.2539 36.0089 44.2296 34.5468 42.8329 33.5073C41.4361 32.4679 39.7415 31.9065 38.0004 31.9065C36.2594 31.9065 34.5647 32.4679 33.168 33.5073C31.7712 34.5468 30.7469 36.0089 30.247 37.6766C30.2291 37.7363 30.2266 37.7995 30.2397 37.8603C30.2527 37.9212 30.2809 37.9779 30.3216 38.025C30.3623 38.0721 30.4142 38.1082 30.4725 38.13C30.5309 38.1518 30.5937 38.1585 30.6554 38.1496ZM38.0004 32.6474C39.4799 32.6544 40.9233 33.1045 42.1446 33.9395C43.3658 34.7745 44.309 35.9563 44.8524 37.3323C40.3046 36.7248 35.6962 36.7248 31.1485 37.3323C31.6919 35.9563 32.635 34.7745 33.8563 33.9395C35.0775 33.1045 36.521 32.6544 38.0004 32.6474Z" fill="black"/>
<path d="M38 30C36.0222 30 34.0888 30.5865 32.4443 31.6853C30.7998 32.7841 29.5181 34.3459 28.7612 36.1732C28.0043 38.0005 27.8063 40.0111 28.1922 41.951C28.578 43.8908 29.5304 45.6726 30.9289 47.0711C32.3275 48.4697 34.1093 49.4221 36.0491 49.8079C37.989 50.1938 39.9996 49.9958 41.8269 49.2389C43.6542 48.482 45.216 47.2003 46.3148 45.5558C47.4136 43.9113 48.0001 41.9779 48.0001 40C47.9971 37.3488 46.9426 34.807 45.0679 32.9322C43.1931 31.0575 40.6513 30.003 38 30ZM38 49.2591C36.1688 49.2591 34.3787 48.716 32.856 47.6986C31.3334 46.6812 30.1466 45.2352 29.4458 43.5433C28.745 41.8515 28.5617 39.9898 28.9189 38.1937C29.2762 36.3976 30.158 34.7478 31.4529 33.4529C32.7478 32.158 34.3976 31.2762 36.1937 30.9189C37.9898 30.5617 39.8515 30.745 41.5433 31.4458C43.2352 32.1466 44.6812 33.3334 45.6986 34.856C46.716 36.3786 47.2591 38.1688 47.2591 40C47.2563 42.4548 46.2799 44.8083 44.5441 46.5441C42.8083 48.2799 40.4548 49.2563 38 49.2591Z" fill="black"/>
<path d="M45.8573 41.3049C45.8226 41.2624 45.7788 41.2282 45.7293 41.2047C45.6797 41.1811 45.6255 41.1689 45.5706 41.1689H42.9436C42.0129 41.1699 41.1205 41.54 40.4623 42.198C39.8041 42.8561 39.4338 43.7483 39.4326 44.6791V47.5096C39.4326 47.6079 39.4717 47.7021 39.5411 47.7716C39.6106 47.8411 39.7049 47.8801 39.8031 47.8801C39.8322 47.8802 39.8611 47.8768 39.8893 47.8699C41.3872 47.509 42.7512 46.7288 43.8216 45.6206C44.8921 44.5125 45.6247 43.1224 45.9337 41.6129C45.9446 41.5591 45.9434 41.5036 45.9302 41.4503C45.917 41.397 45.8921 41.3473 45.8573 41.3049ZM40.1736 47.0243V44.6791C40.1748 43.9449 40.4671 43.2411 40.9863 42.722C41.5055 42.2029 42.2094 41.9109 42.9436 41.91H45.1032C44.7787 43.1086 44.1567 44.2059 43.2949 45.1C42.4332 45.994 41.3595 46.656 40.1736 47.0243Z" fill="black"/>
<path d="M33.0582 41.1689H30.4311C30.3762 41.1689 30.3219 41.1811 30.2723 41.2047C30.2226 41.2282 30.1788 41.2625 30.1441 41.3051C30.1093 41.3477 30.0845 41.3974 30.0713 41.4508C30.0582 41.5041 30.057 41.5597 30.068 41.6136C30.377 43.123 31.1097 44.5132 32.1801 45.6213C33.2506 46.7294 34.6146 47.5096 36.1125 47.8706C36.1407 47.8774 36.1696 47.8808 36.1987 47.8807C36.2969 47.8807 36.3912 47.8417 36.4606 47.7722C36.5301 47.7027 36.5692 47.6085 36.5692 47.5102V44.6791C36.568 43.7483 36.1977 42.8561 35.5395 42.198C34.8813 41.54 33.9889 41.1699 33.0582 41.1689ZM35.8281 47.0243C34.6423 46.6559 33.5687 45.994 32.707 45.0999C31.8452 44.2058 31.2233 43.1086 30.8988 41.91H33.0584C33.7926 41.911 34.4964 42.203 35.0156 42.7221C35.5348 43.2412 35.827 43.9449 35.8281 44.6791V47.0243Z" fill="black"/>
<path d="M40.1302 40.3542C40.1302 39.9328 40.0053 39.5209 39.7712 39.1705C39.5371 38.8201 39.2043 38.547 38.815 38.3858C38.4257 38.2245 37.9973 38.1824 37.584 38.2646C37.1707 38.3468 36.791 38.5497 36.4931 38.8477C36.1951 39.1457 35.9922 39.5254 35.9101 39.9387C35.8279 40.352 35.8701 40.7804 36.0314 41.1697C36.1927 41.559 36.4658 41.8917 36.8162 42.1258C37.1666 42.3599 37.5785 42.4848 37.9999 42.4847C38.5647 42.4841 39.1062 42.2594 39.5056 41.86C39.905 41.4605 40.1296 40.919 40.1302 40.3542ZM37.9999 38.9649C38.1948 38.9648 38.3874 39.0057 38.5654 39.085C38.7434 39.1642 38.9028 39.2801 39.0331 39.4249C39.1634 39.5698 39.2617 39.7405 39.3217 39.9259C39.3817 40.1112 39.4021 40.3072 39.3814 40.5009C38.9984 40.1674 38.5077 39.9837 37.9999 39.9837C37.4921 39.9837 37.0014 40.1674 36.6184 40.5009C36.5974 40.3071 36.6176 40.111 36.6775 39.9255C36.7374 39.74 36.8357 39.5692 36.966 39.4243C37.0964 39.2794 37.2559 39.1635 37.434 39.0844C37.6121 39.0052 37.805 38.9645 37.9999 38.9649ZM37.9999 41.7437C37.7947 41.7436 37.5921 41.698 37.4066 41.6101C37.2212 41.5223 37.0576 41.3943 36.9275 41.2356C37.0568 41.0757 37.2202 40.9468 37.4058 40.8582C37.5913 40.7696 37.7943 40.7237 37.9999 40.7237C38.2055 40.7237 38.4085 40.7696 38.5941 40.8582C38.7796 40.9468 38.943 41.0757 39.0723 41.2356C38.9423 41.3943 38.7786 41.5223 38.5932 41.6101C38.4077 41.698 38.2051 41.7436 37.9999 41.7437Z" fill="black"/>
</svg>
