<svg width="60" height="60" viewBox="0 0 60 60" fill="none" xmlns="http://www.w3.org/2000/svg">
<path d="M43.7439 12.6664C43.7353 12.3737 43.6187 12.0882 43.4031 11.8727L31.8733 0.342871C31.8729 0.342383 31.8724 0.342187 31.872 0.341699C31.6602 0.130566 31.3681 0 31.0456 0H8.71855C7.35947 0 6.25391 1.10547 6.25391 2.46455V47.5353C6.25391 48.8943 7.35938 49.9999 8.71846 49.9999H41.2813C42.6403 49.9999 43.7459 48.8944 43.7459 47.5353V12.7004C43.7461 12.6889 43.7447 12.6777 43.7439 12.6664ZM32.2163 3.99717L39.749 11.5299H32.7104C32.4379 11.5299 32.2163 11.3083 32.2163 11.0358V3.99717ZM41.4047 47.5355C41.4046 47.6033 41.3493 47.6586 41.2814 47.6586H8.71855C8.65068 47.6586 8.59541 47.6033 8.59541 47.5354V2.46455C8.59541 2.39668 8.65068 2.34141 8.71855 2.34141H29.8749V11.0358C29.8749 12.5992 31.1469 13.8713 32.7104 13.8713H41.4048V47.5355H41.4047Z" fill="black"/>
<circle cx="37.5" cy="40.5" r="19.5" fill="#FECA40"/>
<g clip-path="url(#clip0)">
<path d="M45.0996 50.2377V52.6003C45.0996 52.8211 44.9205 53.0002 44.6997 53.0002C44.4788 53.0002 44.2997 52.8211 44.2997 52.6003V50.2377C44.2997 48.3981 42.8111 46.9095 40.9714 46.9095C40.101 46.9095 39.3111 46.466 38.8587 45.7231C38.7438 45.5345 38.8036 45.2884 38.9923 45.1735C39.1808 45.0585 39.4269 45.1183 39.5419 45.3071C39.8479 45.8096 40.3824 46.1095 40.9714 46.1095C43.2531 46.1094 45.0996 47.9559 45.0996 50.2377ZM37.6442 45.9228C36.8069 46.1053 35.9571 45.9201 35.2829 45.4572C35.3985 45.2013 35.4696 44.926 35.4921 44.6407C38.9204 45.6499 42.3499 43.0624 42.3499 39.5081C42.3499 36.116 42.3541 36.17 42.3403 36.0309C42.2877 35.4796 41.4911 35.5546 41.5443 36.1093C41.5532 36.2 41.55 36.2794 41.55 39.5081C41.55 42.0167 39.5091 44.0576 37.0005 44.0576C34.4918 44.0576 32.4509 42.0167 32.4509 39.5081C32.4509 38.6071 32.4413 37.9093 32.4382 37.3862C32.4301 36.0735 33.6439 35.0761 34.9574 35.391C36.8099 35.8352 37.5566 36.9907 39.931 36.8801C40.1516 36.8698 40.3221 36.6825 40.3118 36.4619C40.3014 36.2412 40.1153 36.0719 39.8935 36.0811C37.7529 36.1817 37.1596 35.0966 35.144 34.6132C33.3216 34.176 31.6271 35.5626 31.6383 37.3911C31.641 37.8164 31.6466 38.2821 31.6494 38.8558C31.3831 38.7169 31.201 38.4415 31.201 38.1248C31.201 38.1156 31.2011 36.0473 31.2009 36.0382C31.1809 35.1316 31.31 32.8537 32.9384 31.284C34.7578 29.5303 37.6044 29.5296 39.8176 30.3011L39.4979 30.4327C39.1162 30.5897 39.196 31.1561 39.6076 31.2002L40.3106 31.2755C41.6636 31.4204 42.8602 32.126 43.6268 33.2223C43.1237 33.8337 42.8498 34.5947 42.8498 35.3965V38.1247C42.8498 38.3456 43.0289 38.5247 43.2498 38.5247C43.4706 38.5247 43.6497 38.3456 43.6497 38.1247V35.3965C43.6497 34.7014 43.9182 34.0463 44.4056 33.5519C44.5412 33.4144 44.5579 33.1925 44.4632 33.0398C43.6658 31.761 42.4793 30.9376 41.125 30.6073C41.3441 30.4204 41.301 30.0732 41.0475 29.945C39.8847 29.3577 38.2261 28.9454 36.6477 29.0062C32.6545 29.161 30.317 32.1431 30.4012 36.0514V38.1248C30.4012 38.89 30.9366 39.533 31.6551 39.7057C31.7297 41.7485 32.9549 43.5027 34.7008 44.3374V44.4427C34.7008 45.3648 33.9536 46.1096 33.0296 46.1096C30.7432 46.1096 28.9014 47.9605 28.9014 50.2377V52.6003C28.9014 52.8212 29.0804 53.0003 29.3013 53.0003C29.5222 53.0003 29.7013 52.8212 29.7013 52.6003V50.2377C29.7013 48.3983 31.1899 46.9095 33.0296 46.9095C33.7107 46.9095 34.3592 46.6365 34.839 46.1224C35.6917 46.7044 36.7622 46.9338 37.8145 46.7044C38.0303 46.6574 38.1672 46.4443 38.1201 46.2285C38.0731 46.0126 37.8598 45.8756 37.6442 45.9228ZM41.0501 50.9504H39.8502C39.6293 50.9504 39.4502 51.1295 39.4502 51.3504C39.4502 51.5713 39.6293 51.7504 39.8502 51.7504H41.0501C41.2709 51.7504 41.45 51.5713 41.45 51.3504C41.45 51.1295 41.2709 50.9504 41.0501 50.9504Z" fill="black"/>
</g>
<defs>
<clipPath id="clip0">
<rect width="24" height="24" fill="white" transform="translate(25 29)"/>
</clipPath>
</defs>
</svg>
