<svg width="199" height="60" viewBox="0 0 199 60" fill="none" xmlns="http://www.w3.org/2000/svg">
<g clip-path="url(#clip0)">
<path d="M191.63 60H7.37037C3.31851 60 1.1244e-07 56.6231 1.1244e-07 52.5V7.5C1.1244e-07 3.37688 3.31851 3.8147e-06 7.37037 3.8147e-06H191.63C195.681 3.8147e-06 199 3.37688 199 7.5V52.5C199 56.6231 195.681 60 191.63 60Z" fill="black"/>
<path d="M14.6811 12.4282C14.2447 12.8773 13.9922 13.5766 13.9922 14.4821V46.7816C13.9922 47.6872 14.2447 48.3864 14.6811 48.8355L14.7888 48.9341L33.199 30.8418V30.4146L14.7888 12.3223L14.6811 12.4282Z" fill="url(#paint0_linear)"/>
<path d="M39.3291 36.8755L33.1992 30.8417V30.4145L39.3366 24.3807L39.474 24.4592L46.7422 28.5249C48.8165 29.6787 48.8165 31.5774 46.7422 32.7385L39.474 36.797C39.474 36.797 39.3291 36.8755 39.3291 36.8755Z" fill="url(#paint1_linear)"/>
<path d="M39.4738 36.7968L33.199 30.6279L14.6812 48.8352C15.3701 49.5472 16.4936 49.633 17.7712 48.921L39.4738 36.7968Z" fill="url(#paint2_linear)"/>
<path d="M39.4738 24.459L17.7712 12.3348C16.4936 11.6301 15.3701 11.7159 14.6812 12.4279L33.199 30.6279L39.4738 24.459Z" fill="url(#paint3_linear)"/>
<path fill-rule="evenodd" clip-rule="evenodd" d="M94.06 31.0863C94.06 27.4843 96.9105 24.8736 100.4 24.8736C103.896 24.8736 106.747 27.4843 106.747 31.0863C106.747 34.6591 103.896 37.2972 100.4 37.2972C96.9105 37.2972 94.06 34.6591 94.06 31.0863ZM96.8381 31.0863C96.8381 33.2972 98.4852 34.8509 100.4 34.8509C102.314 34.8509 103.969 33.2972 103.969 31.0863C103.969 28.8462 102.314 27.3201 100.4 27.3201C98.4852 27.3201 96.8381 28.8462 96.8381 31.0863Z" fill="white"/>
<path fill-rule="evenodd" clip-rule="evenodd" d="M80.2273 31.0863C80.2273 27.4843 83.0703 24.8736 86.5671 24.8736C90.0619 24.8736 92.9068 27.4843 92.9068 31.0863C92.9068 34.6591 90.0619 37.2972 86.5671 37.2972C83.0703 37.2972 80.2273 34.6591 80.2273 31.0863ZM82.9979 31.0863C82.9979 33.2972 84.6506 34.8509 86.5671 34.8509C88.4816 34.8509 90.1288 33.2972 90.1288 31.0863C90.1288 28.8462 88.4816 27.3201 86.5671 27.3201C84.6506 27.3201 82.9979 28.8462 82.9979 31.0863Z" fill="white"/>
<path d="M70.1068 29.4177V26.7777H79.1317C79.2245 27.2488 79.2765 27.8129 79.2765 28.4264C79.2765 30.4016 78.725 32.8481 76.9553 34.588C75.2283 36.3551 73.0315 37.2972 70.1068 37.2972C64.6954 37.2972 60.1477 32.9686 60.1477 27.6485C60.1477 22.3286 64.6954 18 70.1068 18C73.0965 18 75.2283 19.1557 76.8309 20.66L74.9386 22.5204C73.7929 21.4578 72.2404 20.6381 70.1068 20.6381C66.1606 20.6381 63.0706 23.7692 63.0706 27.6487C63.0706 31.5282 66.1606 34.6591 70.1068 34.6591C72.6675 34.6591 74.1253 33.6459 75.0612 32.733C75.83 31.9773 76.3313 30.8927 76.5189 29.4177H70.1068Z" fill="white"/>
<path fill-rule="evenodd" clip-rule="evenodd" d="M132.004 24.8736C135.283 24.8736 136.893 27.4349 137.415 28.8242L137.707 29.5308L129.255 32.9686C129.902 34.2174 130.91 34.8509 132.316 34.8509C133.731 34.8509 134.709 34.1663 135.428 33.1328L137.582 34.5441C136.893 35.5573 135.218 37.2972 132.316 37.2972C128.726 37.2972 126.048 34.566 126.048 31.0863C126.048 27.3912 128.754 24.8736 132.004 24.8736ZM132.099 27.2707C130.691 27.2707 128.726 28.4975 128.799 30.8927L134.45 28.5889C134.138 27.8129 133.202 27.2707 132.099 27.2707Z" fill="white"/>
<path d="M124.708 36.9192H121.93V18.6626H124.708V36.9192Z" fill="white"/>
<path fill-rule="evenodd" clip-rule="evenodd" d="M117.287 26.2575H117.38V25.2516H120.013V36.4063C120.013 40.9905 117.265 42.8746 114.008 42.8746C110.947 42.8746 109.103 40.8481 108.407 39.2013L110.823 38.21C111.258 39.2233 112.31 40.4283 114.008 40.4283C116.089 40.4283 117.38 39.1521 117.38 36.777V35.8859H117.287C116.663 36.6345 115.473 37.2972 113.965 37.2972C110.801 37.2972 107.908 34.588 107.908 31.1063C107.908 27.6047 110.801 24.8736 113.965 24.8736C115.473 24.8736 116.663 25.5308 117.287 26.2575ZM110.686 31.1063C110.686 33.2752 112.288 34.8509 114.203 34.8509C116.089 34.8509 117.577 33.2752 117.577 31.1063C117.577 28.9175 116.089 27.3201 114.203 27.3201C112.288 27.3201 110.686 28.9175 110.686 31.1063Z" fill="white"/>
<path fill-rule="evenodd" clip-rule="evenodd" d="M143.777 18.6626H150.421C153.491 18.6626 156.516 20.8516 156.516 24.3314C156.516 27.8129 153.498 30.0019 150.421 30.0019H146.548V36.9192H143.777V18.6626ZM146.548 27.4623H150.494C152.563 27.4623 153.744 25.7444 153.744 24.3314C153.744 22.8908 152.563 21.2022 150.494 21.2022H146.548V27.4623Z" fill="white"/>
<path fill-rule="evenodd" clip-rule="evenodd" d="M162.681 27.634C163.537 25.708 165.619 24.8389 167.621 24.8389C170.806 24.8389 173.264 26.6499 173.264 29.8868V36.8901H170.588V35.4789H170.494C169.847 36.441 168.819 37.2679 166.954 37.2679C164.516 37.2679 162.347 35.6924 162.347 33.2461C162.347 30.5714 165.045 29.1384 167.693 29.1384C169.014 29.1384 170.087 29.5601 170.588 29.8448V29.6532C170.566 28.1543 169.108 27.3054 167.671 27.3054C166.642 27.3054 165.669 27.634 165.14 28.6473L162.681 27.634ZM165.118 33.2972C165.118 34.4016 166.38 34.8436 167.287 34.8436C168.891 34.8436 170.371 33.6459 170.588 31.9553C169.847 31.6067 169.275 31.3418 168.055 31.3418C166.692 31.3418 165.118 31.8842 165.118 33.2972Z" fill="white"/>
<path d="M179.829 33.153L183.013 25.2386H186.096L178.473 42.4529H175.578L178.401 36.2986L173.454 25.2386H176.442L179.734 33.153H179.829Z" fill="white"/>
<path d="M160.817 36.9192H158.039V18.6626H160.817V36.9192Z" fill="white"/>
</g>
<defs>
<linearGradient id="paint0_linear" x1="31.563" y1="47.1193" x2="1.22062" y2="15.893" gradientUnits="userSpaceOnUse">
<stop stop-color="#00A0FF"/>
<stop offset="0.0066" stop-color="#00A1FF"/>
<stop offset="0.2601" stop-color="#00BEFF"/>
<stop offset="0.5122" stop-color="#00D2FF"/>
<stop offset="0.7604" stop-color="#00DFFF"/>
<stop offset="1" stop-color="#00E3FF"/>
</linearGradient>
<linearGradient id="paint1_linear" x1="49.4433" y1="30.6281" x2="4.40243" y2="30.6281" gradientUnits="userSpaceOnUse">
<stop stop-color="#FFE000"/>
<stop offset="0.4087" stop-color="#FFBD00"/>
<stop offset="0.7754" stop-color="#FFA500"/>
<stop offset="1" stop-color="#FF9C00"/>
</linearGradient>
<linearGradient id="paint2_linear" x1="23.6652" y1="39.4618" x2="-17.4815" y2="-2.88374" gradientUnits="userSpaceOnUse">
<stop stop-color="#FF3A44"/>
<stop offset="1" stop-color="#C31162"/>
</linearGradient>
<linearGradient id="paint3_linear" x1="-2.37343" y1="47.3968" x2="16.0004" y2="28.4878" gradientUnits="userSpaceOnUse">
<stop stop-color="#32A071"/>
<stop offset="0.0685" stop-color="#2DA771"/>
<stop offset="0.4762" stop-color="#15CF74"/>
<stop offset="0.8009" stop-color="#06E775"/>
<stop offset="1" stop-color="#00F076"/>
</linearGradient>
<clipPath id="clip0">
<rect width="199" height="60" fill="white"/>
</clipPath>
</defs>
</svg>
