<svg width="60" height="60" viewBox="0 0 60 60" fill="none" xmlns="http://www.w3.org/2000/svg">
<circle cx="42" cy="18" r="18" fill="#FFE294"/>
<path d="M9.998 44.7537C9.63539 44.7537 9.34229 44.4606 9.34229 44.098C9.34229 40.8437 11.9894 38.1965 15.2437 38.1965C15.6063 38.1965 15.8994 38.4896 15.8994 38.8522C15.8994 39.2149 15.6063 39.508 15.2437 39.508C12.7133 39.508 10.6537 41.5676 10.6537 44.098C10.6537 44.4606 10.3606 44.7537 9.998 44.7537Z" fill="black"/>
<path d="M37.5379 44.7542C37.1753 44.7542 36.8822 44.4611 36.8822 44.0985C36.8822 41.5681 34.8226 39.5085 32.2922 39.5085C31.9296 39.5085 31.6365 39.2153 31.6365 38.8527C31.6365 38.4901 31.9296 38.197 32.2922 38.197C35.5465 38.197 38.1936 40.8441 38.1936 44.0985C38.1936 44.4611 37.9005 44.7542 37.5379 44.7542Z" fill="black"/>
<path d="M19.1779 39.5086L15.2436 39.508C14.881 39.508 14.5879 39.2142 14.5879 38.8522C14.5879 38.4896 14.8817 38.1965 15.2436 38.1965L19.1779 38.1972C19.5405 38.1972 19.8336 38.4909 19.8336 38.8529C19.8336 39.2155 19.5399 39.5086 19.1779 39.5086Z" fill="black"/>
<path d="M32.2924 39.5085L28.3581 39.5072C27.9955 39.5072 27.7024 39.2135 27.7024 38.8515C27.7024 38.4889 27.9962 38.1958 28.3581 38.1958L32.2924 38.1971C32.655 38.1971 32.9481 38.4909 32.9481 38.8528C32.9481 39.2154 32.6544 39.5085 32.2924 39.5085Z" fill="black"/>
<path d="M9.99866 49.9993C9.6367 49.9993 9.34294 49.7062 9.34294 49.3436L9.34229 44.0979C9.34229 43.7359 9.63539 43.4421 9.998 43.4421C10.36 43.4421 10.6537 43.7352 10.6537 44.0979L10.6544 49.3436C10.6544 49.7055 10.3613 49.9993 9.99866 49.9993Z" fill="black"/>
<path d="M37.538 49.9994C37.1754 49.9994 36.8823 49.7063 36.8823 49.3437V44.0986C36.8823 43.736 37.1754 43.4429 37.538 43.4429C37.9007 43.4429 38.1938 43.736 38.1938 44.0986V49.3437C38.1938 49.7063 37.9007 49.9994 37.538 49.9994Z" fill="black"/>
<path d="M19.1782 39.5086C18.8156 39.5086 18.5225 39.2154 18.5225 38.8528V35.0949C18.5225 34.7323 18.8156 34.4392 19.1782 34.4392C19.5408 34.4392 19.8339 34.7323 19.8339 35.0949V38.8528C19.8339 39.2154 19.5408 39.5086 19.1782 39.5086Z" fill="black"/>
<path d="M28.3581 39.5072C27.9955 39.5072 27.7024 39.2141 27.7024 38.8515V35.0949C27.7024 34.7323 27.9955 34.4392 28.3581 34.4392C28.7207 34.4392 29.0138 34.7323 29.0138 35.0949V38.8515C29.0138 39.2141 28.7207 39.5072 28.3581 39.5072Z" fill="black"/>
<path d="M23.7681 36.885C17.9833 36.885 13.2766 32.1782 13.2766 26.3935C13.2766 26.0309 13.5697 25.7378 13.9323 25.7378C14.2949 25.7378 14.588 26.0309 14.588 26.3935C14.588 31.4556 18.7059 35.5735 23.7681 35.5735C28.8302 35.5735 32.9481 31.4556 32.9481 26.3935C32.9481 26.0309 33.2412 25.7378 33.6038 25.7378C33.9664 25.7378 34.2595 26.0309 34.2595 26.3935C34.2595 32.1782 29.5528 36.885 23.7681 36.885Z" fill="black"/>
<path d="M13.9323 27.0494C13.5697 27.0494 13.2766 26.7563 13.2766 26.3937V19.1801C13.2766 18.8175 13.5697 18.5244 13.9323 18.5244C14.2949 18.5244 14.588 18.8175 14.588 19.1801V26.3937C14.588 26.7563 14.2949 27.0494 13.9323 27.0494Z" fill="black"/>
<path d="M33.604 27.0492C33.2413 27.0492 32.9482 26.7561 32.9482 26.3935V18.5256C32.9482 18.163 33.2413 17.8699 33.604 17.8699C33.9666 17.8699 34.2597 18.163 34.2597 18.5256V26.3935C34.2597 26.7561 33.9666 27.0492 33.604 27.0492Z" fill="black"/>
<path d="M33.6039 19.1812C33.2413 19.1812 32.9482 18.8881 32.9482 18.5255C32.9482 16.3557 31.1836 14.5912 29.0139 14.5912C28.6513 14.5912 28.3582 14.2981 28.3582 13.9355C28.3582 13.5729 28.6513 13.2798 29.0139 13.2798C31.9062 13.2798 34.2596 15.6332 34.2596 18.5255C34.2596 18.8881 33.9665 19.1812 33.6039 19.1812Z" fill="black"/>
<path d="M29.0139 14.5913C28.6513 14.5913 28.3582 14.2982 28.3582 13.9356V10.6557C28.3582 10.2931 28.6513 10 29.0139 10C29.3765 10 29.6696 10.2931 29.6696 10.6557V13.9356C29.6696 14.2982 29.3765 14.5913 29.0139 14.5913Z" fill="black"/>
<path d="M29.0137 11.3114H22.4565C22.0939 11.3114 21.8008 11.0183 21.8008 10.6557C21.8008 10.2931 22.0939 10 22.4565 10H29.0137C29.3763 10 29.6694 10.2931 29.6694 10.6557C29.6694 11.0183 29.3763 11.3114 29.0137 11.3114Z" fill="black"/>
<path d="M13.9323 19.8357C13.5697 19.8357 13.2766 19.5426 13.2766 19.18C13.2766 14.1179 17.3945 10 22.4566 10C22.8192 10 23.1124 10.2931 23.1124 10.6557C23.1124 11.0183 22.8192 11.3114 22.4566 11.3114C18.1178 11.3114 14.588 14.8412 14.588 19.18C14.588 19.5426 14.2949 19.8357 13.9323 19.8357Z" fill="black"/>
<path d="M33.6037 23.1144C33.4358 23.1144 33.268 23.0501 33.1401 22.9223L30.5172 20.2994C30.2609 20.043 30.2609 19.6286 30.5172 19.3722C30.7736 19.1158 31.188 19.1158 31.4444 19.3722L34.0673 21.9951C34.3237 22.2515 34.3237 22.6659 34.0673 22.9223C33.9394 23.0501 33.7716 23.1144 33.6037 23.1144Z" fill="black"/>
<path d="M23.768 22.4587C19.6986 22.4587 16.3578 20.4817 16.2174 20.3978C15.9073 20.2115 15.807 19.8096 15.9925 19.4988C16.1781 19.1893 16.5787 19.087 16.8915 19.2726C16.923 19.2916 20.0724 21.1466 23.7674 21.1466C27.4623 21.1466 30.6117 19.2916 30.6432 19.2726C30.9566 19.087 31.3566 19.1893 31.5422 19.4988C31.7278 19.8096 31.6274 20.2115 31.3173 20.3978C31.1783 20.4817 27.8374 22.4587 23.768 22.4587Z" fill="black"/>
<path d="M13.9322 23.1144C13.7644 23.1144 13.5965 23.0501 13.4687 22.9223C13.2123 22.6659 13.2123 22.2515 13.4687 21.9951L16.0915 19.3722C16.3479 19.1158 16.7623 19.1158 17.0187 19.3722C17.2751 19.6286 17.2751 20.043 17.0187 20.2994L14.3958 22.9223C14.268 23.0501 14.1001 23.1144 13.9322 23.1144Z" fill="black"/>
<path d="M19.8377 50C19.6449 50 19.4547 49.9161 19.3249 49.7541C19.0987 49.4708 19.1452 49.0584 19.4272 48.8322L32.4949 38.3755C32.7782 38.1486 33.19 38.1958 33.4169 38.4778C33.6431 38.761 33.5965 39.1735 33.3146 39.3997L20.2468 49.8564C20.1255 49.9534 19.9813 50 19.8377 50Z" fill="black"/>
<path d="M15.2449 50.0001C15.0521 50.0001 14.8619 49.9161 14.7321 49.7542C14.5059 49.4709 14.5525 49.0585 14.8344 48.8323L27.9461 38.3408C28.23 38.1139 28.6418 38.1611 28.868 38.4431C29.0943 38.7264 29.0477 39.1388 28.7658 39.365L15.6541 49.8565C15.5334 49.9535 15.3885 50.0001 15.2449 50.0001Z" fill="black"/>
<path d="M23.774 42.787C20.8817 42.787 18.5283 41.0225 18.5283 38.8527C18.5283 38.4901 18.8214 38.197 19.184 38.197C19.5466 38.197 19.8398 38.4901 19.8398 38.8527C19.8398 40.2743 21.6417 41.4756 23.774 41.4756C23.9281 41.4756 24.0816 41.469 24.2317 41.4572C24.6029 41.429 24.9091 41.6979 24.9379 42.0585C24.9668 42.4198 24.698 42.7359 24.3367 42.7647C24.1517 42.7792 23.9642 42.787 23.774 42.787Z" fill="black"/>
<path d="M48.6905 50H41.4769C40.3924 50 39.5098 49.1175 39.5098 48.0329V34.9186C39.5098 33.834 40.3924 32.9514 41.4769 32.9514H48.6905C49.775 32.9514 50.6576 33.834 50.6576 34.9186V48.0329C50.6576 49.1175 49.775 50 48.6905 50ZM41.4769 34.2628C41.115 34.2628 40.8212 34.5566 40.8212 34.9186V48.0329C40.8212 48.3949 41.115 48.6886 41.4769 48.6886H48.6905C49.0524 48.6886 49.3462 48.3949 49.3462 48.0329V34.9186C49.3462 34.5566 49.0524 34.2628 48.6905 34.2628H41.4769Z" fill="black"/>
<path d="M44.0999 42.7879H42.1328C41.7702 42.7879 41.4771 42.4948 41.4771 42.1321V40.165C41.4771 39.8024 41.7702 39.5093 42.1328 39.5093H44.0999C44.4625 39.5093 44.7556 39.8024 44.7556 40.165V42.1321C44.7556 42.4948 44.4625 42.7879 44.0999 42.7879ZM42.7885 41.4764H43.4442V40.8207H42.7885V41.4764Z" fill="black"/>
<path d="M46.0669 40.8189H44.0998C43.7372 40.8189 43.4441 40.5258 43.4441 40.1631V38.196C43.4441 37.8334 43.7372 37.5403 44.0998 37.5403H46.0669C46.4296 37.5403 46.7227 37.8334 46.7227 38.196V40.1631C46.7227 40.5258 46.4296 40.8189 46.0669 40.8189ZM44.7555 39.5074H45.4112V38.8517H44.7555V39.5074Z" fill="black"/>
<path d="M48.034 42.7879H46.0668C45.7042 42.7879 45.4111 42.4948 45.4111 42.1321V40.165C45.4111 39.8024 45.7042 39.5093 46.0668 39.5093H48.034C48.3966 39.5093 48.6897 39.8024 48.6897 40.165V42.1321C48.6897 42.4948 48.3966 42.7879 48.034 42.7879ZM46.7226 41.4764H47.3783V40.8207H46.7226V41.4764Z" fill="black"/>
<path d="M50.0019 47.3791H40.1655C39.8029 47.3791 39.5098 47.086 39.5098 46.7233C39.5098 46.3607 39.8029 46.0676 40.1655 46.0676H50.0019C50.3645 46.0676 50.6576 46.3607 50.6576 46.7233C50.6576 47.086 50.3645 47.3791 50.0019 47.3791Z" fill="black"/>
<path d="M45.1031 48.6891C44.7405 48.6891 44.4441 48.396 44.4441 48.0334C44.4441 47.6708 44.7339 47.3777 45.0959 47.3777H45.1031C45.465 47.3777 45.7588 47.6708 45.7588 48.0334C45.7588 48.396 45.465 48.6891 45.1031 48.6891Z" fill="black"/>
</svg>
