<svg width="60" height="60" viewBox="0 0 60 60" fill="none" xmlns="http://www.w3.org/2000/svg">
<circle cx="42" cy="18" r="18" fill="#FFE294"/>
<path d="M26.8069 17.3263L26.2524 20.5114C26.234 20.6168 26.2456 20.7253 26.2857 20.8246C26.3258 20.9238 26.3928 21.0098 26.4793 21.0729C26.5657 21.1361 26.6681 21.1737 26.7748 21.1817C26.8816 21.1897 26.9884 21.1676 27.0833 21.1181L29.9485 19.6206L32.8064 21.1319C32.901 21.182 33.0077 21.2045 33.1144 21.1971C33.2212 21.1896 33.3237 21.1525 33.4105 21.0898C33.4972 21.0271 33.5647 20.9415 33.6053 20.8425C33.6459 20.7435 33.658 20.6351 33.6403 20.5296L33.1014 17.3419L35.4219 15.0908C35.4987 15.0163 35.5532 14.9218 35.5791 14.8179C35.605 14.714 35.6013 14.605 35.5685 14.5031C35.5357 14.4012 35.475 14.3106 35.3933 14.2414C35.3117 14.1721 35.2122 14.1272 35.1064 14.1115L31.9085 13.6386L30.4848 10.736C30.4376 10.6399 30.3645 10.5589 30.2738 10.5022C30.183 10.4455 30.0782 10.4153 29.9711 10.415H29.9697C29.8629 10.415 29.7582 10.4449 29.6674 10.5012C29.5766 10.5574 29.5033 10.638 29.4558 10.7336L28.0181 13.6291L24.8175 14.0863C24.7116 14.1014 24.6119 14.1459 24.5299 14.2147C24.4479 14.2835 24.3868 14.3739 24.3535 14.4756C24.3201 14.5773 24.3159 14.6864 24.3413 14.7904C24.3667 14.8943 24.4207 14.9892 24.4972 15.0641L26.8069 17.3263ZM28.4789 14.7224C28.571 14.7093 28.6585 14.6739 28.7339 14.6194C28.8093 14.5649 28.8703 14.4929 28.9117 14.4096L29.9666 12.285L31.0112 14.4143C31.0522 14.4978 31.1129 14.5701 31.188 14.625C31.2631 14.6798 31.3504 14.7156 31.4424 14.7292L33.789 15.0759L32.0864 16.7283C32.0196 16.7931 31.9696 16.8731 31.9406 16.9615C31.9117 17.0499 31.9047 17.144 31.9202 17.2357L32.3156 19.5746L30.2186 18.4655C30.1364 18.422 30.0448 18.3992 29.9518 18.3989C29.8588 18.3987 29.7671 18.4211 29.6846 18.4642L27.5824 19.5629L27.9891 17.2259C28.005 17.1342 27.9984 17.0401 27.9699 16.9516C27.9413 16.8631 27.8917 16.7828 27.8253 16.7178L26.1307 15.0578L28.4789 14.7224Z" fill="black"/>
<path d="M41.7124 19.4293L41.2254 22.2275C41.2071 22.333 41.2186 22.4415 41.2587 22.5407C41.2988 22.64 41.3658 22.726 41.4523 22.7892C41.5387 22.8523 41.6411 22.89 41.7479 22.898C41.8546 22.9059 41.9615 22.8839 42.0563 22.8343L44.5736 21.5187L47.0843 22.8465C47.1789 22.8965 47.2856 22.919 47.3923 22.9116C47.4991 22.9041 47.6016 22.867 47.6884 22.8043C47.7751 22.7417 47.8426 22.656 47.8832 22.557C47.9238 22.458 47.9359 22.3496 47.9182 22.2441L47.4449 19.4436L49.4834 17.466C49.5603 17.3914 49.6147 17.2969 49.6406 17.193C49.6665 17.0892 49.6628 16.9801 49.63 16.8783C49.5972 16.7764 49.5365 16.6857 49.4548 16.6165C49.3732 16.5473 49.2738 16.5023 49.1679 16.4867L46.3583 16.0715L45.1075 13.5212C45.0603 13.4251 44.9872 13.3441 44.8964 13.2874C44.8056 13.2306 44.7008 13.2004 44.5937 13.2002H44.5924C44.4856 13.2002 44.3809 13.23 44.2901 13.2863C44.1993 13.3426 44.126 13.4231 44.0785 13.5188L42.8154 16.0622L40.0038 16.4638C39.8978 16.4789 39.7982 16.5234 39.7162 16.5922C39.6342 16.661 39.5731 16.7514 39.5398 16.8531C39.5064 16.9548 39.5022 17.0638 39.5276 17.1678C39.553 17.2718 39.6069 17.3666 39.6834 17.4415L41.7124 19.4293ZM43.2761 17.1558C43.3682 17.1426 43.4557 17.1073 43.5311 17.0528C43.6065 16.9983 43.6675 16.9263 43.7089 16.8429L44.5891 15.0702L45.4609 16.8472C45.5018 16.9307 45.5625 17.003 45.6376 17.0579C45.7127 17.1127 45.8 17.1485 45.892 17.1621L47.8501 17.4514L46.4294 18.8297C46.3627 18.8944 46.3126 18.9745 46.2837 19.0628C46.2547 19.1512 46.2477 19.2453 46.2632 19.337L46.5931 21.2888L44.8433 20.3635C44.7611 20.3199 44.6695 20.2971 44.5765 20.2968C44.4835 20.2966 44.3918 20.319 44.3094 20.3621L42.5552 21.2789L42.8945 19.3283C42.9104 19.2367 42.9039 19.1426 42.8753 19.0541C42.8468 18.9655 42.7972 18.8853 42.7307 18.8202L41.3167 17.4359L43.2761 17.1558Z" fill="black"/>
<path d="M12.4653 19.4293L11.9784 22.2275C11.9601 22.333 11.9716 22.4415 12.0117 22.5408C12.0518 22.64 12.1189 22.7261 12.2053 22.7892C12.2918 22.8524 12.3942 22.8901 12.501 22.898C12.6077 22.906 12.7146 22.8839 12.8095 22.8343L15.3266 21.5187L17.8376 22.8465C17.9322 22.8965 18.0389 22.9191 18.1457 22.9117C18.2524 22.9042 18.355 22.8671 18.4418 22.8044C18.5285 22.7417 18.596 22.6561 18.6366 22.557C18.6772 22.458 18.6893 22.3496 18.6716 22.2441L18.1982 19.4436L20.2367 17.466C20.3136 17.3914 20.368 17.2969 20.3939 17.193C20.4198 17.0892 20.4162 16.9801 20.3833 16.8783C20.3505 16.7764 20.2898 16.6857 20.2082 16.6165C20.1265 16.5473 20.0271 16.5023 19.9212 16.4867L17.1109 16.0711L15.8603 13.5212C15.8132 13.4251 15.7401 13.3441 15.6493 13.2874C15.5585 13.2307 15.4537 13.2005 15.3467 13.2002H15.3452C15.2384 13.2002 15.1337 13.23 15.0429 13.2863C14.9521 13.3426 14.8789 13.4231 14.8314 13.5188L13.5683 16.0622L10.7566 16.4638C10.6507 16.479 10.5511 16.5235 10.4691 16.5923C10.3871 16.661 10.326 16.7514 10.2927 16.8531C10.2594 16.9548 10.2551 17.0638 10.2805 17.1678C10.3059 17.2718 10.3599 17.3666 10.4363 17.4415L12.4653 19.4293ZM14.0292 17.1558C14.1213 17.1427 14.2089 17.1074 14.2844 17.0529C14.3598 16.9984 14.4209 16.9264 14.4623 16.843L15.3427 15.0703L16.2143 16.8473C16.2553 16.9308 16.3159 17.0031 16.3911 17.058C16.4662 17.1128 16.5535 17.1486 16.6455 17.1622L18.6036 17.4515L17.1829 18.8298C17.1161 18.8945 17.0661 18.9745 17.0372 19.0629C17.0082 19.1513 17.0011 19.2454 17.0166 19.3371L17.3465 21.2889L15.5967 20.3636C15.5145 20.32 15.4229 20.2972 15.3299 20.2969C15.2369 20.2967 15.1452 20.3191 15.0628 20.3622L13.3082 21.2789L13.6474 19.3283C13.6634 19.2367 13.6568 19.1426 13.6283 19.0541C13.5998 18.9656 13.5502 18.8853 13.4838 18.8202L12.0698 17.4359L14.0292 17.1558Z" fill="black"/>
<path d="M30 23.4163C28.7804 23.4177 27.6111 23.9028 26.7487 24.7652C25.8864 25.6276 25.4013 26.7968 25.3999 28.0164V30.7007C25.3999 31.9207 25.8845 33.0908 26.7472 33.9534C27.6099 34.8161 28.78 35.3008 30 35.3008C31.22 35.3008 32.39 34.8161 33.2527 33.9534C34.1154 33.0908 34.6 31.9207 34.6 30.7007V28.0164C34.5987 26.7968 34.1136 25.6276 33.2512 24.7652C32.3888 23.9028 31.2196 23.4177 30 23.4163ZM33.4526 30.7007C33.4526 31.6164 33.0889 32.4946 32.4414 33.1421C31.7939 33.7896 30.9157 34.1533 30 34.1533C29.0843 34.1533 28.2061 33.7896 27.5586 33.1421C26.9111 32.4946 26.5473 31.6164 26.5473 30.7007V28.0164C26.5473 27.1007 26.9111 26.2225 27.5586 25.575C28.2061 24.9275 29.0843 24.5638 30 24.5638C30.9157 24.5638 31.7939 24.9275 32.4414 25.575C33.0889 26.2225 33.4526 27.1007 33.4526 28.0164V30.7007Z" fill="black"/>
<path d="M44.2755 25.6912C43.153 25.6924 42.0768 26.1389 41.283 26.9327C40.4893 27.7264 40.0428 28.8027 40.0415 29.9252V32.3654C40.0415 33.4883 40.4876 34.5652 41.2816 35.3593C42.0757 36.1533 43.1526 36.5994 44.2755 36.5994C45.3985 36.5994 46.4754 36.1533 47.2695 35.3593C48.0635 34.5652 48.5096 33.4883 48.5096 32.3654V29.9252C48.5083 28.8027 48.0618 27.7264 47.2681 26.9327C46.4743 26.1389 45.3981 25.6924 44.2755 25.6912ZM47.3622 32.3653C47.3622 33.1839 47.037 33.969 46.4581 34.5478C45.8793 35.1267 45.0942 35.4519 44.2755 35.4519C43.4569 35.4519 42.6718 35.1267 42.093 34.5478C41.5141 33.969 41.1889 33.1839 41.1889 32.3653V29.9251C41.1889 29.1065 41.5141 28.3214 42.093 27.7425C42.6718 27.1637 43.4569 26.8385 44.2755 26.8385C45.0942 26.8385 45.8793 27.1637 46.4581 27.7425C47.037 28.3214 47.3622 29.1065 47.3622 29.9251V32.3653Z" fill="black"/>
<path d="M49.1559 37.4564H47.6133C47.4751 37.4562 47.3426 37.4013 47.2449 37.3036C47.1472 37.2058 47.0922 37.0734 47.092 36.9352C47.092 36.8001 47.0443 36.6694 46.9573 36.566C46.8704 36.4626 46.7497 36.3933 46.6166 36.3701C46.4836 36.347 46.3466 36.3715 46.2298 36.4394C46.1131 36.5074 46.024 36.6143 45.9784 36.7414L45.3649 38.4507C45.2845 38.6746 45.1366 38.8681 44.9416 39.0043C44.7466 39.1406 44.5141 39.2129 44.2763 39.2114C44.0384 39.2099 43.8068 39.1345 43.6136 38.9958C43.4204 38.857 43.275 38.6617 43.1975 38.4367L42.6109 36.7348C42.5792 36.6428 42.5246 36.5604 42.4523 36.4953C42.38 36.4302 42.2923 36.3846 42.1975 36.3627C42.1027 36.3409 42.0039 36.3435 41.9103 36.3703C41.8168 36.3971 41.7317 36.4473 41.6629 36.5161L41.649 36.5298C41.5414 36.6374 41.481 36.7833 41.481 36.9355C41.4808 37.0737 41.4258 37.2061 41.3281 37.3038C41.2304 37.4016 41.0979 37.4565 40.9597 37.4567H39.3949C39.1472 37.4567 38.8999 37.4756 38.6551 37.5131C37.7231 36.765 36.5636 36.3577 35.3685 36.3585H33.6717C33.5043 36.3585 33.3438 36.292 33.2255 36.1737C33.1071 36.0553 33.0406 35.8948 33.0406 35.7274C33.0406 35.5923 32.9929 35.4616 32.9059 35.3582C32.819 35.2549 32.6983 35.1855 32.5653 35.1624C32.4322 35.1392 32.2952 35.1638 32.1784 35.2317C32.0617 35.2996 31.9726 35.4066 31.927 35.5337L31.2526 37.414C31.1602 37.6715 30.9901 37.8939 30.7659 38.0506C30.5416 38.2073 30.2743 38.2905 30.0008 38.2887C29.7272 38.287 29.461 38.2004 29.2387 38.0408C29.0165 37.8813 28.8493 37.6567 28.7602 37.3981L28.1149 35.5254C28.0832 35.4333 28.0285 35.3509 27.9562 35.2858C27.8838 35.2207 27.796 35.1751 27.7011 35.1533C27.6063 35.1315 27.5074 35.1341 27.4138 35.1611C27.3203 35.188 27.2351 35.2383 27.1664 35.3072L27.1512 35.3224C27.0439 35.4299 26.9837 35.5756 26.9837 35.7275C26.9837 35.8949 26.9172 36.0554 26.7988 36.1738C26.6805 36.2921 26.5199 36.3586 26.3526 36.3586H24.6315C23.4361 36.3577 22.2764 36.7652 21.3443 37.5136C21.0997 37.4759 20.8526 37.4569 20.6051 37.4567H19.0625C18.9243 37.4565 18.7918 37.4016 18.6941 37.3038C18.5964 37.2061 18.5414 37.0737 18.5412 36.9355C18.5412 36.8004 18.4935 36.6696 18.4065 36.5663C18.3195 36.4629 18.1989 36.3935 18.0658 36.3704C17.9327 36.3472 17.7957 36.3718 17.679 36.4397C17.5622 36.5077 17.4732 36.6146 17.4275 36.7417L16.8143 38.4507C16.734 38.6746 16.5861 38.868 16.3911 39.0043C16.196 39.1405 15.9636 39.2129 15.7257 39.2113C15.4878 39.2098 15.2562 39.1345 15.063 38.9957C14.8698 38.857 14.7244 38.6617 14.6469 38.4367L14.0603 36.7348C14.0286 36.6427 13.974 36.5603 13.9016 36.4952C13.8293 36.4301 13.7416 36.3845 13.6467 36.3626C13.5519 36.3408 13.4531 36.3434 13.3595 36.3703C13.266 36.3971 13.1808 36.4473 13.112 36.5162L13.0983 36.5299C12.9908 36.6375 12.9304 36.7834 12.9304 36.9355C12.9302 37.0736 12.8752 37.2061 12.7775 37.3038C12.6798 37.4016 12.5473 37.4565 12.4091 37.4567H10.8442C9.55992 37.4581 8.32868 37.9689 7.42055 38.877C6.51242 39.7851 6.00154 41.0163 6 42.3006V49.0112C6 49.1633 6.06044 49.3093 6.16803 49.4168C6.27562 49.5244 6.42155 49.5849 6.57371 49.5849H53.4263C53.5785 49.5849 53.7244 49.5244 53.832 49.4168C53.9396 49.3093 54 49.1633 54 49.0112V42.3006C53.9986 41.0163 53.4877 39.785 52.5796 38.8768C51.6715 37.9687 50.4402 37.4578 49.1559 37.4564ZM19.3604 41.6295V48.4375H7.14741V42.3006C7.14852 41.3205 7.53836 40.3808 8.2314 39.6878C8.92443 38.9947 9.86407 38.6049 10.8442 38.6038H12.409C12.7584 38.6043 13.0991 38.4945 13.3824 38.29L13.5619 38.811C13.7168 39.2605 14.0075 39.6508 14.3937 39.9281C14.78 40.2054 15.2428 40.3559 15.7182 40.3589C16.1937 40.3619 16.6583 40.2173 17.0481 39.945C17.4378 39.6726 17.7334 39.286 17.8941 38.8385L18.0906 38.2911C18.3586 38.4842 18.6783 38.5929 19.0085 38.6033C19.0189 38.6033 19.0295 38.6041 19.0401 38.6041H20.3189C19.6944 39.4892 19.3595 40.5462 19.3604 41.6295ZM39.4922 48.4375H20.5078V41.6295C20.509 40.5362 20.9439 39.4881 21.717 38.715C22.49 37.942 23.5382 37.5071 24.6315 37.5059H26.3526C26.7516 37.5064 27.1391 37.3719 27.4522 37.1245L27.6753 37.7721C27.8418 38.2554 28.1542 38.675 28.5694 38.9731C28.9847 39.2712 29.4822 39.4331 29.9933 39.4363C30.5045 39.4396 31.004 39.2841 31.423 38.9913C31.842 38.6985 32.1597 38.2829 32.3324 37.8017L32.5748 37.1263C32.8721 37.3605 33.2366 37.4933 33.6149 37.505C33.6256 37.5056 33.6364 37.5059 33.6472 37.5059H35.3684C36.4617 37.5071 37.5098 37.942 38.2829 38.7151C39.056 39.4882 39.4908 40.5364 39.4921 41.6297L39.4922 48.4375ZM52.8526 48.4375H40.6397V41.6295C40.6405 40.5461 40.3056 39.489 39.6809 38.6038H40.9597C41.3091 38.6043 41.6497 38.4944 41.9331 38.29L42.1125 38.811C42.2675 39.2605 42.5581 39.6508 42.9444 39.9281C43.3306 40.2054 43.7934 40.3559 44.2689 40.3589C44.7443 40.3619 45.209 40.2173 45.5987 39.945C45.9885 39.6726 46.284 39.286 46.4447 38.8385L46.6412 38.2911C46.9093 38.4842 47.2289 38.5929 47.5591 38.6033C47.5695 38.6033 47.5801 38.6041 47.5907 38.6041H49.1555C50.1356 38.6051 51.0753 38.9949 51.7684 39.6879C52.4615 40.3808 52.8514 41.3205 52.8526 42.3006V48.4375Z" fill="black"/>
<path d="M11.4905 29.9252V32.3654C11.4905 32.9214 11.6 33.472 11.8128 33.9857C12.0256 34.4994 12.3374 34.9661 12.7306 35.3593C13.1238 35.7524 13.5905 36.0643 14.1042 36.2771C14.6179 36.4899 15.1685 36.5994 15.7245 36.5994C16.2805 36.5994 16.8311 36.4899 17.3448 36.2771C17.8585 36.0643 18.3253 35.7524 18.7184 35.3593C19.1116 34.9661 19.4235 34.4994 19.6363 33.9857C19.849 33.472 19.9586 32.9214 19.9586 32.3654V29.9252C19.9586 28.8023 19.5125 27.7253 18.7184 26.9313C17.9244 26.1372 16.8475 25.6912 15.7245 25.6912C14.6016 25.6912 13.5246 26.1372 12.7306 26.9313C11.9366 27.7253 11.4905 28.8023 11.4905 29.9252ZM18.8112 29.9252V32.3654C18.8112 33.184 18.486 33.9691 17.9071 34.5479C17.3282 35.1268 16.5431 35.452 15.7245 35.452C14.9059 35.452 14.1208 35.1268 13.5419 34.5479C12.9631 33.9691 12.6379 33.184 12.6379 32.3654V29.9252C12.6379 29.1066 12.9631 28.3215 13.5419 27.7426C14.1208 27.1638 14.9059 26.8386 15.7245 26.8386C16.5431 26.8386 17.3282 27.1638 17.9071 27.7426C18.486 28.3215 18.8112 29.1066 18.8112 29.9252Z" fill="black"/>
</svg>
