<svg width="60" height="60" viewBox="0 0 60 60" fill="none" xmlns="http://www.w3.org/2000/svg">
<circle cx="42" cy="18" r="18" fill="#FFE294"/>
<path d="M48.7016 32.693L45.6218 21.2774C45.2194 19.7892 43.8624 18.75 42.3218 18.75H18.0782C16.5368 18.75 15.1802 19.7894 14.7786 21.2778L11.6994 32.6926C10.1152 33.359 9 34.9266 9 36.75C9 39.1762 10.9738 41.15 13.4 41.15H47C49.4258 41.15 51.4 39.1762 51.4 36.75C51.4 34.927 50.285 33.3596 48.7016 32.693ZM16.323 21.6946C16.5366 20.9028 17.2586 20.35 18.078 20.35H42.3218C43.1414 20.35 43.8632 20.9028 44.0764 21.6942L46.9512 32.35H13.4486L16.323 21.6946ZM47 39.55H13.4C11.8562 39.55 10.6 38.2938 10.6 36.75C10.6 35.2062 11.8562 33.95 13.4 33.95H47C48.5438 33.95 49.8 35.2062 49.8 36.75C49.8 38.2938 48.5438 39.55 47 39.55Z" fill="black"/>
<path d="M21 25.15H21.8V29.95C21.8 30.3918 22.1582 30.75 22.6 30.75C23.0418 30.75 23.4 30.3918 23.4 29.95V25.15H24.2C24.6418 25.15 25 24.7918 25 24.35C25 23.9082 24.6418 23.55 24.2 23.55H21C20.5582 23.55 20.2 23.9082 20.2 24.35C20.2 24.7918 20.5582 25.15 21 25.15Z" fill="black"/>
<path d="M38.6 30.75C39.0423 30.75 39.4001 30.3918 39.4001 29.95V24.35C39.4001 23.9082 39.0423 23.55 38.6 23.55C38.1578 23.55 37.8 23.9082 37.8 24.35V29.95C37.8 30.3918 38.1578 30.75 38.6 30.75Z" fill="black"/>
<path d="M26.38 30.7193C26.8022 30.8401 27.2476 30.5951 27.3694 30.1701L28.2 27.2623L29.0304 30.1701C29.1312 30.5213 29.4514 30.7505 29.7992 30.7505C29.8726 30.7505 29.946 30.7403 30.0196 30.7193C30.4446 30.5979 30.6906 30.1553 30.5696 29.7303L28.9696 24.1303C28.8712 23.7869 28.5572 23.5503 28.2 23.5503C27.8428 23.5503 27.529 23.7871 27.4304 24.1303L25.8308 29.7303C25.7094 30.1551 25.9554 30.5977 26.38 30.7193Z" fill="black"/>
<path d="M32.0533 30.6687C32.1657 30.7241 32.2853 30.7499 32.4033 30.7499C32.6993 30.7499 32.9845 30.5851 33.1229 30.3007L33.8003 28.9131L34.4777 30.3007C34.6159 30.5851 34.9011 30.7499 35.1973 30.7499C35.3145 30.7499 35.4349 30.7241 35.5473 30.6687C35.9441 30.4749 36.1091 29.9961 35.9153 29.5991L34.6905 27.0899L35.8567 24.7008C36.0505 24.304 35.8857 23.825 35.4887 23.6312C35.0949 23.4374 34.6129 23.6016 34.4191 23.9992L33.8001 25.2668L33.1813 23.9992C32.9883 23.6028 32.5095 23.437 32.1117 23.6312C31.7149 23.825 31.5499 24.3038 31.7437 24.7008L32.9099 27.0899L31.6851 29.5991C31.4915 29.9959 31.6563 30.4749 32.0533 30.6687Z" fill="black"/>
<path d="M35.4001 35.55H37.8001V37.95H35.4001V35.55Z" fill="black"/>
<path d="M39.3999 35.55H41.7999V37.95H39.3999V35.55Z" fill="black"/>
<path d="M43.3999 35.55H45.7999V37.95H43.3999V35.55Z" fill="black"/>
</svg>
