<svg width="100" height="100" viewBox="0 0 100 100" fill="none" xmlns="http://www.w3.org/2000/svg">
<path d="M20.5165 63.6811C20.7498 60.8199 20.7498 60.8033 18.0327 60.1212C16.349 59.6887 14.6654 59.2895 12.9818 58.8736C12.6484 58.6573 12.315 58.4244 11.9816 58.2082C10.4813 55.7462 10.6647 54.4321 12.7817 52.5357C13.8986 51.5376 15.0821 50.5727 16.1657 49.5247C19.0995 46.73 22.0501 43.9853 26.4009 43.6858C27.7844 43.6193 29.118 43.3032 30.4349 42.9206C35.0524 42.1055 39.6533 41.1906 44.2208 40.0594C45.6044 40.0594 46.9046 39.6435 48.2215 39.3108C49.7218 38.8284 51.1887 39.1944 52.6723 39.4938C54.556 39.8764 56.473 40.2091 58.3567 40.5585C59.1902 40.8912 60.057 41.0742 60.9405 41.1241C63.941 41.8227 66.9416 42.5713 70.0255 42.9539C70.8256 43.3531 71.6924 43.4197 72.5593 43.4696C73.8262 43.769 75.0764 44.1849 76.3433 44.3512C77.7435 44.5509 78.9604 45.0499 80.0106 45.9815C80.8108 46.6801 81.5942 47.3788 82.3944 48.0775C84.1947 49.6578 85.9784 51.2381 87.7787 52.8185C88.1788 53.4173 88.5955 54.0162 88.9956 54.615C89.0623 57.5428 88.3955 58.4577 85.5783 59.2396C84.9949 59.4059 84.4281 59.5889 83.8446 59.7552C83.3279 59.8551 82.8111 59.9382 82.2944 60.0713C79.2938 60.8199 79.2938 60.8199 79.5605 64.0471C79.5605 67.7899 79.5439 71.5328 79.5439 75.2757C79.5272 76.3736 79.5105 77.4549 79.4939 78.5528C78.6604 80.1664 77.5602 81.4972 75.8432 82.2291C74.2429 82.5452 72.6426 82.9278 71.1257 83.5433C65.9747 84.7077 60.8905 86.1217 55.8396 87.6521C54.456 87.8185 53.1391 88.2343 51.8388 88.7168C50.2052 89.3822 48.6882 88.7168 47.1546 88.3342C45.571 87.9349 44.0041 87.5024 42.4371 87.0865C41.4869 86.837 40.5201 86.5875 39.5699 86.338C36.6361 85.5395 33.7689 84.5414 30.7683 84.0257C29.9682 83.5932 29.1014 83.4268 28.2179 83.327C27.151 82.9943 26.0841 82.5951 25.0006 82.3622C23.467 82.0295 22.3501 81.1312 21.3499 80.0167C21.0999 79.4178 20.8499 78.8189 20.6165 78.2201C20.5998 74.4772 20.5665 70.7177 20.5498 66.9748C20.5165 65.8769 20.5165 64.779 20.5165 63.6811ZM45.6544 84.4083C48.5716 85.5228 48.5882 85.5228 48.4382 82.5285C48.4382 82.4121 48.3882 82.2956 48.3549 82.1792C48.5215 80.9649 48.5216 79.7505 48.3382 78.5528C48.5216 74.9264 48.5049 71.2833 48.3549 67.6569C48.5215 66.5756 48.5382 65.4943 48.3382 64.3964C48.4715 62.683 48.6549 60.953 48.2382 59.2396C48.2882 59.2562 48.3382 59.2728 48.3882 59.2895C48.3549 59.2895 48.3215 59.2895 48.2715 59.2895C47.2713 60.8532 46.2711 62.4168 45.271 63.9805C43.9541 66.0433 42.9539 66.4591 40.5868 65.9102C39.0032 65.5442 37.4362 65.1783 35.8693 64.8123C35.0691 64.3964 34.2023 64.2134 33.3188 64.1136C30.6016 63.3817 27.8845 62.6497 25.1506 61.9178C24.3505 61.7015 23.8337 61.7182 23.8671 62.8494C23.9504 66.5091 23.9337 70.1688 23.9504 73.8284C23.9504 74.7933 23.9504 75.7747 23.9671 76.7396C23.7504 77.9706 24.3338 78.7191 25.4674 79.0352C27.6011 79.6341 29.7515 80.1497 31.8852 80.6987C32.802 81.1645 33.7689 81.3807 34.7857 81.4639C37.6362 82.4287 40.5368 83.1939 43.4706 83.8427C44.1541 84.1255 44.8542 84.4249 45.6544 84.4083ZM51.7721 74.5604C51.7221 77.8541 51.6888 81.1478 51.6388 84.4416C51.6388 84.8242 51.6721 85.1735 52.2056 85.0571C54.2726 84.4915 56.3396 83.9259 58.4067 83.3603C59.7736 83.2272 61.0738 82.7947 62.3574 82.3289C66.3581 81.2809 70.3589 80.2329 74.3596 79.1683C75.5265 78.8522 76.2266 78.1702 76.1933 76.856C76.1432 74.0447 76.1432 71.2168 76.1099 68.3888C76.1099 67.424 76.0932 66.4425 76.0932 65.4777C76.0932 64.3964 76.1099 63.2985 76.1099 62.2172C76.1432 62.001 76.2266 61.7348 75.8098 61.8346C72.0092 62.6165 68.2418 63.548 64.5411 64.7125C63.1575 64.8289 61.8573 65.2614 60.5571 65.7106C57.3232 66.8584 55.2561 65.5609 53.9392 62.6165C53.8725 62.4668 53.7058 62.3503 53.5891 62.2006C53.1391 61.1526 52.589 60.1711 51.5221 59.0566C51.6054 60.7367 51.6721 62.0176 51.7555 63.3151C51.5554 67.0913 51.5888 70.8175 51.7721 74.5604ZM79.9606 50.5727C79.5105 49.9739 78.9604 49.4582 78.3103 49.0756C77.8936 48.5433 77.4935 48.0775 76.6767 48.2771C72.1592 49.4249 67.625 50.5395 63.0909 51.6706C59.6569 52.4359 56.223 53.1844 52.5389 53.9995C53.6725 55.7961 54.4726 57.5262 55.7062 59.0067C56.2896 60.0547 56.9064 61.1027 57.4732 62.1507C57.8066 62.7828 58.2066 62.9159 58.9401 62.6996C61.6573 61.9012 64.3911 61.2025 67.1249 60.4706C68.4918 60.404 69.7587 59.905 71.059 59.539C75.9265 58.308 80.7941 57.0604 86.045 55.7296C83.7946 53.8332 81.8776 52.203 79.9606 50.5727ZM56.573 43.7857C55.9062 43.3698 55.1561 43.3365 54.3893 43.3365C50.1385 41.6065 46.1044 43.1203 42.0204 44.1184C38.053 44.6008 34.219 45.6321 30.2849 46.6469C33.2021 47.2956 36.1193 47.961 39.0532 48.6098C41.9537 49.3916 44.8375 50.24 47.8214 50.6725C48.6549 51.0052 49.4717 51.4378 50.4052 51.155C56.4897 49.7077 62.5908 48.2771 69.0086 46.7633C68.0918 46.0147 67.3916 46.2476 66.8082 46.0647C63.4743 45.0166 60.057 44.2182 56.573 43.7857ZM25.6674 58.5908C26.4509 59.0399 27.3344 59.1564 28.2179 59.2895C31.2017 60.2044 34.219 61.0195 37.2862 61.5685C38.6031 61.9511 39.92 62.3004 41.2036 62.7329C41.737 62.9159 42.087 62.9325 42.4038 62.4002C44.0541 59.6388 45.7377 56.894 47.488 54.0162C46.2378 53.7667 45.2543 53.5837 44.2708 53.384C41.3703 52.6022 38.4697 51.7871 35.5025 51.288C34.569 50.8888 33.6022 50.6393 32.5853 50.606C29.6014 49.7243 26.5842 48.8926 23.5003 48.4268C23.0503 47.9777 22.6335 48.1607 22.2334 48.51C19.5996 50.8389 16.9825 53.1678 14.232 55.6131C15.2155 56.1288 16.0823 56.2619 16.9491 56.3783C19.8163 57.26 22.7002 58.1084 25.6674 58.5908Z" fill="black"/>
<path d="M47.4547 22.6925C48.0881 21.578 48.8883 20.6797 50.2385 20.4135C48.9216 17.7685 46.2711 16.1716 45.6377 13.2605C45.9044 12.2125 46.3045 11.231 47.1546 10.4824C48.0548 10.1164 49.005 10 49.9885 10C60.057 10.0166 70.1421 10 80.2106 10.0166C82.9278 10.0166 83.5779 10.4491 84.5781 12.8945C84.5448 14.375 83.828 15.4396 82.6611 16.3712C79.6272 18.7999 76.66 21.3118 73.6761 23.7904C70.2088 26.5851 66.7582 29.3798 63.2742 32.1744C61.3572 33.7215 59.5069 33.6217 58.14 31.6754C57.2231 30.3612 56.373 30.0784 55.0894 30.9767C53.7725 31.3926 52.4389 31.7918 51.122 32.2077C48.4715 31.9748 47.4714 30.9102 47.4214 28.3318C47.4047 27.5499 47.3713 26.7681 47.3547 25.9862C47.388 24.8717 47.4214 23.7904 47.4547 22.6925ZM62.6575 20.846C60.1403 21.4449 57.6232 22.0437 55.1061 22.6592C50.5719 23.7405 50.5719 23.7405 50.7553 28.4149C50.7553 28.5147 50.8386 28.6145 50.922 28.7643C51.6555 28.5314 52.4056 28.3151 53.1391 28.0822C54.1059 27.7828 55.2228 27.683 54.1726 26.1858C53.7225 25.5371 54.1726 24.7552 54.856 24.3394C55.5562 23.9235 56.273 24.0233 56.8397 24.6222C57.3732 25.1877 57.8566 25.8032 58.3733 26.3855C58.49 26.818 58.7067 27.1839 59.1235 27.4168C59.3402 27.7662 59.5902 28.1155 59.7736 28.4815C60.4737 29.9121 61.2572 29.8289 62.3241 28.7643C63.3576 27.7495 64.5578 26.9178 65.6747 25.9862C70.6422 21.8774 75.6265 17.7685 80.594 13.6431C80.6774 13.5599 80.7774 13.4601 80.8608 13.3769C80.7607 13.3603 80.6607 13.3436 80.5607 13.3436C78.0269 13.3436 75.4765 13.3436 72.9427 13.3436C71.9758 13.3436 70.9923 13.327 70.0255 13.327C63.2409 13.327 56.4563 13.327 49.6718 13.327C49.5384 13.3769 49.405 13.4268 49.2717 13.4767C49.405 13.6431 49.5384 13.8094 49.6551 13.9758C50.9053 15.5894 52.1889 17.1697 53.3558 18.8332C53.8725 19.5651 54.406 19.432 55.0727 19.2657C57.5232 18.6336 59.9903 18.0846 62.4241 17.4026C63.4243 17.1198 64.1911 17.2695 64.8912 17.9682C65.4913 19.9976 64.0077 20.3636 62.6575 20.846Z" fill="black"/>
<path d="M48.2382 59.2562L48.2715 59.3061C48.3048 59.3061 48.3382 59.3061 48.3715 59.3061C48.3215 59.2895 48.2715 59.2728 48.2382 59.2562Z" fill="black"/>
<path d="M76.1266 62.2339C76.0266 62.1008 75.9265 61.9843 75.8265 61.8513C76.2433 61.7514 76.1599 62.0176 76.1266 62.2339Z" fill="black"/>
</svg>
