<svg width="55" height="55" viewBox="0 0 55 55" fill="none" xmlns="http://www.w3.org/2000/svg">
<g clip-path="url(#clip0)">
<path d="M41.8344 19.1204C43.8401 19.2708 44.8763 19.956 45.244 21.4436C45.3443 21.8113 45.3443 22.2124 45.3443 22.5968C45.3443 28.5135 45.3443 34.4301 45.3443 40.3468C45.3443 42.2187 44.7426 43.0711 43.0044 43.7397C42.6701 43.7564 42.3358 43.7731 42.0016 43.7731C35.2827 43.7731 28.547 43.7731 21.8281 43.7731C18.1344 43.7731 14.4406 43.8065 10.7469 43.8065C10.5296 43.7731 10.3124 43.7397 10.0784 43.723C9.7608 43.5558 9.44324 43.4054 9.12568 43.2383C8.25656 42.5196 7.88886 41.6003 7.88886 40.4638C7.90557 36.3188 7.90557 32.1738 7.90557 28.0288C7.90557 27.9118 7.90557 27.8115 7.90557 27.6945C7.88886 27.3101 8.02257 27.0092 8.44041 26.9925C8.87497 26.9758 9.00868 27.2934 9.02539 27.6611C9.05882 28.4968 9.05882 29.3324 9.07554 30.1514C9.00868 30.6027 9.00868 31.0372 9.07554 31.4885C8.99197 33.21 9.00868 34.9483 9.07554 36.6698C9.00868 37.1712 9.00868 37.6726 9.07554 38.174C9.05882 39.11 9.00868 40.0627 9.05882 40.9986C9.10896 41.8176 9.54352 42.3859 10.4126 42.553C10.7803 42.787 11.1982 42.67 11.5993 42.6533C13.3208 42.6533 15.0423 42.6533 16.7638 42.6533C17.2653 42.6533 17.7667 42.6533 18.2681 42.6533C19.9395 42.6533 21.6108 42.6533 23.2655 42.6533C23.7669 42.6533 24.2683 42.6533 24.7697 42.6533C28.664 42.6533 32.5583 42.6533 36.4526 42.6533C36.954 42.6533 37.4554 42.6533 37.9569 42.6533C39.4277 42.67 40.8818 42.7034 42.3526 42.67C43.3888 42.6533 44.1409 41.9179 44.1744 40.8983C44.2078 39.4442 44.1576 37.9734 44.1576 36.5026C44.2245 36.0012 44.2245 35.4998 44.1576 34.9984C44.2412 33.2769 44.2245 31.5387 44.1576 29.8171C44.2245 29.3659 44.2245 28.9313 44.1576 28.48C44.2412 26.7585 44.2245 25.0203 44.1576 23.2988C44.2245 22.7974 44.2412 22.296 44.1242 21.7946C43.8735 20.8419 43.322 20.3405 42.4361 20.307C41.567 20.2903 40.6812 20.3237 39.8121 20.3405C39.4277 20.3405 39.0265 20.3405 38.6421 20.3405C36.9206 20.3405 35.1991 20.3405 33.4776 20.3405C33.0263 20.3405 32.575 20.3405 32.1405 20.3405C30.3688 20.3405 28.5805 20.3405 26.8088 20.3405C26.3575 20.3405 25.9063 20.3405 25.4717 20.3405C23.6833 20.3405 21.9117 20.3405 20.1233 20.3405C19.7389 20.3405 19.3378 20.3405 18.9533 20.3405C17.2318 20.3405 15.5103 20.3405 13.7888 20.3405C13.2874 20.3405 12.7693 20.3405 12.2679 20.3405C9.51009 20.1733 8.97525 20.6915 9.05882 23.3991C9.05882 23.4826 9.09225 23.5662 9.09225 23.6498C9.07554 23.9005 9.05882 24.1512 9.04211 24.3852C9.00868 24.9869 8.75797 25.271 8.13957 25.0537C7.82201 23.5161 7.63816 21.9784 8.44041 20.5577C8.99197 19.5883 9.94465 19.2039 11.031 19.1705C12.0004 19.1538 12.9698 19.1371 13.9392 19.1204C14.4406 19.1204 14.9421 19.1204 15.4435 19.1204C17.165 19.1204 18.9032 19.1204 20.6247 19.1204C21.076 19.1204 21.5105 19.1204 21.9618 19.1204C23.6833 19.1204 25.4216 19.1204 27.1431 19.1204C27.6445 19.1204 28.1459 19.1204 28.6473 19.1204C30.3688 19.1204 32.107 19.1204 33.8286 19.1204C34.2798 19.1204 34.7144 19.1204 35.1657 19.1204C36.8872 19.1204 38.6254 19.1204 40.3469 19.1204C40.8316 19.1204 41.333 19.1204 41.8344 19.1204Z" fill="#0E0E0E"/>
<path d="M12.1843 27.4605C12.201 26.9591 12.2178 26.4744 12.2345 25.9729C12.2846 24.7528 13.0702 23.9172 14.2903 23.8336C14.8418 23.8002 15.3934 23.8002 15.9449 23.7834C16.3293 23.867 16.7305 23.8503 17.1149 23.7834C18.7528 24.2514 19.0537 24.6693 19.1707 26.6248C19.1707 27.0761 19.1707 27.5273 19.1707 27.9619C19.1372 28.3964 19.1707 28.8644 19.037 29.2655C18.6525 30.5525 17.6163 30.8366 16.4296 30.8366C15.9282 30.8366 15.4268 30.8366 14.9254 30.8366C13.1203 30.7196 12.6022 30.3687 12.201 28.9647C12.201 28.4633 12.201 27.9619 12.1843 27.4605ZM17.9673 25.8225C17.8837 25.2041 17.5327 24.9868 17.048 24.9701C16.1288 24.9534 15.2095 24.9534 14.2903 24.9701C13.8724 24.9701 13.4211 25.1874 13.4546 25.6052C13.4713 25.9897 13.9393 25.7724 14.2067 25.7891C14.5744 25.8225 14.8919 25.9228 14.9254 26.3239C14.9421 26.7919 14.6078 26.8922 14.2067 26.9423C13.8891 26.9925 13.3376 26.6248 13.3209 27.31C13.3041 28.0622 13.9393 27.6109 14.2568 27.7279C14.3237 27.7613 14.424 27.7446 14.5075 27.7446C14.8084 27.7947 14.9421 27.9953 14.9254 28.2627C14.9087 28.5469 14.775 28.7307 14.4741 28.7641C14.2735 28.7809 14.0897 28.7641 13.8891 28.7808C13.722 28.7976 13.4546 28.6471 13.4211 28.948C13.3877 29.1486 13.5549 29.299 13.7053 29.4327C13.8891 29.5831 14.1064 29.6333 14.3237 29.6333C15.2429 29.6333 16.1622 29.6333 17.0814 29.6165C17.5829 29.5998 17.9338 29.3993 17.9506 28.8143C17.7667 28.7976 17.5996 28.7976 17.4324 28.7808C17.048 28.7474 16.4965 28.9146 16.463 28.2794C16.4296 27.5775 17.0146 27.7279 17.4324 27.7112C17.7333 27.6945 18.0508 27.7613 18.0508 27.2766C18.0508 26.7418 17.6664 26.9423 17.399 26.8922C17.2653 26.8755 17.1149 26.8922 16.9812 26.8755C16.6803 26.8253 16.463 26.6582 16.4463 26.3406C16.4296 25.9729 16.6636 25.7891 17.0146 25.7724C17.3322 25.8058 17.633 25.8225 17.9673 25.8225Z" fill="#0E0E0E"/>
<path d="M33.1934 12.6021C33.043 12.903 32.8257 13.0868 32.4747 13.1035C32.341 13.0033 32.2073 12.903 32.0903 12.786C28.8144 9.71066 23.7669 9.97808 20.9422 13.0534C20.6748 13.1203 20.4408 13.0534 20.2068 12.903C19.9896 12.4684 20.1901 12.1843 20.491 11.8834C21.1762 11.2316 21.9952 10.7803 22.7975 10.2789C23.5162 10.0449 24.2348 9.81094 24.9535 9.59366C26.5246 9.42652 28.0957 9.49338 29.6167 9.94465C29.9509 10.0951 30.2852 10.2455 30.6195 10.3959C31.3382 10.8305 32.0736 11.265 32.692 11.85C32.9427 12.0673 33.1767 12.2679 33.1934 12.6021Z" fill="#0E0E0E"/>
<path d="M30.8201 15.0925C30.7198 15.0758 30.5861 15.0925 30.5192 15.0257C28.313 12.8696 25.455 12.7192 23.1318 14.6078C22.8142 14.8585 22.5133 15.3098 22.0955 14.8418C21.6609 14.3571 22.1122 14.0395 22.4298 13.7554C24.7864 11.6829 28.5637 11.6996 30.8869 13.7888C31.1376 14.0061 31.3883 14.2234 31.3716 14.6078C31.2881 14.8752 31.0373 14.9755 30.8201 15.0925Z" fill="#0E0E0E"/>
<path d="M23.9841 16.9308C23.7835 16.6968 23.5997 16.4628 23.6833 16.1285C25.5051 14.407 27.7781 14.407 29.5665 16.1285C29.6501 16.7135 29.3659 16.9642 28.7977 16.9308C27.3603 15.6773 26.2238 15.6104 24.7195 16.6801C24.5022 16.8639 24.285 16.9809 23.9841 16.9308Z" fill="#0E0E0E"/>
<path d="M23.9675 36.2184C23.5831 36.2184 23.182 36.2184 22.7976 36.2184C21.0761 36.2184 19.3546 36.2184 17.633 36.2184C17.1316 36.2184 16.6302 36.2184 16.1288 36.2184C15.0926 36.2017 14.0563 36.185 13.0201 36.185C12.5019 36.185 12.2512 36.0012 12.2512 35.483C12.3515 35.2658 12.5354 35.1488 12.7693 35.0819C14.4407 35.0819 16.1288 35.0652 17.8002 35.0652C18.3016 35.0652 18.803 35.0652 19.3044 35.0652C21.0259 35.0652 22.7474 35.0652 24.4857 35.0652C24.9369 35.0652 25.3715 35.0652 25.8228 35.0652C26.5749 35.0819 27.3103 35.0986 28.0624 35.0986C28.4301 35.0986 28.7644 35.1822 28.7811 35.6C28.7978 36.0513 28.4635 36.1683 28.0457 36.1683C26.6752 36.185 25.3214 36.2017 23.9675 36.2184Z" fill="#0E0E0E"/>
<path d="M38.3244 34.2631C38.6754 34.2965 39.0431 34.3299 39.3941 34.3801C40.681 34.9484 41.3663 35.9177 41.3663 37.3384C41.2326 37.773 41.149 38.241 40.5139 38.1407C40.2298 37.9067 40.1462 37.6225 40.1963 37.2548C40.2465 36.8871 40.1796 36.5362 39.9791 36.2186C39.5779 35.5668 38.7924 35.2659 38.0235 35.4999C37.2881 35.7339 36.7867 36.4359 36.8369 37.2047C36.8703 37.9735 37.472 38.6755 38.2743 38.7925C38.7422 38.8594 39.1768 38.8928 39.1935 39.5112C39.0765 39.7285 38.8759 39.8455 38.6754 39.9625C38.2408 39.8956 37.7728 39.9123 37.3884 39.6783C37.0876 39.4945 36.8536 39.5613 36.5527 39.6951C35.2992 40.2132 33.9955 39.8622 33.21 38.8259C32.4579 37.8398 32.4579 36.4192 33.1933 35.4163C33.9621 34.3968 35.3159 33.979 36.536 34.5305C37.2547 34.8481 37.706 34.213 38.3244 34.2631ZM35.4162 38.8092C36.0513 38.8092 36.1516 38.6755 35.9343 38.1407C35.6502 37.4053 35.6335 36.6699 35.9845 35.9679C36.2018 35.5166 35.9845 35.4498 35.6335 35.3996C34.6975 35.2659 33.8284 35.9679 33.7114 36.9373C33.6278 37.9067 34.4468 38.8092 35.4162 38.8092Z" fill="#0E0E0E"/>
<path d="M14.6078 39.16C14.1063 39.0765 13.6049 39.0765 13.1035 39.1433C12.7191 39.0598 12.201 39.0932 12.2678 38.4748C12.318 37.8564 12.8194 37.9734 13.2205 37.9734C13.7888 37.9567 14.3738 37.9399 14.942 37.9399C15.3933 37.9399 15.8446 37.9399 16.2791 37.9399C16.9978 37.9567 17.7165 37.9734 18.4352 37.9734C18.8196 37.9734 19.1037 38.1238 19.1037 38.5416C19.1037 38.9762 18.7862 39.0932 18.4185 39.0932C17.165 39.1266 15.878 39.1433 14.6078 39.16Z" fill="#0E0E0E"/>
</g>
<defs>
<clipPath id="clip0">
<rect width="37.4889" height="34.2631" fill="white" transform="translate(7.85547 9.52661)"/>
</clipPath>
</defs>
</svg>
