<svg width="100" height="100" viewBox="0 0 100 100" fill="none" xmlns="http://www.w3.org/2000/svg">
<path d="M20.8571 52.3429C17.0381 52.3429 13.9368 55.403 13.9368 59.1714C13.9368 62.9398 17.0381 66 20.8571 66C24.6762 66 27.7774 62.9398 27.7774 59.1714C27.7774 55.403 24.6762 52.3429 20.8571 52.3429ZM20.8571 63.608C18.3653 63.608 16.3474 61.6169 16.3474 59.1581C16.3474 56.6993 18.3653 54.7082 20.8571 54.7082C23.349 54.7082 25.3668 56.6993 25.3668 59.1581C25.3668 61.6169 23.349 63.608 20.8571 63.608Z" fill="black"/>
<path d="M68.5137 60.9755C68.1345 60.9755 67.8772 60.9888 67.796 60.9888L46.0329 61.1091C43.9474 61.1225 35.9707 61.1492 29.8494 61.1626C29.6463 62.0445 29.3213 62.873 28.8744 63.6347C28.9692 63.6347 29.0775 63.6347 29.1723 63.6347C35.3749 63.6214 43.8797 63.5946 46.0465 63.5813L67.8095 63.461C67.8366 63.461 68.4325 63.4476 69.4076 63.4343C69.0013 62.6726 68.6898 61.8441 68.5137 60.9755Z" fill="black"/>
<path d="M96.9939 56.8062C96.9939 56.6458 96.9939 56.5122 96.9939 56.432C97.0075 55.6169 96.8991 54.4944 96.8043 53.7861C96.6689 52.8507 96.4522 51.8485 95.4907 50.873C94.8677 50.2449 94.0823 49.8173 93.4051 49.4431C93.2968 49.3896 93.202 49.3362 93.0936 49.2694C89.8028 47.4253 85.6181 46.2894 80.2958 45.8217L79.1989 45.7282C77.2487 45.5544 75.2309 45.3673 73.2266 45.2738C72.089 45.2204 71.3306 45.1135 70.5993 44.7393C70.2065 44.5388 69.8274 44.3384 69.4346 44.1246C68.9065 43.844 68.3918 43.5767 67.8637 43.2961C64.0446 41.3451 59.8871 39.3807 55.3773 38.178C50.4478 36.855 45.5725 36.8951 41.0357 37.1223C36.7156 37.3361 31.6912 37.6702 26.7617 38.8061C24.8251 39.247 22.2791 39.8617 19.7737 40.6101C18.5684 40.9709 17.3902 41.4119 16.2391 41.8261C15.2098 42.2003 14.14 42.6012 13.0972 42.9219C11.4991 43.4163 10.7949 43.5232 8.31662 43.8707C7.28738 44.0177 5.55392 44.6591 5.40495 47.3718L5.39139 47.5455C5.28305 49.4565 5.26953 49.7104 5.14765 51.3407L5.13409 51.5411C5.10701 51.9687 5.07994 52.383 4.94451 52.6636C4.8768 52.8106 4.79551 52.9442 4.71426 53.118C4.61946 53.2783 4.52467 53.4654 4.41633 53.6658C3.91525 54.7215 3.98295 55.8708 4.03712 56.7928L4.05068 57.1135C4.17256 59.7862 5.35079 61.3363 7.85618 62.1381C8.61457 62.3786 10.4157 62.6325 12.5013 62.8597C12.1356 62.0579 11.8919 61.1893 11.77 60.294C10.2938 60.1202 9.11564 59.9465 8.62811 59.7862C7.13841 59.3051 6.62379 58.6369 6.55607 57.0066C6.55607 56.8997 6.54252 56.7795 6.54252 56.6725C6.50189 55.9509 6.46127 55.216 6.6915 54.7215C6.74567 54.5879 6.82694 54.4676 6.90819 54.334C7.01654 54.1469 7.13842 53.9197 7.24676 53.6658C7.5447 52.9977 7.5853 52.3295 7.62593 51.7416L7.63948 51.5545C7.77491 49.8841 7.78846 49.5901 7.88326 47.6925L7.89678 47.5188C7.95095 46.4364 8.28953 46.3963 8.65518 46.3429C11.2418 45.9821 12.0679 45.8618 13.842 45.3139C14.9525 44.9665 16.0495 44.5656 17.1193 44.178C18.2298 43.7638 19.3674 43.3495 20.505 43.0021C22.9427 42.2671 25.4345 41.6791 27.3305 41.2381C32.0569 40.1424 36.9458 39.8217 41.1576 39.6078C42.5118 39.541 43.8796 39.4876 45.2881 39.4876C48.3758 39.4876 51.5583 39.7281 54.7273 40.5834C59.0068 41.7326 63.0154 43.6301 66.7125 45.5143C67.2272 45.7816 67.7418 46.0489 68.2429 46.3161C68.6356 46.5299 69.0283 46.7304 69.4211 46.9442C70.6805 47.599 71.9265 47.7059 73.0911 47.7593C75.0413 47.8529 77.0321 48.0266 78.9551 48.2137L80.0521 48.3072C85.0087 48.7482 88.8548 49.7772 91.8342 51.4476C91.9425 51.501 92.0509 51.5678 92.1592 51.6213C92.728 51.9286 93.3103 52.2494 93.676 52.6235C94.0687 53.0244 94.1906 53.3719 94.2989 54.1603C94.3937 54.7883 94.475 55.7505 94.4615 56.3919C94.4615 56.4988 94.4615 56.6458 94.4615 56.8329C94.4615 57.5011 94.475 58.7438 94.3125 59.5189C94.2719 59.706 94.1906 59.7862 94.1229 59.8262C93.527 60.0801 90.6966 60.4677 89.1392 60.6013C88.9902 60.6147 88.0016 60.628 86.5255 60.6548C86.3765 61.5367 86.1056 62.3652 85.7265 63.1403C87.7714 63.1002 89.1798 63.0735 89.3288 63.0601C89.5319 63.0468 94.4073 62.6592 95.5313 61.8708C96.3439 61.3095 96.6554 60.5612 96.7637 60.0267C97.021 58.9844 97.0075 57.6213 96.9939 56.8062Z" fill="black"/>
<path d="M77.4654 52.3429C73.6464 52.3429 70.5451 55.403 70.5451 59.1714C70.5451 62.9398 73.6464 66 77.4654 66C81.2845 66 84.3857 62.9398 84.3857 59.1714C84.3857 55.403 81.298 52.3429 77.4654 52.3429ZM77.4654 63.608C74.9736 63.608 72.9557 61.6169 72.9557 59.1581C72.9557 56.6993 74.9736 54.7082 77.4654 54.7082C79.9573 54.7082 81.9751 56.6993 81.9751 59.1581C81.9751 61.6169 79.9573 63.608 77.4654 63.608Z" fill="black"/>
<path d="M40.3586 41.3317C38.2594 41.4653 36.1739 41.6925 34.1018 42.0266C32.8965 42.2137 29.863 42.7749 27.7639 43.2693C27.1274 43.4163 25.9492 43.7504 25.746 44.4052C25.3939 45.5678 27.6555 45.9019 28.3733 45.9954C32.3684 46.5299 36.3635 46.9041 40.5075 47.1847C40.5888 47.1847 40.7513 47.1847 40.9003 47.0511C41.0492 46.9175 41.1034 46.7571 41.1034 46.6235C41.0492 45.3673 40.9273 42.1468 40.9273 41.8929C40.9273 41.7459 40.8596 41.5856 40.7242 41.4787C40.5888 41.3718 40.4534 41.3317 40.3586 41.3317Z" fill="black"/>
<path d="M62.731 46.57C60.835 45.1402 59.2776 44.1513 56.9483 43.2426C54.1314 42.1468 51.1385 41.5722 48.132 41.3584C47.1028 41.2916 46.1413 41.2515 45.0985 41.2381C44.9901 41.2381 44.8005 41.2782 44.6651 41.4252C44.5703 41.5321 44.4891 41.6925 44.5161 41.8528C44.6787 43.2827 45.0714 46.864 45.0849 46.9976C45.0985 47.0912 45.1526 47.2515 45.2881 47.3585C45.4235 47.4787 45.5589 47.5054 45.6402 47.5054C50.7322 47.7727 55.7701 47.9197 60.7267 48.0801C61.2955 48.0934 61.6476 48.1335 62.2164 48.1335C63.0425 48.1068 63.4759 47.1313 62.731 46.57Z" fill="black"/>
</svg>
