<svg width="100" height="100" viewBox="0 0 100 100" fill="none" xmlns="http://www.w3.org/2000/svg">
<path d="M64.9377 37.7615C64.5765 39.1677 63.8542 40.3471 62.5901 41.1636C61.01 42.1616 61.6872 43.976 61.2357 45.4276C59.0687 51.0979 55.1862 55.0897 49.4528 57.131C47.9178 57.3578 46.428 57.5392 44.8931 57.766C41.1912 57.8114 37.8955 56.632 34.6902 54.8629C33.9227 54.2278 33.1553 53.5928 32.3878 52.9577C30.266 50.5535 28.5504 47.9225 27.6024 44.8379C27.0155 43.6131 27.9635 41.7533 26.0674 41.1182C22.9975 38.1244 22.9975 32.7717 26.0674 29.8231C26.6543 29.2788 27.5572 28.7798 27.1961 27.6458C27.3767 26.1488 27.5572 24.6972 27.7378 23.2003C29.6339 16.8043 33.7422 12.631 40.0174 10.5443C41.5072 10.3629 43.0421 10.1814 44.5319 10C48.0984 10.2268 51.394 11.3155 54.4188 13.2207C55.1411 13.8558 55.9086 14.4908 56.6309 15.1259C58.7979 17.6208 60.2425 20.4786 61.1906 23.6539C61.1454 24.8787 61.3712 26.1035 61.642 27.2829C61.3712 28.5076 61.6872 29.3242 62.861 30.0046C64.5313 30.9572 64.9377 32.5902 64.8925 34.4047C64.8925 35.4934 64.9377 36.6274 64.9377 37.7615ZM53.5159 31.3654C49.0465 30.5943 44.5319 30.5489 39.9722 30.9572C36.812 30.7304 33.7422 31.4108 30.6723 31.9098C31.5752 34.7222 33.0198 35.4934 36.812 35.3119C41.462 35.3119 46.112 35.3119 50.762 35.3119C55.1411 35.8109 57.5789 34.8583 58.2561 31.9098C56.7212 31.7283 55.1411 31.184 53.5159 31.3654ZM46.2926 38.6687C42.6358 38.6687 38.9339 38.7141 35.2771 38.578C32.6587 38.4873 30.1757 37.8975 28.4601 35.4934C28.099 34.9944 28.0538 33.9964 26.9252 34.0418C27.0155 35.7202 26.1126 37.8068 28.3247 38.4419C29.9499 38.9409 30.266 39.8027 30.3563 41.1636C30.582 44.8379 31.9815 47.9679 34.8256 50.4174C35.5028 51.1886 36.2252 51.9144 37.2184 52.2319C39.1145 53.7288 41.3717 54.2732 43.7193 54.3639C51.394 54.7722 57.8047 49.1473 58.6173 41.3451C58.7076 40.3925 58.527 39.3491 59.5653 38.7141C62.0935 37.1718 62.3644 36.3099 61.3712 33.4521C59.5653 37.3532 56.4503 38.7594 52.3872 38.5326C51.5746 38.4873 50.7168 38.578 49.9042 38.6233C48.7304 38.6687 47.5115 38.6687 46.2926 38.6687ZM51.71 15.4434C47.1503 12.4495 42.4101 12.4042 37.7601 15.0352C32.9747 17.7115 30.7174 21.9755 30.4917 27.419C30.4465 28.1901 30.4917 28.7345 31.53 28.5984C34.6451 28.1901 37.7601 27.8272 40.8751 27.4643C46.2926 27.6458 51.7552 27.5097 57.1726 28.553C58.1207 28.7345 58.527 28.4623 58.4819 27.419C58.0755 22.3384 56.3149 18.1198 51.71 15.4434Z" fill="black"/>
<path d="M60.7391 61.2136C61.642 61.5311 62.5449 61.894 63.4478 62.2115C64.3959 62.8012 65.2988 63.4363 66.2469 64.026C67.1949 64.6611 67.5109 65.5683 66.8337 66.5209C66.2017 67.3828 65.3439 67.2921 64.4862 66.657C63.0867 65.659 61.5969 64.7971 59.8814 64.525C58.843 64.1621 57.8047 63.8446 56.7212 64.026C52.3421 62.8466 49.6333 65.3869 47.0601 68.3807C45.4348 70.2859 46.3377 72.3726 46.2474 74.3685C46.0217 75.9108 46.0217 77.4078 46.2474 78.9501C46.2023 79.5398 46.1571 80.1295 46.112 80.7192C45.9766 82.8965 45.3897 83.2594 43.2678 82.4883C43.1324 81.2635 42.9518 80.0841 42.8164 78.8593C42.8615 76.6366 42.7712 74.3685 42.997 72.1458C43.2227 69.8323 42.4101 68.2447 40.514 67.1106C39.8819 66.2034 39.1596 65.4322 38.2115 64.7972C36.6315 63.0734 34.5548 64.026 32.749 64.026C26.1126 63.9353 21.0111 68.1539 19.5665 74.686C18.8893 77.7253 19.2956 80.8552 19.2956 83.8945C19.2956 85.1193 19.2956 86.2987 19.2956 87.5234C19.2505 87.9771 19.2053 88.4307 19.2053 88.8843C19.3408 91.107 18.2121 94.2824 19.6568 95.3257C21.1466 96.4597 24.1262 95.5979 26.4286 95.5979C27.1961 95.6886 27.1961 95.3257 26.9703 94.736C27.2412 90.1998 27.1961 85.6636 26.9703 81.1728C27.3315 79.8573 26.8349 78.4511 27.3766 77.1356C27.5121 76.9995 27.6475 76.9088 27.8281 76.7727C28.5956 76.5459 29.3179 76.7273 29.9499 77.1356C29.9048 79.4037 30.9431 80.2202 33.1553 79.8573C34.1485 79.6758 34.9159 80.3563 34.9159 81.445C34.9159 82.4883 34.1485 82.9873 33.1101 83.0326C32.5684 83.0326 32.0718 83.078 31.53 83.0326C30.6271 82.9419 30.1305 83.1234 30.1757 84.212C30.266 86.208 30.266 88.2492 30.3111 90.2452C30.0854 91.7875 30.0854 93.2844 30.3111 94.8267C30.0854 96.0968 31.0786 95.6886 31.5752 95.6886C35.6834 95.6886 39.7916 95.6432 43.8999 95.6432C45.2542 95.6432 46.6086 95.6432 47.963 95.6432C48.4596 95.6886 49.0464 95.6432 49.4979 95.8247C50.2654 96.0968 50.762 96.6865 50.5814 97.5484C50.4008 98.4557 49.7236 98.9093 48.7756 98.9093C46.9698 98.9093 45.2091 98.9546 43.4033 99C42.0489 99 40.6945 99 39.3402 99C34.8256 99 30.3111 99 25.8417 99C24.4873 99 23.133 99 21.7786 99C16.316 98.6825 16.316 98.6825 16 92.105C16 90.8802 16 89.7008 16 88.4761C16.0903 83.8038 16.1806 79.0861 16.2709 74.4139C16.9029 71.8282 17.9413 69.4694 19.3859 67.2467C20.4243 66.2034 21.4175 65.16 22.4558 64.1621C24.5776 62.8466 26.7446 61.7125 29.1825 61.1682C33.9679 60.4424 38.7984 61.1228 43.5839 60.7599C44.8028 60.7599 45.9766 60.7599 47.1955 60.7599C51.71 60.9868 56.2697 60.4424 60.7391 61.2136ZM46.744 64.2074C45.2542 63.7992 43.8547 64.026 42.2746 64.026C44.3965 66.7024 44.3965 66.7024 46.744 64.2074Z" fill="black"/>
<path d="M45.8411 22.656C46.0668 22.7013 46.2925 22.7467 46.5183 22.7467C47.7372 22.7467 49.1367 22.656 49.1367 24.3797C49.1367 26.1035 47.692 25.922 46.4731 25.9674C44.7576 25.9674 43.0421 26.0127 41.3265 26.0581C40.2431 25.7859 39.5659 25.1509 39.8819 23.9714C40.1528 22.8828 41.1008 22.792 42.0489 22.8374C43.3129 22.7467 44.577 22.7013 45.8411 22.656Z" fill="black"/>
<path fill-rule="evenodd" clip-rule="evenodd" d="M57 73V95.6366H81.9169V73H57ZM55.7922 70C54.8024 70 54 70.8074 54 71.8033V96.8332C54 97.8292 54.8024 98.6366 55.7922 98.6366H83.1247C84.1145 98.6366 84.9169 97.8292 84.9169 96.8332V71.8033C84.9169 70.8074 84.1145 70 83.1247 70H55.7922Z" fill="black"/>
</svg>
