<svg width="100" height="100" viewBox="0 0 100 100" fill="none" xmlns="http://www.w3.org/2000/svg">
<path d="M19.1666 76.8346C18.5215 76.8346 18 76.3131 18 75.6679C18 69.8777 22.7095 65.1679 28.4993 65.1679C29.1444 65.1679 29.6659 65.6894 29.6659 66.3346C29.6659 66.9797 29.1444 67.5012 28.4993 67.5012C23.9974 67.5012 20.3332 71.1657 20.3332 75.6679C20.3332 76.3131 19.8117 76.8346 19.1666 76.8346Z" fill="black"/>
<path d="M35.4988 67.5023L28.4993 67.5012C27.8542 67.5012 27.3327 66.9785 27.3327 66.3345C27.3327 65.6893 27.8553 65.1679 28.4993 65.1679L35.4988 65.169C36.144 65.169 36.6654 65.6917 36.6654 66.3357C36.6654 66.9808 36.1428 67.5023 35.4988 67.5023Z" fill="black"/>
<path d="M56.6794 67.5023L51.8311 67.5C51.186 67.5 50.6645 66.9773 50.6645 66.3333C50.6645 65.6882 51.1871 65.1667 51.8311 65.1667L56.6794 65.169C57.3246 65.169 57.846 65.6917 57.846 66.3357C57.846 66.9808 57.3234 67.5023 56.6794 67.5023Z" fill="black"/>
<path d="M19.1689 85C18.525 85 18.0023 84.4785 18.0023 83.8333L18 75.6679C18 75.0239 18.5215 74.5012 19.1666 74.5012C19.8105 74.5012 20.3332 75.0227 20.3332 75.6679L20.3355 83.8333C20.3355 84.4773 19.814 85 19.1689 85Z" fill="black"/>
<path d="M35.4988 67.5023C34.8537 67.5023 34.3322 66.9808 34.3322 66.3357V59.6495C34.3322 59.0043 34.8537 58.4828 35.4988 58.4828C36.144 58.4828 36.6654 59.0043 36.6654 59.6495V66.3357C36.6654 66.9808 36.144 67.5023 35.4988 67.5023Z" fill="black"/>
<path d="M51.8311 67.5C51.186 67.5 50.6645 66.9785 50.6645 66.3333V59.6495C50.6645 59.0043 51.186 58.4828 51.8311 58.4828C52.4762 58.4828 52.9977 59.0043 52.9977 59.6495V66.3333C52.9977 66.9785 52.4762 67.5 51.8311 67.5Z" fill="black"/>
<path d="M43.665 62.8345C33.3733 62.8345 24.9995 54.4602 24.9995 44.1678C24.9995 43.5227 25.521 43.0012 26.1661 43.0012C26.8112 43.0012 27.3327 43.5227 27.3327 44.1678C27.3327 53.1745 34.6589 60.5012 43.665 60.5012C52.671 60.5012 59.9972 53.1745 59.9972 44.1678C59.9972 43.5227 60.5187 43.0012 61.1638 43.0012C61.8089 43.0012 62.3304 43.5227 62.3304 44.1678C62.3304 54.4602 53.9566 62.8345 43.665 62.8345Z" fill="black"/>
<path d="M26.1661 45.3345C25.521 45.3345 24.9995 44.813 24.9995 44.1678V31.3333C24.9995 30.6882 25.521 30.1667 26.1661 30.1667C26.8112 30.1667 27.3327 30.6882 27.3327 31.3333V44.1678C27.3327 44.813 26.8112 45.3345 26.1661 45.3345Z" fill="black"/>
<path d="M61.1638 45.3345C60.5187 45.3345 59.9972 44.813 59.9972 44.1678L59.9972 30.169C59.9972 29.5238 60.5187 29.0023 61.1638 29.0023C61.8089 29.0023 62.3304 29.5238 62.3304 30.169V44.1678C62.3304 44.813 61.8089 45.3345 61.1638 45.3345Z" fill="black"/>
<path d="M61.1638 31.3357C60.5187 31.3357 59.9972 30.8142 59.9972 30.169C59.9972 26.3085 56.8579 23.169 52.9977 23.169C52.3525 23.169 51.8311 22.6475 51.8311 22.0023C51.8311 21.3572 52.3525 20.8357 52.9977 20.8357C58.1435 20.8357 62.3304 25.0228 62.3304 30.169C62.3304 30.8142 61.8089 31.3357 61.1638 31.3357Z" fill="black"/>
<path d="M52.9977 23.169C52.3525 23.169 51.8311 22.6475 51.8311 22.0023V16.1667C51.8311 15.5215 52.3525 15 52.9977 15C53.6428 15 54.1643 15.5215 54.1643 16.1667V22.0023C54.1643 22.6475 53.6428 23.169 52.9977 23.169Z" fill="black"/>
<path d="M52.9977 17.3333H41.3318C40.6867 17.3333 40.1652 16.8118 40.1652 16.1667C40.1652 15.5215 40.6867 15 41.3318 15H52.9977C53.6428 15 54.1643 15.5215 54.1643 16.1667C54.1643 16.8118 53.6428 17.3333 52.9977 17.3333Z" fill="black"/>
<path d="M26.1661 32.5C25.521 32.5 24.9995 31.9785 24.9995 31.3333C24.9995 22.3267 32.3257 15 41.3318 15C41.9769 15 42.4984 15.5215 42.4984 16.1667C42.4984 16.8118 41.9769 17.3333 41.3318 17.3333C33.6125 17.3333 27.3327 23.6135 27.3327 31.3333C27.3327 31.9785 26.8112 32.5 26.1661 32.5Z" fill="black"/>
<path d="M61.1638 38.3333C60.8651 38.3333 60.5665 38.219 60.339 37.9915L55.6727 33.3248C55.2165 32.8687 55.2165 32.1313 55.6727 31.6752C56.1288 31.219 56.8661 31.219 57.3222 31.6752L61.9886 36.3418C62.4447 36.798 62.4447 37.5353 61.9886 37.9915C61.7611 38.219 61.4624 38.3333 61.1638 38.3333Z" fill="black"/>
<path d="M43.665 37.1667C36.4251 37.1667 30.4813 33.6492 30.2317 33.4998C29.6799 33.1685 29.5014 32.4533 29.8315 31.9003C30.1617 31.3497 30.8745 31.1665 31.4309 31.4978C31.4881 31.5328 37.0901 34.8333 43.665 34.8333C50.2399 34.8333 55.8418 31.5328 55.8978 31.499C56.4554 31.1677 57.1671 31.3508 57.4972 31.9015C57.8273 32.4545 57.6489 33.1697 57.0971 33.501C56.8486 33.6492 50.9048 37.1667 43.665 37.1667Z" fill="black"/>
<path d="M26.1661 38.3334C25.8675 38.3334 25.5688 38.2191 25.3413 37.9916C24.8852 37.5354 24.8852 36.7981 25.3413 36.3419L30.0077 31.6753C30.4638 31.2191 31.2011 31.2191 31.6573 31.6753C32.1134 32.1314 32.1134 32.8688 31.6573 33.3249L26.9909 37.9916C26.7634 38.2191 26.4648 38.3334 26.1661 38.3334Z" fill="black"/>
<path d="M38.9974 69.8333C38.7758 69.8333 38.5506 69.7692 38.3511 69.6373L34.8514 67.3063C34.3159 66.9493 34.1701 66.2248 34.5282 65.6882C34.8852 65.1515 35.6073 65.008 36.1463 65.365L39.6461 67.696C40.1815 68.053 40.3273 68.7775 39.9692 69.3142C39.7452 69.6513 39.3742 69.8333 38.9974 69.8333Z" fill="black"/>
<path d="M38.9974 69.8333C38.4748 69.8333 38 69.4798 37.867 68.949C37.7095 68.3237 38.0898 67.6913 38.7163 67.535L43.3826 66.3695C44.0056 66.212 44.6402 66.5912 44.7966 67.2188C44.954 67.8442 44.5737 68.4765 43.9473 68.6328L39.2809 69.7983C39.1864 69.8217 39.0908 69.8333 38.9974 69.8333Z" fill="black"/>
<path d="M48.3325 69.8333C47.9557 69.8333 47.5847 69.6513 47.3607 69.3142C47.0026 68.7775 47.1484 68.053 47.6839 67.696L51.1836 65.365C51.7203 65.008 52.4435 65.1515 52.8017 65.6882C53.1598 66.2248 53.014 66.9493 52.4785 67.3063L48.9788 69.6373C48.7793 69.7692 48.5541 69.8333 48.3325 69.8333Z" fill="black"/>
<path d="M48.3325 69.8333C48.2392 69.8333 48.1435 69.8217 48.049 69.7983L43.3826 68.6328C42.7573 68.4765 42.377 67.8442 42.5334 67.2188C42.6885 66.5947 43.3208 66.212 43.9473 66.3695L48.6136 67.535C49.2389 67.6913 49.6192 68.3237 49.4629 68.949C49.3299 69.4787 48.8551 69.8333 48.3325 69.8333Z" fill="black"/>
<path d="M71.6678 85C62.6617 85 55.3355 77.6722 55.3355 68.6632C55.3355 59.6565 62.6617 52.3287 71.6678 52.3287C80.6738 52.3287 88 59.6565 88 68.6632C88 77.6722 80.6738 85 71.6678 85ZM71.6678 54.662C63.9484 54.662 57.6687 60.9433 57.6687 68.6632C57.6687 76.3842 63.9484 82.6667 71.6678 82.6667C79.3871 82.6667 85.6668 76.3842 85.6668 68.6632C85.6668 60.9433 79.3871 54.662 71.6678 54.662Z" fill="black"/>
<path d="M71.6678 81.5C64.5924 81.5 58.8353 75.7413 58.8353 68.6632C58.8353 61.5862 64.5924 55.8287 71.6678 55.8287C78.7431 55.8287 84.5002 61.5862 84.5002 68.6632C84.5002 75.7413 78.7431 81.5 71.6678 81.5ZM71.6678 58.162C65.878 58.162 61.1684 62.873 61.1684 68.6632C61.1684 74.4545 65.878 79.1667 71.6678 79.1667C77.4575 79.1667 82.1671 74.4545 82.1671 68.6632C82.1671 62.873 77.4575 58.162 71.6678 58.162Z" fill="black"/>
<path d="M71.6678 72.162C69.7382 72.162 68.168 70.5917 68.168 68.662C68.168 66.7323 69.7382 65.1608 71.6678 65.1608C73.5973 65.1608 75.1675 66.7323 75.1675 68.662C75.1675 70.5917 73.5973 72.162 71.6678 72.162ZM71.6678 67.4942C71.0238 67.4942 70.5012 68.018 70.5012 68.662C70.5012 69.306 71.0238 69.8287 71.6678 69.8287C72.3117 69.8287 72.8343 69.306 72.8343 68.662C72.8343 68.018 72.3117 67.4942 71.6678 67.4942Z" fill="black"/>
<path d="M74.0033 81.2538C73.9963 81.2538 73.9881 81.2538 73.9811 81.2538C73.336 81.241 72.8238 80.709 72.8367 80.065C72.9545 73.8642 77.0364 68.5605 82.9942 66.8665C83.616 66.688 84.2588 67.0497 84.4349 67.6692C84.6111 68.2887 84.2517 68.9338 83.6323 69.11C78.6685 70.5217 75.2678 74.941 75.1699 80.1082C75.157 80.7463 74.6379 81.2538 74.0033 81.2538Z" fill="black"/>
<path d="M69.3369 81.2655C68.7023 81.2655 68.182 80.7557 68.1703 80.1198C68.0782 74.9445 64.6775 70.5205 59.7067 69.11C59.0861 68.935 58.7268 68.2898 58.9029 67.6703C59.0779 67.0497 59.7254 66.6868 60.3425 66.8665C66.3096 68.5593 70.3927 73.8688 70.5035 80.079C70.5152 80.723 70.0019 81.255 69.3579 81.2667C69.3509 81.2655 69.3439 81.2655 69.3369 81.2655Z" fill="black"/>
</svg>
