<svg width="55" height="55" viewBox="0 0 55 55" fill="none" xmlns="http://www.w3.org/2000/svg">
<path d="M38.6549 27.8234C38.9706 27.8234 39.2266 27.5853 39.2266 27.2913V26.0967C39.2266 25.8027 38.9706 25.5647 38.6549 25.5647C38.339 25.5647 38.0833 25.8027 38.0833 26.0967V27.2913C38.0833 27.5853 38.339 27.8234 38.6549 27.8234Z" fill="black"/>
<path d="M45.0258 27.9136H43.457C43.0553 26.4499 42.3211 25.0578 41.3176 23.864C40.3068 22.6616 39.0178 21.6533 37.5743 20.9331V17.0722C37.5743 16.7496 37.4248 16.4426 37.164 16.2298C36.9041 16.0175 36.5587 15.9197 36.216 15.9615C33.9668 16.2384 32.1115 17.6616 31.379 19.6346H30.7758C30.785 19.514 30.7898 19.3929 30.7898 19.2707C30.7898 16.5798 28.4381 14.3906 25.5472 14.3906C22.6558 14.3906 20.3035 16.5798 20.3035 19.2707C20.3035 19.6434 20.35 20.0109 20.4387 20.3669C18.35 21.1101 16.5358 22.3735 15.1679 24.0427C14.9765 24.2763 15.0247 24.6102 15.276 24.7884C15.3793 24.8619 15.5011 24.8973 15.622 24.8973C15.7944 24.8973 15.9644 24.8253 16.0773 24.6881C17.3091 23.1848 18.9398 22.0454 20.8175 21.3714C21.0729 21.868 21.4171 22.3239 21.8367 22.7168C21.7768 22.7309 21.7173 22.7459 21.6577 22.7611C21.3534 22.8395 21.1751 23.1324 21.259 23.4159C21.3293 23.6515 21.5592 23.8061 21.8099 23.8061C21.8602 23.8061 21.9117 23.7997 21.9626 23.7867C22.3863 23.6775 22.821 23.5996 23.2546 23.555C23.9069 23.4882 23.5282 23.5085 30.1579 23.5079C30.4738 23.5079 30.7296 23.2699 30.7296 22.9759C30.7296 22.6821 30.4738 22.4438 30.1579 22.4438H29.5347C30.0046 21.9348 30.3547 21.3415 30.5641 20.6986H31.8018C32.0611 20.6986 32.288 20.5363 32.3544 20.3029C32.8553 18.5447 34.4298 17.2548 36.3651 17.0167C36.3714 17.0156 36.3905 17.0137 36.4101 17.0298C36.4241 17.0411 36.431 17.0553 36.431 17.0724V21.257C36.431 21.459 36.5536 21.6436 36.7481 21.7333C39.6452 23.074 41.7747 25.6247 42.4446 28.5568C42.5006 28.8023 42.7338 28.978 43.0038 28.978H45.0258C45.3176 28.978 45.5549 29.1988 45.5549 29.4701V33.408C45.5549 33.679 45.3176 33.8996 45.0258 33.8996H42.8344C42.3967 33.8996 42.0019 34.1424 41.8283 34.5192C41.6583 34.8905 41.4618 35.2569 41.2438 35.6074C41.0854 35.8615 41.1786 36.1871 41.4519 36.3343C41.5422 36.383 41.6407 36.406 41.7378 36.406C41.9352 36.406 42.1272 36.3107 42.2329 36.1406C42.4693 35.7609 42.6828 35.3647 42.8674 34.9637H45.0258C45.948 34.9637 46.6983 34.266 46.6983 33.408V29.4701C46.6983 28.6119 45.948 27.9136 45.0258 27.9136ZM23.3263 22.479C22.1627 21.7791 21.4466 20.5648 21.4466 19.2707C21.4466 17.1667 23.2861 15.455 25.5469 15.455C27.8075 15.455 29.6464 17.1667 29.6464 19.2707C29.6464 19.5268 29.6196 19.7781 29.5675 20.0222C29.5606 20.0455 29.5553 20.0693 29.5517 20.0937C29.3281 21.0486 28.7183 21.8885 27.8238 22.4438C24.2782 22.4549 24.0531 22.4183 23.3263 22.479Z" fill="black"/>
<path d="M40.6899 37.2993C40.4571 37.1011 40.0953 37.1161 39.8824 37.3331C39.365 37.8596 38.7855 38.3356 38.1603 38.7477C38.0141 38.8439 37.9247 38.9982 37.9191 39.1647C37.8789 40.3341 37.7523 41.6365 37.543 43.0353C37.4096 43.9271 36.5819 44.5965 35.6151 44.5965H35.6047C34.6575 44.5918 33.8405 43.9199 33.6865 43.0262C33.5844 42.3406 33.5019 41.6761 33.4409 41.0507C33.4081 40.7201 33.381 40.4001 33.3599 40.0991C33.3376 39.7738 33.3212 39.4554 33.3108 39.1528C33.301 38.8591 33.0339 38.6266 32.7215 38.638C32.4059 38.6471 32.1582 38.8929 32.168 39.1864C32.1787 39.5003 32.1957 39.8303 32.2189 40.1673C32.2279 40.2967 32.238 40.4294 32.2493 40.5647C32.1674 40.5663 32.0858 40.5674 32.0051 40.5674H24.5762C24.1942 40.5674 23.7976 40.5467 23.3968 40.5057C23.2441 40.4899 23.0911 40.5323 22.9722 40.6229C22.8534 40.7132 22.7787 40.8446 22.765 40.987C22.7013 41.6479 22.6158 42.337 22.5113 43.0353C22.3782 43.9254 21.5496 44.5965 20.5837 44.5965C19.6181 44.5965 18.7891 43.9254 18.656 43.0353C18.6537 43.0207 18.6516 43.006 18.6495 42.9913C18.6486 42.986 18.6477 42.9805 18.6471 42.9752C18.6462 42.9702 18.6456 42.9652 18.6447 42.9602C18.5316 42.1929 18.4012 41.1599 18.3267 40.0664C18.1796 37.8585 18.3434 36.53 18.4851 35.8495C18.545 35.561 18.3425 35.282 18.0326 35.226C17.7223 35.1703 17.4225 35.3587 17.3626 35.6472C17.2286 36.2909 17.1578 37.0064 17.1327 37.7518C15.0738 35.8938 13.9096 33.3655 13.9018 30.6601C13.9016 30.6163 13.9018 30.5728 13.9024 30.5291C13.9024 30.5288 13.9024 30.5285 13.9024 30.5282C13.9024 30.5232 13.9024 30.5182 13.9024 30.5133C13.9206 29.1216 14.252 27.7755 14.8892 26.5097C15.0232 26.2434 14.8999 25.9266 14.6141 25.8019C14.3279 25.6775 13.9879 25.7922 13.8539 26.0582C13.2268 27.3041 12.8666 28.6204 12.7793 29.9796C11.1313 30.0039 9.97272 30.3298 9.15718 30.9913C8.33866 31.6569 8.01173 32.6065 8.30442 33.4702C8.74122 34.7588 10.3491 35.1911 11.3251 34.2641C11.6744 33.9325 11.8411 33.4985 11.7828 33.0732C11.7426 32.7816 11.4567 32.576 11.1432 32.6129C10.8299 32.65 10.6084 32.9166 10.6486 33.2081C10.6683 33.3505 10.5572 33.4733 10.5087 33.5193C10.3803 33.6412 10.1984 33.7102 10.0457 33.695C9.74345 33.6648 9.50049 33.4611 9.39508 33.1502C9.23876 32.6891 9.43111 32.1817 9.909 31.7932C10.4983 31.3149 11.4356 31.0689 12.7665 31.0445C12.8916 34.2281 14.4661 37.1607 17.1354 39.175C17.1792 40.4865 17.3281 41.8776 17.5234 43.1819C17.7348 44.5952 19.0506 45.6606 20.5837 45.6606C22.1168 45.6606 23.4323 44.5952 23.6437 43.1819C23.7232 42.6504 23.792 42.1237 23.8488 41.6099C24.0948 41.6243 24.3377 41.6315 24.5762 41.6315H32.0048C32.1195 41.6315 32.2353 41.6299 32.3517 41.6268C32.4065 42.119 32.472 42.6233 32.5473 43.1312C32.5497 43.1478 32.5524 43.1647 32.5554 43.1814V43.1819C32.5563 43.1872 32.5572 43.1925 32.5581 43.1977C32.801 44.599 34.0956 45.6531 35.5984 45.6606C35.6041 45.6606 35.6094 45.6609 35.6151 45.6606C37.1494 45.6606 38.4634 44.5977 38.6754 43.1822C38.8749 41.8488 39.0011 40.5982 39.0514 39.4601C39.6556 39.0414 40.2177 38.5684 40.726 38.0511C40.9392 37.8341 40.9231 37.4977 40.6899 37.2993Z" fill="black"/>
<path d="M25.9417 18.7384H25.1518C24.9788 18.7384 24.8379 18.6073 24.8379 18.4463C24.8379 18.2856 24.9788 18.1545 25.1518 18.1545H26.6635C26.9794 18.1545 27.2352 17.9165 27.2352 17.6225C27.2352 17.3288 26.9794 17.0905 26.6635 17.0905H26.2034V16.8272C26.2034 16.5332 25.9477 16.2952 25.6318 16.2952C25.3161 16.2952 25.0601 16.5332 25.0601 16.8272V17.0932C24.2993 17.1373 23.6946 17.7275 23.6946 18.4466C23.6946 19.1942 24.3481 19.8025 25.1518 19.8025H25.9417C26.1144 19.8025 26.2552 19.9336 26.2552 20.0943C26.2552 20.2553 26.1144 20.3861 25.9417 20.3861H24.4297C24.1141 20.3861 23.858 20.6244 23.858 20.9181C23.858 21.2121 24.1141 21.4502 24.4297 21.4502H25.0601V21.7137C25.0601 22.0074 25.3161 22.2457 25.6318 22.2457C25.9477 22.2457 26.2034 22.0074 26.2034 21.7137V21.4283C26.8823 21.3133 27.3986 20.7588 27.3986 20.0943C27.3986 19.3466 26.7451 18.7384 25.9417 18.7384Z" fill="black"/>
<path d="M15.2316 19.0992C18.1228 19.0992 20.4751 16.9104 20.4751 14.2194C20.4751 11.5287 18.1228 9.33984 15.2316 9.33984C14.1812 9.33984 13.1673 9.62803 12.2997 10.1737C12.038 10.338 11.9692 10.6686 12.146 10.9121C12.3226 11.1557 12.6781 11.2197 12.9398 11.0554C13.6175 10.6292 14.4101 10.4039 15.2316 10.4039C17.4925 10.4039 19.3317 12.1156 19.3317 14.2194C19.3317 16.3235 17.4925 18.0351 15.2316 18.0351C12.9711 18.0351 11.1319 16.3235 11.1319 14.2194C11.1319 13.6092 11.282 13.0265 11.5776 12.4872C11.7211 12.2256 11.6098 11.905 11.3284 11.7714C11.0473 11.6379 10.7031 11.7415 10.5593 12.0034C10.1859 12.684 9.98853 13.4504 9.98853 14.2194C9.98853 16.9104 12.3405 19.0992 15.2316 19.0992Z" fill="black"/>
<path d="M15.3168 11.2444C15.0011 11.2444 14.7451 11.4824 14.7451 11.7764V12.0424C13.9843 12.0865 13.3799 12.6767 13.3799 13.3958C13.3799 14.1435 14.0332 14.7517 14.8368 14.7517H15.6267C15.7994 14.7517 15.9403 14.8825 15.9403 15.0435C15.9403 15.2045 15.7994 15.3353 15.6267 15.3353H14.115C13.7991 15.3353 13.5433 15.5733 13.5433 15.8673C13.5433 16.1613 13.7991 16.3994 14.115 16.3994H14.7454V16.6626C14.7454 16.9566 15.0011 17.1947 15.3171 17.1947C15.6327 17.1947 15.8887 16.9566 15.8887 16.6626V16.3775C16.5673 16.2625 17.0836 15.708 17.0836 15.0435C17.0836 14.2959 16.4301 13.6876 15.6267 13.6876H14.8368C14.6638 13.6876 14.5233 13.5566 14.5233 13.3958C14.5233 13.2348 14.6638 13.104 14.8368 13.104H16.3485C16.6644 13.104 16.9202 12.8657 16.9202 12.572C16.9202 12.278 16.6644 12.04 16.3485 12.04H15.8887V11.7764C15.8884 11.4824 15.6327 11.2444 15.3168 11.2444Z" fill="black"/>
</svg>
