<svg width="100" height="100" viewBox="0 0 100 100" fill="none" xmlns="http://www.w3.org/2000/svg">
<path d="M19.9779 53.2594C15.8875 53.2594 12.5792 56.5551 12.5792 60.6297C12.5792 64.7043 15.8875 68 19.9779 68C24.0682 68 27.3766 64.7043 27.3766 60.6297C27.3616 56.5551 24.0532 53.2594 19.9779 53.2594ZM19.9779 65.3934C17.3161 65.3934 15.1507 63.2363 15.1507 60.5848C15.1507 57.9332 17.3161 55.7761 19.9779 55.7761C22.6396 55.7761 24.8051 57.9332 24.8051 60.5848C24.79 63.2363 22.6396 65.3934 19.9779 65.3934Z" fill="black"/>
<path d="M68.5808 61.4985C63.7085 61.4985 59.8137 61.4985 59.7084 61.4985H36.3543C36.0536 61.4985 33.3317 61.4536 29.7827 61.3937C29.7075 62.3674 29.4819 63.2962 29.1511 64.1501C32.9858 64.21 36.0084 64.2549 36.3543 64.2549H59.7084C59.8137 64.2549 64.0694 64.2549 69.2576 64.2549C68.9117 63.401 68.6711 62.4723 68.5808 61.4985Z" fill="black"/>
<path d="M94.7771 58.3527C94.7019 57.9632 94.6267 57.6037 94.6267 57.349C94.6117 57.0344 94.6267 56.7947 94.6267 56.555C94.6418 56.2405 94.6418 55.9109 94.6117 55.4315C94.4012 51.0273 91.9048 47.8066 87.1829 45.8741C83.3933 44.3311 78.8217 43.8368 75.1525 43.4473C74.6261 43.3874 74.1148 43.3424 73.6336 43.2825C71.032 42.9829 68.7914 41.4699 66.4154 39.852C65.9642 39.5524 65.5131 39.2378 65.0619 38.9382C62.3401 37.1406 58.6557 34.9235 54.3398 33.6951C47.2268 31.6578 39.9634 31.8525 32.5196 32.272C30.4895 32.3769 25.8427 32.9311 22.4892 33.3805C14.6544 34.3992 14.5943 34.4891 14.1882 35.1931C13.9927 35.5227 13.8424 36.0021 13.6318 36.7361C13.5266 37.1106 13.3762 37.59 13.301 37.7698C12.7446 39.0131 12.6393 39.2079 11.9476 40.3314C10.8799 42.0541 10.4137 42.9679 9.10539 46.2336C8.87981 46.7879 8.69936 47.2972 8.53394 47.7766C8.12791 48.9151 7.78204 49.9038 7.04517 50.9824C6.92487 51.1621 6.80456 51.3269 6.68426 51.4767C5.69175 52.765 5 53.9485 5 57.6486C5 58.9669 5.61656 60.6746 6.03762 61.3487C6.86472 62.697 8.75951 63.6707 10.7295 63.8505C10.4137 62.9367 10.2182 61.9629 10.1881 60.9443C9.30088 60.7046 8.62417 60.2402 8.3986 59.8807C8.21814 59.5961 7.78204 58.3826 7.78204 57.6336C7.78204 54.5926 8.24822 53.9784 8.87981 53.1395C9.0302 52.9448 9.18058 52.7501 9.33096 52.5253C10.2633 51.1472 10.6994 49.9487 11.1506 48.6904C11.316 48.226 11.4814 47.7466 11.6919 47.2523C12.9401 44.1663 13.3461 43.3574 14.3236 41.7845C15.0905 40.5561 15.2409 40.2565 15.8575 38.9083C16.0229 38.5487 16.1733 38.0544 16.3236 37.5151C16.3688 37.3803 16.4139 37.2005 16.459 37.0357C19.0906 36.5564 29.3917 35.1931 32.685 35.0134C39.8732 34.6239 46.8809 34.4292 53.5879 36.3466C56.7158 37.2454 59.6934 38.6985 63.5431 41.2452C63.9792 41.5298 64.4153 41.8294 64.8514 42.129C67.3928 43.8667 70.0245 45.6494 73.3178 46.0239C73.8141 46.0838 74.3254 46.1288 74.8667 46.1887C83.6189 47.1175 91.4988 48.5256 91.8447 55.5364C91.8597 55.9109 91.8597 56.1656 91.8447 56.4502C91.8447 56.7049 91.8297 57.0045 91.8447 57.379C91.8597 57.8733 91.95 58.3677 92.0402 58.847C92.1605 59.4462 92.3109 60.2702 92.1154 60.5248C91.559 61.2139 89.7995 61.3188 88.1453 61.3787C88.0701 62.3524 87.8446 63.2962 87.4987 64.165C87.6792 64.165 87.8145 64.165 87.9198 64.1501C90.3559 64.0752 92.8823 63.9853 94.2809 62.2476C95.3034 61.0342 95.0027 59.4912 94.7771 58.3527Z" fill="black"/>
<path d="M78.3405 53.2594C74.2502 53.2594 70.9418 56.5551 70.9418 60.6297C70.9418 64.7043 74.2502 68 78.3405 68C82.4309 68 85.7393 64.7043 85.7393 60.6297C85.7242 56.5551 82.4158 53.2594 78.3405 53.2594ZM78.3405 65.3934C75.6788 65.3934 73.5133 63.2363 73.5133 60.5848C73.5133 57.9332 75.6788 55.7761 78.3405 55.7761C81.0023 55.7761 83.1677 57.9332 83.1677 60.5848C83.1527 63.2363 81.0023 65.3934 78.3405 65.3934Z" fill="black"/>
<path d="M28.4142 38.1443C28.339 38.1592 28.0684 38.2192 27.9932 38.2341C26.3991 38.5637 24.5344 39.2828 23.5118 40.7209C23.2411 41.1104 22.5644 42.1889 22.5043 43.1177C22.4141 44.6907 23.9479 45.1101 25.2262 45.2599C25.4066 45.2749 26.2638 45.3348 27.5721 45.4097C27.8428 45.4247 28.1736 45.2749 28.2187 44.9154C28.2338 44.7955 28.8955 40.5861 29.1812 38.6836C29.2113 38.4738 29.2113 38.324 29.1511 38.2042C29.0308 37.9945 28.5797 38.1143 28.4142 38.1443Z" fill="black"/>
<path d="M41.6477 37.4851C41.5124 37.4851 41.362 37.4702 41.2266 37.4702C37.0611 37.3653 34.0234 37.5451 31.8429 37.7398C31.7527 37.7548 31.6775 37.7548 31.6023 37.7698C31.3467 37.7847 31.0459 37.9945 31.0008 38.309C30.7902 40.0468 30.1737 44.5858 30.1286 44.8704C30.0835 45.2299 30.3541 45.5745 30.7451 45.6045C31.1361 45.6344 33.9783 45.7842 35.0911 45.8441C37.3017 45.979 39.783 46.0988 41.9785 46.2486C42.3244 46.2786 42.6553 45.964 42.6402 45.5745C42.55 43.7169 42.2793 38.4439 42.2643 38.1143C42.2492 37.7248 41.9334 37.4851 41.6477 37.4851Z" fill="black"/>
<path d="M61.3325 43.3874C58.37 41.0954 55.197 39.5824 51.5427 38.6985C49.9036 38.3091 47.6629 37.9495 46.9862 37.8746C46.7005 37.8447 46.5501 37.9495 46.4448 38.0394C46.3095 38.1592 46.2042 38.339 46.2343 38.6236C46.2644 39.0131 46.7305 44.0765 46.911 45.964C46.9561 46.4284 47.3471 46.5632 47.4975 46.5782C47.5877 46.5782 47.7531 46.5932 47.8434 46.6081C50.6555 46.7729 53.3473 46.9227 56.1744 47.0875C58.4151 47.2223 59.7385 47.2972 61.9791 47.4321C62.4152 47.462 63.8438 47.6418 64.2799 47.2972C65.4379 46.3385 62.0242 43.9416 61.3325 43.3874Z" fill="black"/>
</svg>
