<svg width="100" height="100" viewBox="0 0 100 100" fill="none" xmlns="http://www.w3.org/2000/svg">
<path d="M70.8398 41.6488C70.5776 41.1172 70.0362 40.7806 69.4432 40.7806H53.1461L60.1284 26.3467C60.5027 25.5733 60.1785 24.6431 59.4042 24.2693C58.6297 23.895 57.6991 24.2193 57.325 24.993L49.2626 41.6594C49.0293 42.1414 49.0606 42.7095 49.3455 43.1631C49.6303 43.6167 50.1285 43.8919 50.6644 43.8919H66.2827L41.1625 76.5419L49.0679 51.3958C49.2165 50.9233 49.131 50.4083 48.8377 50.0091C48.5444 49.6098 48.0784 49.374 47.5826 49.374H32.7129L43.0806 18.1111H60.6544L60.1959 19.0593C59.8216 19.8327 60.1459 20.7629 60.9202 21.1367C61.6942 21.5106 62.6253 21.1867 62.9993 20.4131L64.5379 17.2325C64.7713 16.7505 64.7399 16.1824 64.4551 15.7288C64.1703 15.2752 63.6721 15 63.1361 15H41.9563C41.2852 15 40.6894 15.4297 40.4783 16.0663L29.079 50.4403C28.9218 50.9144 29.002 51.4352 29.2947 51.8402C29.5874 52.2453 30.0569 52.4851 30.557 52.4851H45.4618L35.561 83.9782C35.3347 84.6979 35.6579 85.4761 36.3276 85.8241C36.556 85.9427 36.8022 86 37.0454 86C37.5162 86 37.9773 85.7866 38.2806 85.3923L70.6775 43.2842C71.0389 42.8144 71.1018 42.1804 70.8398 41.6488Z" fill="black"/>
</svg>
