<svg width="100" height="100" viewBox="0 0 100 100" fill="none" xmlns="http://www.w3.org/2000/svg">
<path d="M77.3427 52.9908C81.4563 52.9908 84.7835 56.3465 84.7835 60.4954C84.7835 64.6443 81.4563 68 77.3427 68C73.229 68 69.9018 64.6443 69.9018 60.4954C69.9018 56.3465 73.229 52.9908 77.3427 52.9908ZM77.3427 65.3459C80.0196 65.3459 82.1974 63.1495 82.1974 60.4496C82.1974 57.7498 80.0196 55.5533 77.3427 55.5533C74.6658 55.5533 72.488 57.7498 72.488 60.4496C72.488 63.1647 74.6658 65.3459 77.3427 65.3459Z" fill="black"/>
<path d="M28.4477 61.3801C33.3478 61.3801 37.2648 61.3801 37.3707 61.3801H60.8729C61.1754 61.3801 63.9128 61.3343 67.482 61.2733C67.5576 62.2648 67.7845 63.2105 68.1172 64.0799C64.2606 64.1409 61.2208 64.1867 60.8729 64.1867H37.3858C37.2799 64.1867 32.9999 64.1867 27.7822 64.1867C28.1301 63.3172 28.3569 62.3715 28.4477 61.3801Z" fill="black"/>
<path d="M18.6475 52.9908C22.7612 52.9908 26.0884 56.3465 26.0884 60.4954C26.0884 64.6443 22.7612 68 18.6475 68C14.5339 68 11.2067 64.6443 11.2067 60.4954C11.2067 56.3465 14.5339 52.9908 18.6475 52.9908ZM18.6475 65.3459C21.3244 65.3459 23.5023 63.1495 23.5023 60.4496C23.5023 57.7498 21.3244 55.5533 18.6475 55.5533C15.9707 55.5533 13.7928 57.7498 13.7928 60.4496C13.7928 63.1647 15.9707 65.3459 18.6475 65.3459Z" fill="black"/>
<path d="M68.4651 30.9041C68.8432 31.1329 69.2061 31.4227 69.5237 31.804C70.8244 33.3141 73.5618 37.2647 73.9852 37.9816C74.8775 39.4459 74.1969 40.3001 73.0627 40.3764C71.7167 40.4679 70.2345 40.4831 68.8734 40.4831C68.7978 40.4831 68.6465 40.4831 68.4499 40.4831V30.9041H68.4651Z" fill="black"/>
<path d="M55.0049 30.3549C55.1713 30.2024 55.383 30.1261 55.5796 30.1261C60.026 30.1261 64.6539 30.1414 65.2588 30.1414C65.5764 30.1414 65.894 30.1566 66.2116 30.1871V40.4831C63.7616 40.4831 59.905 40.4831 55.5796 40.4984C55.4738 40.4984 55.2318 40.4679 55.0352 40.3001C54.8688 40.1628 54.7478 39.934 54.7478 39.6442C54.7478 37.2799 54.7478 31.3311 54.7478 30.9651C54.7478 30.7363 54.8386 30.5075 55.0049 30.3549Z" fill="black"/>
<path d="M10.0724 43.9304C10.0724 43.1219 10.7227 42.4813 11.5091 42.4813H33.2721L17.2864 19.4488V30.0499L19.7213 31.682C21.6722 32.9938 22.2016 35.6631 20.9009 37.646C20.1145 38.8358 18.7836 39.5679 17.3469 39.5527H14.3221C11.9628 39.5527 10.0572 37.6308 10.0572 35.2512V33.7259H12.9459V35.2512C12.9459 36.0139 13.5659 36.6393 14.3221 36.6393H17.3469C18.103 36.6393 18.7231 36.0139 18.7231 35.2512C18.7231 34.7936 18.4963 34.3513 18.103 34.092L15.0329 32.0328C14.6246 31.7582 14.3977 31.3159 14.3977 30.8278V13.378C14.428 10.9375 16.4092 8.96984 18.829 9.00035C20.1145 9.0156 21.3395 9.59523 22.1562 10.6019L43.6924 36.8833L48.1841 27.8229V43.9304H10.0724ZM17.5586 14.7508L36.796 42.466H40.9247L41.5902 41.139L42.2859 39.7357L19.9481 12.4628C19.4188 11.8222 18.4811 11.7307 17.8308 12.2646C17.483 12.5544 17.2864 12.9815 17.2864 13.4238V13.8814C17.2864 14.2017 17.3922 14.5068 17.5586 14.7508Z" fill="black"/>
<path d="M0 63.6528H7.41062V60.6022H3.02474V45.4557H51.2543V27.1365C51.2543 26.8009 51.2996 26.2213 51.587 25.9772C51.8895 25.7179 52.5247 25.7789 52.6003 25.7942L52.7515 25.8247H65.8033C68.0718 25.8095 69.5086 25.901 70.5219 27.6246L70.5975 27.7466L70.6882 27.8534C71.9889 29.333 73.1232 30.9193 74.2121 32.4751C77.4334 37.0206 80.7606 41.7034 87.8385 41.7034C89.6382 41.7034 90.9691 42.161 91.9068 43.1067C94.0695 45.3031 94.009 49.9706 93.9788 54.0738C93.9788 54.6382 93.9636 55.2025 93.9636 55.7364C93.9636 58.9396 93.2982 59.748 93.1318 59.9005L93.0864 59.8853H87.2336V62.9359H92.6932C93.1621 63.0122 94.009 63.0275 94.8862 62.3868C96.2927 61.3496 96.9732 59.1836 96.9732 55.7516C96.9732 55.2178 96.9733 54.6687 96.9884 54.1195C97.0337 49.4215 97.0942 44.0829 94.0544 40.9865C92.542 39.4459 90.4549 38.668 87.8385 38.668C82.3184 38.668 79.823 35.1597 76.6772 30.7058C75.5581 29.1347 74.4087 27.5026 73.0475 25.9467C71.0966 22.7588 68.0416 22.774 65.8033 22.774H53.0237C52.4793 22.6978 50.9215 22.591 49.6814 23.613C49.0311 24.1621 48.2446 25.1993 48.2446 27.1212V42.405H0.0151293V63.6528H0Z" fill="black"/>
</svg>
