<svg width="100" height="100" viewBox="0 0 100 100" fill="none" xmlns="http://www.w3.org/2000/svg">
<path d="M76.4016 23.6081C74.8957 22.1024 73.108 20.9079 71.1404 20.093C69.1728 19.2781 67.064 18.8587 64.9343 18.8587C62.8046 18.8587 60.6958 19.2781 58.7282 20.093C56.7607 20.9079 54.9729 22.1024 53.467 23.6081C53.0507 24.0259 52.6574 24.4659 52.2887 24.9262C52.1282 24.9992 51.9879 25.1101 51.88 25.2495L20.739 66.0523C19.3606 67.869 18.6854 70.1226 18.8375 72.3977C18.9897 74.6729 19.959 76.8164 21.567 78.4335C21.7697 78.636 21.9826 78.8281 22.2048 79.0091C23.847 80.3698 25.9012 81.1352 28.0335 81.1807C30.1658 81.2263 32.2508 80.5495 33.9496 79.2602L74.7612 48.1268C74.9007 48.0189 75.0119 47.8787 75.0851 47.7182C75.5453 47.3491 75.9854 46.9556 76.4035 46.5394C77.9094 45.0339 79.104 43.2465 79.9191 41.2793C80.7341 39.3121 81.1536 37.2037 81.1536 35.0744C81.1536 32.9451 80.7341 30.8367 79.9191 28.8695C79.104 26.9023 77.9094 25.1149 76.4035 23.6093L76.4016 23.6081ZM31.8666 76.88C30.7139 78.0299 29.1543 78.6793 27.526 78.6873C25.8977 78.6953 24.3318 78.0613 23.1679 76.9226C23.1528 76.9076 23.1359 76.895 23.1208 76.8793C23.1057 76.8636 23.1026 76.858 23.0925 76.8479C22.2355 75.9786 21.6551 74.8749 21.4245 73.6762C21.1939 72.4775 21.3235 71.2374 21.7968 70.1121C22.2702 68.9869 23.0662 68.027 24.0844 67.3535C25.1026 66.6799 26.2974 66.3229 27.5183 66.3273C28.7392 66.3318 29.9314 66.6975 30.9447 67.3785C31.958 68.0595 32.7469 69.0252 33.212 70.1538C33.6772 71.2824 33.7977 72.5235 33.5583 73.7205C33.319 74.9175 32.7306 76.0168 31.8672 76.88H31.8666ZM35.3414 75.4363C35.9052 73.9314 36.0238 72.2961 35.6829 70.7256C35.342 69.1552 34.556 67.7162 33.4189 66.5804C32.2819 65.4447 30.8418 64.6603 29.2708 64.321C27.6998 63.9817 26.0643 64.1018 24.5597 64.667L48.8854 32.793C48.5573 35.0916 48.727 37.4339 49.3831 39.6612C50.0392 41.8885 51.1663 43.9488 52.6882 45.7026C54.2101 47.4564 56.0911 48.8627 58.2039 49.8264C60.3168 50.79 62.612 51.2884 64.9343 51.2879C65.6929 51.2871 66.4506 51.2338 67.2019 51.1284L35.3414 75.4363ZM74.8484 44.9834C72.5549 47.2764 69.5372 48.7033 66.3094 49.0211C63.0816 49.3389 59.8435 48.5279 57.1467 46.7262C54.4499 44.9245 52.4614 42.2436 51.5199 39.1404C50.5785 36.0372 50.7423 32.7035 51.9835 29.7075C53.2247 26.7115 55.4666 24.2385 58.327 22.7099C61.1874 21.1812 64.4895 20.6915 67.6706 21.3241C70.8517 21.9568 73.7149 23.6726 75.7725 26.1794C77.8302 28.6862 78.9548 31.8287 78.9548 35.0716C78.9597 36.9131 78.5994 38.7373 77.8945 40.4387C77.1896 42.14 76.1543 43.6847 74.8484 44.9834Z" fill="black"/>
<path d="M69.7576 30.2509C68.8037 29.2971 67.5883 28.6475 66.2652 28.3843C64.942 28.1212 63.5706 28.2562 62.3242 28.7724C61.0778 29.2885 60.0125 30.1627 59.2629 31.2842C58.5134 32.4057 58.1134 33.7243 58.1134 35.0731C58.1134 36.422 58.5134 37.7405 59.2629 38.862C60.0125 39.9836 61.0778 40.8577 62.3242 41.3738C63.5706 41.89 64.942 42.025 66.2652 41.7619C67.5883 41.4987 68.8037 40.8491 69.7576 39.8953C70.3965 39.2652 70.9038 38.5144 71.25 37.6865C71.5962 36.8587 71.7745 35.9704 71.7745 35.0731C71.7745 34.1758 71.5962 33.2875 71.25 32.4597C70.9038 31.6319 70.3965 30.8811 69.7576 30.2509ZM68.2064 38.3424C67.5596 38.9886 66.7357 39.4285 65.8389 39.6065C64.9421 39.7846 64.0126 39.6928 63.168 39.3428C62.3233 38.9928 61.6014 38.4003 61.0935 37.6401C60.5857 36.88 60.3146 35.9863 60.3146 35.0722C60.3146 34.158 60.5857 33.2644 61.0935 32.5042C61.6014 31.7441 62.3233 31.1515 63.168 30.8015C64.0126 30.4515 64.9421 30.3597 65.8389 30.5378C66.7357 30.7159 67.5596 31.1558 68.2064 31.8019C68.6397 32.2292 68.9839 32.7383 69.2188 33.2997C69.4536 33.8611 69.5746 34.4636 69.5746 35.0722C69.5746 35.6807 69.4536 36.2832 69.2188 36.8446C68.9839 37.406 68.6397 37.9151 68.2064 38.3424Z" fill="black"/>
<path d="M64.9343 32.2413C64.2793 32.2413 63.6445 32.4684 63.1381 32.8839C62.6317 33.2993 62.2851 33.8775 62.1573 34.5198C62.0295 35.1622 62.1284 35.829 62.4372 36.4066C62.746 36.9842 63.2455 37.4369 63.8507 37.6875C64.4559 37.9382 65.1292 37.9713 65.7561 37.7812C66.3829 37.5911 66.9245 37.1895 67.2884 36.645C67.6523 36.1004 67.8162 35.4465 67.752 34.7948C67.6878 34.143 67.3995 33.5336 66.9363 33.0705C66.674 32.8068 66.362 32.5977 66.0184 32.4554C65.6747 32.313 65.3063 32.2403 64.9343 32.2413Z" fill="black"/>
<path d="M57.5452 29.4267C57.8896 29.4267 58.2263 29.3245 58.5127 29.1332C58.7991 28.9419 59.0224 28.67 59.1543 28.3518C59.2862 28.0337 59.3208 27.6836 59.2537 27.3458C59.1867 27.008 59.021 26.6977 58.7775 26.454C58.575 26.2511 58.3255 26.1013 58.0511 26.0178C57.7768 25.9344 57.4861 25.92 57.2048 25.9758C56.9236 26.0315 56.6604 26.1559 56.4387 26.3377C56.217 26.5195 56.0436 26.7532 55.9339 27.0181C55.8242 27.283 55.7815 27.5709 55.8097 27.8562C55.8379 28.1415 55.9361 28.4154 56.0955 28.6537C56.2549 28.892 56.4707 29.0873 56.7237 29.2222C56.9767 29.3572 57.2591 29.4276 57.5458 29.4274L57.5452 29.4267Z" fill="black"/>
<path d="M64.9343 26.3674C65.279 26.3674 65.616 26.2652 65.9026 26.0737C66.1892 25.8822 66.4126 25.61 66.5445 25.2916C66.6763 24.9732 66.7108 24.6228 66.6435 24.2847C66.5762 23.9467 66.4102 23.6363 66.1664 23.3926C65.9226 23.1489 65.612 22.983 65.2739 22.9159C64.9358 22.8487 64.5854 22.8833 64.2669 23.0153C63.9485 23.1473 63.6764 23.3707 63.485 23.6573C63.2935 23.9439 63.1914 24.2809 63.1916 24.6255C63.1922 25.0874 63.3761 25.5302 63.7028 25.8567C64.0295 26.1832 64.4724 26.3669 64.9343 26.3674Z" fill="black"/>
<path d="M72.3234 29.4267C72.7266 29.4278 73.1176 29.2891 73.4299 29.0342C73.7421 28.7793 73.9563 28.424 74.0359 28.0289C74.1155 27.6337 74.0556 27.2233 73.8664 26.8673C73.6772 26.5114 73.3704 26.2322 72.9983 26.0771C72.6262 25.9221 72.2118 25.9008 71.8258 26.0171C71.4398 26.1333 71.106 26.3797 70.8814 26.7144C70.6568 27.0492 70.5553 27.4514 70.5941 27.8526C70.6329 28.2538 70.8096 28.6291 71.0942 28.9146C71.2553 29.0766 71.4468 29.2052 71.6578 29.2931C71.8687 29.381 72.0949 29.4264 72.3234 29.4267Z" fill="black"/>
<path d="M75.3845 33.3316C75.04 33.3317 74.7033 33.434 74.4168 33.6255C74.1304 33.8169 73.9072 34.089 73.7755 34.4073C73.6437 34.7256 73.6093 35.0758 73.6766 35.4136C73.7439 35.7515 73.9099 36.0618 74.1535 36.3053C74.3972 36.5489 74.7076 36.7147 75.0455 36.7818C75.3835 36.849 75.7337 36.8145 76.052 36.6826C76.3703 36.5508 76.6423 36.3275 76.8337 36.0411C77.0251 35.7546 77.1273 35.4179 77.1273 35.0734C77.1266 34.6116 76.9428 34.1688 76.6161 33.8423C76.2894 33.5157 75.8465 33.3321 75.3845 33.3316Z" fill="black"/>
<path d="M71.0942 41.2298C70.8506 41.4734 70.6847 41.7838 70.6176 42.1217C70.5504 42.4595 70.5849 42.8097 70.7168 43.128C70.8487 43.4462 71.0719 43.7182 71.3584 43.9096C71.6449 44.101 71.9817 44.2031 72.3263 44.2031C72.6708 44.2031 73.0076 44.101 73.2941 43.9096C73.5806 43.7182 73.8038 43.4462 73.9357 43.128C74.0676 42.8097 74.1021 42.4595 74.0349 42.1217C73.9678 41.7838 73.8019 41.4734 73.5583 41.2298C73.2312 40.9036 72.7882 40.7205 72.3263 40.7205C71.8643 40.7205 71.4213 40.9036 71.0942 41.2298Z" fill="black"/>
<path d="M64.9343 43.7795C64.5898 43.7796 64.253 43.8819 63.9666 44.0733C63.6802 44.2648 63.457 44.5369 63.3252 44.8552C63.1935 45.1735 63.1591 45.5237 63.2264 45.8615C63.2937 46.1993 63.4596 46.5097 63.7033 46.7532C63.947 46.9967 64.2574 47.1626 64.5953 47.2297C64.9332 47.2969 65.2835 47.2623 65.6018 47.1305C65.9201 46.9986 66.1921 46.7754 66.3835 46.4889C66.5749 46.2025 66.6771 45.8658 66.6771 45.5213C66.6764 45.0594 66.4925 44.6167 66.1658 44.2902C65.8391 43.9636 65.3963 43.78 64.9343 43.7795Z" fill="black"/>
<path d="M56.3135 41.2292C56.0699 41.4729 55.9041 41.7833 55.837 42.1212C55.7699 42.4591 55.8044 42.8094 55.9363 43.1276C56.0682 43.4459 56.2915 43.718 56.578 43.9094C56.8644 44.1008 57.2012 44.203 57.5458 44.2032C57.8324 44.2031 58.1146 44.1325 58.3673 43.9974C58.6201 43.8623 58.8356 43.667 58.9948 43.4287C59.154 43.1905 59.252 42.9166 59.2801 42.6315C59.3082 42.3463 59.2655 42.0586 59.1558 41.7939C59.0461 41.5291 58.8729 41.2955 58.6513 41.1138C58.4298 40.932 58.1668 40.8076 57.8857 40.7517C57.6047 40.6958 57.3141 40.7101 57.0399 40.7932C56.7656 40.8764 56.5161 41.0259 56.3135 41.2285V41.2292Z" fill="black"/>
<path d="M54.4847 33.3316C54.1402 33.3317 53.8034 33.434 53.517 33.6255C53.2306 33.8169 53.0074 34.089 52.8756 34.4073C52.7439 34.7256 52.7095 35.0758 52.7767 35.4136C52.844 35.7515 53.01 36.0618 53.2537 36.3053C53.4973 36.5489 53.8078 36.7147 54.1457 36.7818C54.4836 36.849 54.8339 36.8145 55.1521 36.6826C55.4704 36.5508 55.7425 36.3275 55.9339 36.0411C56.1253 35.7546 56.2274 35.4179 56.2274 35.0734C56.2268 34.6116 56.0429 34.1688 55.7162 33.8423C55.3895 33.5157 54.9466 33.3321 54.4847 33.3316Z" fill="black"/>
<path d="M29.3604 70.6414C28.9913 70.2722 28.5209 70.0207 28.0088 69.9188C27.4967 69.8169 26.9658 69.8692 26.4834 70.0689C26.001 70.2687 25.5887 70.607 25.2986 71.041C25.0085 71.4751 24.8536 71.9854 24.8536 72.5075C24.8536 73.0295 25.0085 73.5399 25.2986 73.9739C25.5887 74.408 26.001 74.7463 26.4834 74.9461C26.9658 75.1458 27.4967 75.198 28.0088 75.0961C28.5209 74.9942 28.9913 74.7428 29.3604 74.3736C29.6077 74.1298 29.8041 73.8393 29.9382 73.5189C30.0722 73.1985 30.1413 72.8547 30.1413 72.5075C30.1413 72.1602 30.0722 71.8164 29.9382 71.4961C29.8041 71.1757 29.6077 70.8852 29.3604 70.6414Z" fill="black"/>
<path d="M79.1017 20.9084C77.0722 18.8752 74.6309 17.2999 71.9419 16.2886C69.2528 15.2772 66.3784 14.8531 63.5118 15.0449C60.6452 15.2367 57.8529 16.0398 55.3226 17.4003C52.7922 18.7609 50.5826 20.6473 48.8421 22.9327L17.7036 63.7374C15.7637 66.2872 14.814 69.4535 15.0302 72.6497C15.2465 75.846 16.6142 78.8556 18.8798 81.1208C21.1455 83.3861 24.1555 84.7535 27.3523 84.9698C30.5491 85.186 33.716 84.2364 36.2661 82.2969L77.0777 51.1636C77.7986 50.6138 78.482 50.0164 79.1231 49.3753C82.8904 45.595 85.004 40.4749 85 35.1384C84.996 29.8018 82.8747 24.6849 79.1017 20.9103V20.9084ZM77.5699 47.8199C76.9981 48.3915 76.3886 48.9241 75.7455 49.4142L34.9333 80.55C32.8062 82.1675 30.1648 82.9593 27.4985 82.7788C24.8321 82.5983 22.3216 81.4577 20.4319 79.5684C18.5422 77.679 17.4015 75.1689 17.2209 72.503C17.0404 69.8371 17.8324 67.1962 19.4501 65.0694L50.5886 24.264C51.0788 23.6213 51.6115 23.0121 52.1832 22.4406C55.5493 19.0751 60.1146 17.1844 64.875 17.1844C69.6353 17.1844 74.2007 19.0751 77.5668 22.4406C80.9328 25.8061 82.8239 30.3707 82.8239 35.1302C82.8239 39.8898 80.9328 44.4544 77.5668 47.8199H77.5699Z" fill="black"/>
</svg>
