<svg width="100" height="100" viewBox="0 0 100 100" fill="none" xmlns="http://www.w3.org/2000/svg">
<path d="M82.1059 63.9449C85.4321 63.9449 88.1223 66.6401 88.1223 69.9724C88.1223 73.3047 85.4321 76 82.1059 76C78.7798 76 76.0895 73.3047 76.0895 69.9724C76.0895 66.6401 78.7798 63.9449 82.1059 63.9449ZM82.1059 73.8683C84.2704 73.8683 86.0313 72.1041 86.0313 69.9357C86.0313 67.7672 84.2704 66.0031 82.1059 66.0031C79.9415 66.0031 78.1806 67.7672 78.1806 69.9357C78.1806 72.1164 79.9415 73.8683 82.1059 73.8683Z" fill="black"/>
<path d="M45.017 70.6831C48.979 70.6831 49.7005 70.6831 49.7861 70.6831H68.7891C69.0337 70.6831 71.247 70.6463 74.1329 70.5973C74.1941 71.3936 74.3775 72.1532 74.6465 72.8515C71.5283 72.9005 69.0704 72.9373 68.7891 72.9373H49.7983C49.7127 72.9373 48.6978 72.9373 44.479 72.9373C44.7602 72.239 44.9437 71.4794 45.017 70.6831Z" fill="black"/>
<path d="M37.0074 63.9449C40.3336 63.9449 43.0238 66.6401 43.0238 69.9724C43.0238 73.3047 40.3336 76 37.0074 76C33.6813 76 30.991 73.3047 30.991 69.9724C30.991 66.6401 33.6935 63.9449 37.0074 63.9449ZM37.0074 73.8683C39.1719 73.8683 40.9328 72.1041 40.9328 69.9357C40.9328 67.7672 39.1719 66.0031 37.0074 66.0031C34.843 66.0031 33.0821 67.7672 33.0821 69.9357C33.0821 72.1164 34.843 73.8683 37.0074 73.8683Z" fill="black"/>
<path d="M21.2328 63.9449C24.5589 63.9449 27.2492 66.6401 27.2492 69.9724C27.2492 73.3047 24.5589 76 21.2328 76C17.9066 76 15.2164 73.3047 15.2164 69.9724C15.2164 66.6401 17.9066 63.9449 21.2328 63.9449ZM21.2328 73.8683C23.3972 73.8683 25.1581 72.1041 25.1581 69.9357C25.1581 67.7672 23.3972 66.0031 21.2328 66.0031C19.0683 66.0031 17.3074 67.7672 17.3074 69.9357C17.3074 72.1164 19.0683 73.8683 21.2328 73.8683Z" fill="black"/>
<path d="M74.9277 46.2052C75.2334 46.389 75.5269 46.6218 75.7837 46.9281C76.8354 48.1409 79.0487 51.314 79.3911 51.8898C80.1126 53.0659 79.5623 53.7519 78.6452 53.8132C77.5568 53.8867 76.3585 53.899 75.2579 53.899C75.1967 53.899 75.0745 53.899 74.9155 53.899V46.2052H74.9277Z" fill="black"/>
<path d="M64.0445 45.7642C64.1791 45.6417 64.3503 45.5804 64.5092 45.5804C68.1044 45.5804 71.8463 45.5927 72.3354 45.5927C72.5922 45.5927 72.849 45.6049 73.1058 45.6294V53.899C71.1248 53.899 68.0066 53.899 64.5092 53.9112C64.4236 53.9112 64.228 53.8867 64.069 53.7519C63.9345 53.6417 63.8367 53.4579 63.8367 53.2251C63.8367 51.3262 63.8367 46.5483 63.8367 46.2542C63.8367 46.0705 63.91 45.8867 64.0445 45.7642Z" fill="black"/>
<path d="M58.5661 43.1792C58.5661 41.6355 59.202 40.7902 59.7278 40.3614C60.7305 39.5406 61.9901 39.6263 62.4303 39.6876H72.7633C74.5731 39.6876 77.0433 39.6753 78.6208 42.2358C79.7213 43.4854 80.6629 44.7963 81.5556 46.0582C84.1113 49.6233 86.1168 52.4533 90.5802 52.4533C92.6957 52.4533 94.3832 53.0781 95.6061 54.3155C98.0762 56.7902 98.0273 61.0781 97.9906 64.8637C97.9906 65.317 97.9784 65.7458 97.9784 66.1746C97.9784 68.9311 97.4281 70.6707 96.2909 71.5038C95.5816 72.0184 94.8846 72.0061 94.5177 71.9449H90.091V69.4946H94.8357L94.8724 69.5069C95.0069 69.3844 95.5449 68.7351 95.5449 66.1623C95.5449 65.7335 95.5449 65.2802 95.5572 64.8269C95.5938 61.5191 95.6305 57.7825 93.8819 56.0184C93.1359 55.2588 92.0598 54.8913 90.5924 54.8913C84.8695 54.8913 82.1792 51.1179 79.5746 47.4793C78.6941 46.2419 77.777 44.9556 76.7253 43.7672L76.652 43.6814L76.5908 43.5834C75.7715 42.1991 74.6098 42.1256 72.7756 42.1378H62.2224L62.1001 42.1133C62.0267 42.1011 61.5254 42.052 61.2808 42.2603C61.0485 42.4441 61.0118 42.9219 61.0118 43.1914V70.683H58.5661V43.1792Z" fill="black"/>
<path d="M3 73.0107H13.3575V70.5605H5.44569V32.7902C5.44569 31.4916 6.49734 30.4502 7.78133 30.4502H58.5294V43.657H60.9751V30.536C60.9996 30.2052 60.9996 29.4334 60.4615 28.7963C60.1558 28.4288 59.5688 28 58.5539 28H7.78133C5.13998 28 3 30.1562 3 32.7902V73.0107ZM58.5539 30.2665V30.291V30.2787C58.5539 30.291 58.5539 30.2665 58.5539 30.2665Z" fill="black"/>
</svg>
