<svg width="32" height="32" viewBox="0 0 32 32" fill="none" xmlns="http://www.w3.org/2000/svg">
<rect width="32" height="32" rx="10" fill="white"/>
<path fill-rule="evenodd" clip-rule="evenodd" d="M19.5092 7.20142H12.6758C9.64175 7.20142 7.18494 9.62816 7.18494 12.6251V19.375C7.18494 22.3719 9.64175 24.7987 12.6758 24.7987H19.5092C22.5432 24.7987 25.0001 22.3719 25.0001 19.375V12.6251C24.9867 9.62816 22.5299 7.20142 19.5092 7.20142ZM23.2817 18.7384C23.2817 21.1519 21.2947 23.1145 18.8514 23.1145H13.3337C10.8903 23.1145 8.90342 21.1519 8.90342 18.7384V13.2882C8.90342 10.8747 10.8903 8.91207 13.3337 8.91207H18.8514C21.2947 8.91207 23.2817 10.8747 23.2817 13.2882V18.7384ZM16.3273 11.4049C13.7362 11.4049 11.6284 13.4737 11.6284 16.033C11.6284 18.5923 13.7227 20.6611 16.3273 20.6611C18.9183 20.6611 21.0126 18.5791 21.0126 16.033C21.0126 13.4737 18.9183 11.4049 16.3273 11.4049ZM16.3273 18.8177C14.7699 18.8177 13.508 17.5712 13.508 16.033C13.508 14.4947 14.7699 13.2482 16.3273 13.2482C17.8845 13.2482 19.1465 14.4947 19.1465 16.033C19.1465 17.5712 17.8845 18.8177 16.3273 18.8177ZM20.6905 12.5054C21.3484 12.5054 21.8853 11.975 21.8853 11.3252C21.8853 10.6754 21.3484 10.1449 20.6905 10.1449C20.0327 10.1449 19.4957 10.6754 19.4957 11.3252C19.4957 11.975 20.0327 12.5054 20.6905 12.5054Z" fill="black"/>
</svg>
