<svg width="100" height="100" viewBox="0 0 100 100" fill="none" xmlns="http://www.w3.org/2000/svg">
<path d="M24.3602 57.8607C20.4895 57.8607 17.3588 60.9914 17.3588 64.8621C17.3588 68.7328 20.4895 71.8635 24.3602 71.8635C28.2309 71.8635 31.3616 68.7328 31.3616 64.8621C31.3616 60.9914 28.2309 57.8607 24.3602 57.8607ZM24.3602 69.3874C21.8414 69.3874 19.7922 67.3382 19.7922 64.8194C19.7922 62.3006 21.8414 60.2514 24.3602 60.2514C26.879 60.2514 28.9282 62.3006 28.9282 64.8194C28.9282 67.3525 26.879 69.3874 24.3602 69.3874Z" fill="black"/>
<path d="M70.3673 65.7015C65.7566 65.7015 62.0709 65.7015 61.9713 65.7015H39.8713C39.5867 65.7015 37.011 65.6588 33.6526 65.6019C33.5815 66.5269 33.368 67.4092 33.0549 68.2203C36.6837 68.2773 39.544 68.32 39.8713 68.32H61.9713C62.0709 68.32 66.0981 68.32 71.0077 68.32C70.6661 67.5088 70.4527 66.6265 70.3673 65.7015Z" fill="black"/>
<path d="M79.5886 57.8607C75.7179 57.8607 72.5872 60.9914 72.5872 64.8621C72.5872 68.7328 75.7179 71.8635 79.5886 71.8635C83.4593 71.8635 86.59 68.7328 86.59 64.8621C86.59 60.9914 83.4593 57.8607 79.5886 57.8607ZM79.5886 69.3874C77.0698 69.3874 75.0206 67.3382 75.0206 64.8194C75.0206 62.3006 77.0698 60.2514 79.5886 60.2514C82.1074 60.2514 84.1566 62.3006 84.1566 64.8194C84.1566 67.3525 82.1074 69.3874 79.5886 69.3874Z" fill="black"/>
<path d="M14.5411 38.3221C14.1853 38.5355 13.8438 38.8059 13.545 39.1617C12.3212 40.5705 9.74543 44.2562 9.34698 44.925C8.50738 46.2912 9.14775 47.0881 10.215 47.1592C11.4816 47.2446 12.8761 47.2588 14.1569 47.2588C14.228 47.2588 14.3703 47.2588 14.5553 47.2588V38.3221H14.5411Z" fill="black"/>
<path d="M27.2063 37.8099C27.0497 37.6676 26.8505 37.5964 26.6655 37.5964C22.4818 37.5964 18.1272 37.6107 17.558 37.6107C17.2592 37.6107 16.9603 37.6249 16.6615 37.6534V47.2589C18.9668 47.2589 22.5956 47.2589 26.6655 47.2732C26.7651 47.2732 26.9928 47.2447 27.1778 47.0882C27.3344 46.9601 27.4482 46.7466 27.4482 46.4763C27.4482 44.2705 27.4482 38.7206 27.4482 38.3791C27.4482 38.1657 27.3628 37.9522 27.2063 37.8099Z" fill="black"/>
<path d="M65.0879 38.3221C65.4437 38.5355 65.7852 38.8059 66.0841 39.1617C67.3079 40.5705 69.8836 44.2562 70.2821 44.925C71.1217 46.2912 70.4813 47.0881 69.414 47.1592C68.1475 47.2446 66.7529 47.2588 65.4722 47.2588C65.401 47.2588 65.2587 47.2588 65.0737 47.2588V38.3221H65.0879Z" fill="black"/>
<path d="M52.4228 37.8099C52.5793 37.6676 52.7785 37.5964 52.9635 37.5964C57.1473 37.5964 61.5018 37.6107 62.071 37.6107C62.3699 37.6107 62.6687 37.6249 62.9675 37.6534V47.2589C60.6622 47.2589 57.0334 47.2589 52.9635 47.2732C52.8639 47.2732 52.6362 47.2447 52.4512 47.0882C52.2947 46.9601 52.1808 46.7466 52.1808 46.4763C52.1808 44.2705 52.1808 38.7206 52.1808 38.3791C52.1808 38.1657 52.2662 37.9522 52.4228 37.8099Z" fill="black"/>
<path d="M40.1988 37.8099C40.0423 37.6676 39.8431 37.5964 39.6581 37.5964C35.4743 37.5964 31.1198 37.6107 30.5505 37.6107C30.5505 37.6107 30.5505 37.6107 30.5363 37.6107C30.0382 37.6107 29.654 38.0233 29.654 38.5072V46.3624C29.654 46.8605 30.0525 47.2589 30.5505 47.2589C32.8416 47.2589 36.072 47.2589 39.6581 47.2732C39.7577 47.2732 39.9854 47.2447 40.1704 47.0882C40.3269 46.9601 40.4407 46.7466 40.4407 46.4763C40.4407 44.2705 40.4407 38.7206 40.4407 38.3791C40.4407 38.1657 40.3411 37.9522 40.1988 37.8099Z" fill="black"/>
<path d="M92.0547 66.4132C91.3859 66.4132 90.9021 66.2993 90.8025 66.2709L91.514 63.5101H91.4998C91.514 63.5101 92.5813 63.7378 93.2359 63.2255C93.8478 62.7417 93.9901 61.6602 93.9901 60.849C93.9901 60.0094 94.0328 59.1271 94.0755 58.2733C94.3459 52.8657 94.1609 49.4931 89.2229 48.2124C88.3264 47.9847 87.4868 47.7712 86.6756 47.572C80.528 46.0493 76.4581 45.039 71.9755 39.4321C68.0906 34.5653 65.3868 34.5795 55.3685 34.6222C54.3724 34.6222 53.3051 34.6365 52.1667 34.6365H8.47905C7.99521 34.6649 5.81796 34.978 5.81796 38.251V63.0832C5.97449 63.2113 6.55794 63.5671 8.23714 63.5671H13.2747V66.4132H8.25137C3.12839 66.4132 2.98608 63.6382 2.98608 63.3109V38.251C2.98608 35.0491 4.45183 33.4553 5.67565 32.6869C6.98486 31.8615 8.27983 31.8046 8.42213 31.8046H52.1667C53.3051 31.8046 54.3582 31.8046 55.3543 31.7904C65.6145 31.7477 69.4567 31.7334 74.1955 37.6676C78.0662 42.5202 81.3677 43.3313 87.3587 44.8255C88.1841 45.0247 89.0237 45.2382 89.9344 45.4801C97.4766 47.4439 97.1493 53.7907 96.9073 58.4441C96.8647 59.2979 96.822 60.1091 96.822 60.8775C96.822 62.9978 96.1958 64.549 94.9578 65.5166C93.9901 66.2424 92.8801 66.4132 92.0547 66.4132Z" fill="black"/>
</svg>
