<svg width="100" height="100" viewBox="0 0 100 100" fill="none" xmlns="http://www.w3.org/2000/svg">
<path d="M85.5139 42.3203C86.0983 41.4112 85.836 40.2007 84.9277 39.615L81.3673 37.3192C80.846 36.983 80.1981 36.9077 79.6135 37.1156L58.1331 44.7522C57.5739 44.951 56.9552 44.8912 56.4444 44.5888L53.3647 42.7659C53.0563 42.5833 52.7044 42.487 52.346 42.487H42.596C42.1992 42.487 41.8775 42.1653 41.8775 41.7685C41.8775 41.3717 42.1992 41.05 42.596 41.05H44.648C45.7291 41.05 46.6055 40.1736 46.6055 39.0925C46.6055 38.0114 45.7291 37.135 44.648 37.135H35.187C34.1059 37.135 33.2295 38.0114 33.2295 39.0925C33.2295 40.1736 34.1059 41.05 35.187 41.05H37.242C37.6388 41.05 37.9605 41.3717 37.9605 41.7685C37.9605 42.1653 37.6388 42.487 37.242 42.487H26.1904C25.84 42.487 25.4957 42.3949 25.192 42.22L18.9035 38.5973C18.106 38.1379 17.098 38.282 16.4612 38.9465L12.556 43.0217C11.8711 43.7363 11.8121 44.8445 12.4171 45.6279L24.4743 61.2396C24.4915 61.2618 24.5235 61.2658 24.5456 61.2484C24.5788 61.2223 24.6275 61.246 24.6275 61.2882V62.6535C24.6275 63.0475 24.947 63.367 25.3411 63.367H52.3434C52.7991 63.367 53.2411 63.2114 53.5964 62.9258L79.2923 42.2716C79.9636 41.732 80.9049 41.6828 81.6288 42.1494L82.8051 42.9075C83.7152 43.4941 84.9285 43.2311 85.5139 42.3203ZM17.3219 45.5722C16.8625 44.9773 16.9077 44.1357 17.4283 43.5935C17.9118 43.0899 18.6765 42.9811 19.2813 43.3298L23.6236 45.8338C24.2429 46.1909 24.6245 46.8515 24.6245 47.5664V55.029L17.3219 45.5722ZM52.2154 59.0108C51.8602 59.2963 51.4181 59.452 50.9623 59.452H30.5445C29.4399 59.452 28.5445 58.5566 28.5445 57.452V48.401C28.5445 47.2964 29.4399 46.401 30.5445 46.401H51.2744C51.6332 46.401 51.9854 46.4975 52.294 46.6804L56.0282 48.8932C56.5391 49.1959 57.1581 49.256 57.7176 49.0571L70.0515 44.673L52.2154 59.0108ZM88.4465 52.096C88.4465 53.715 87.1335 55.03 85.5125 55.03C83.8885 55.03 82.5745 53.718 82.5745 52.096C82.5745 51.3425 83.2062 49.8325 83.8837 48.4295C84.5571 47.035 86.4667 47.0357 87.1393 48.4306C87.8158 49.8337 88.4465 51.3435 88.4465 52.096Z" fill="black"/>
</svg>
