<svg width="24" height="24" viewBox="0 0 24 24" fill="none" xmlns="http://www.w3.org/2000/svg">
<g clip-path="url(#clip0)">
<path d="M12.0001 11.7376C14.6685 11.7376 16.8318 9.11006 16.8318 5.86882C16.8318 2.62752 16.1216 0 12.0001 0C7.87861 0 7.16821 2.62752 7.16821 5.86882C7.16821 9.11006 9.33157 11.7376 12.0001 11.7376Z" fill="black"/>
<path d="M2.87375 20.6985C2.87293 20.5008 2.87211 20.6428 2.87375 20.6985V20.6985Z" fill="black"/>
<path d="M21.1257 20.8529C21.1283 20.7988 21.1266 20.4775 21.1257 20.8529V20.8529Z" fill="black"/>
<path d="M21.1156 20.4616C21.0261 14.8153 20.2887 13.2064 14.6458 12.188C14.6458 12.188 13.8514 13.2002 12 13.2002C10.1486 13.2002 9.35412 12.188 9.35412 12.188C3.77275 13.1953 2.99049 14.7803 2.88763 20.2782C2.8792 20.7271 2.87529 20.7507 2.87378 20.6986C2.87412 20.7962 2.87453 20.9769 2.87453 21.2918C2.87453 21.2918 4.21798 24.0001 12 24.0001C19.7819 24.0001 21.1255 21.2918 21.1255 21.2918C21.1255 21.0895 21.1256 20.9488 21.1259 20.853C21.1243 20.8853 21.1213 20.8228 21.1156 20.4616Z" fill="black"/>
</g>
<defs>
<clipPath id="clip0">
<rect width="24" height="24" fill="white"/>
</clipPath>
</defs>
</svg>
