<svg width="100" height="100" viewBox="0 0 100 100" fill="none" xmlns="http://www.w3.org/2000/svg">
<path d="M75.1001 65.3267C76.1511 63.241 76.7097 60.9463 76.7097 58.5877C76.7097 55.112 76.3055 51.6339 75.5101 48.2511L72.8763 37.0586C72.2561 34.4213 69.9324 32.5806 67.2243 32.5806H66.2279C65.1665 31.179 63.5012 30.2581 61.6129 30.2581H58.129V27.9355H59.2903C61.2111 27.9355 62.7742 26.3724 62.7742 24.4516V17.4839C62.7742 15.5631 61.2111 14 59.2903 14H40.7097C38.7889 14 37.2258 15.5631 37.2258 17.4839V24.4516C37.2258 26.3724 38.7889 27.9355 40.7097 27.9355H41.871V30.2581H38.3871C36.4977 30.2581 34.8324 31.179 33.7721 32.5806H32.7757C30.0676 32.5806 27.7439 34.4213 27.1237 37.0563L24.4899 48.2499C23.6945 51.6328 23.2903 55.1108 23.2903 58.5877C23.2903 60.9463 23.8489 63.2422 24.8999 65.3267C21.3324 66.2139 18.6452 69.5852 18.6452 73.5184V76.5215C18.6452 77.5412 18.8089 78.5492 19.1317 79.5188C20.4243 83.3952 24.0382 86 28.1236 86H71.8764C75.963 86 79.5757 83.3952 80.8694 79.5177C81.1911 78.5492 81.3548 77.5412 81.3548 76.5215V73.5184C81.3548 69.5852 78.6676 66.2139 75.1001 65.3267ZM39.5484 24.4516V17.4839C39.5484 16.8428 40.0686 16.3226 40.7097 16.3226H59.2903C59.9314 16.3226 60.4516 16.8428 60.4516 17.4839V24.4516C60.4516 25.0926 59.9314 25.6129 59.2903 25.6129H40.7097C40.0686 25.6129 39.5484 25.0926 39.5484 24.4516ZM44.1935 27.9355H55.8064V30.2581H44.1935V27.9355ZM26.751 48.7818L29.3848 37.5881C29.7506 36.0332 31.107 34.945 32.6968 34.909C32.6213 35.283 32.5806 35.6697 32.5806 36.0645V41.871H34.9032V36.0645C34.9032 34.1437 36.4663 32.5806 38.3871 32.5806H61.6129C63.5337 32.5806 65.0968 34.1437 65.0968 36.0645V41.871H67.4194V36.0645C67.4194 35.6697 67.3787 35.283 67.3021 34.9102C68.893 34.9462 70.2483 36.0343 70.6141 37.5905L73.2479 48.7841C74.0027 51.9928 74.3859 55.292 74.3859 58.5877C74.3859 60.9057 73.7495 63.1539 72.5557 65.1293C70.6849 65.2837 68.9325 66.0618 67.5634 67.3915C66.1988 68.7154 65.365 70.4271 65.1525 72.2852C63.9692 71.5977 62.7161 71.0379 61.4132 70.6245C60.7861 66.4659 60.4516 62.2388 60.4516 58.0326V34.9032H58.129V58.0326C58.129 62.0368 58.4263 66.0583 58.9814 70.0264C57.9351 69.843 56.8725 69.7419 55.8064 69.7419H44.1935C43.1275 69.7419 42.0649 69.843 41.0186 70.0264C41.5737 66.0583 41.871 62.0368 41.871 58.0326V34.9032H39.5484V58.0326C39.5484 62.2388 39.2139 66.4659 38.5845 70.6245C37.2815 71.0379 36.0285 71.5977 34.8452 72.2852C34.6326 70.4271 33.7988 68.7142 32.4343 67.3915C31.064 66.063 29.3325 65.2942 27.4454 65.1339C26.2493 63.1563 25.6129 60.9068 25.6129 58.5877C25.6129 55.2908 25.9961 51.9916 26.751 48.7818ZM79.0323 76.5215C79.0323 77.2915 78.9092 78.0533 78.6665 78.7837C77.6898 81.7113 74.9608 83.6774 71.8764 83.6774H28.1236C25.0392 83.6774 22.3102 81.7113 21.3347 78.7849C21.0908 78.0533 20.9677 77.2915 20.9677 76.5215V73.5184C20.9677 70.2506 23.4924 67.5157 26.5954 67.4228C28.177 67.3706 29.6809 67.9559 30.8178 69.0579C31.9547 70.1612 32.5806 71.6418 32.5806 73.2258V75.5484C32.5806 78.7501 35.1854 81.3548 38.3871 81.3548H40.7097V79.0323H38.3871C36.4663 79.0323 34.9032 77.4692 34.9032 75.5484V74.9956C37.616 73.1085 40.8874 72.0645 44.1935 72.0645H55.8064C59.1126 72.0645 62.384 73.1085 65.0968 74.9956V75.5484C65.0968 77.4692 63.5337 79.0323 61.6129 79.0323H59.2903V81.3548H61.6129C64.8146 81.3548 67.4194 78.7501 67.4194 75.5484V73.2258C67.4194 71.6418 68.0453 70.1612 69.1834 69.0579C70.3203 67.9559 71.8299 67.3729 73.4058 67.4228C76.5076 67.5157 79.0323 70.2506 79.0323 73.5184V76.5215Z" fill="black"/>
<path d="M84.8387 19.8065C82.2769 19.8065 80.1936 17.7231 80.1936 15.1613C80.1936 14.5191 79.6744 14 79.0323 14C78.3901 14 77.871 14.5191 77.871 15.1613C77.871 17.7231 75.7876 19.8065 73.2258 19.8065C72.5836 19.8065 72.0645 20.3255 72.0645 20.9677C72.0645 21.6099 72.5836 22.129 73.2258 22.129C75.7876 22.129 77.871 24.2124 77.871 26.7742C77.871 27.4164 78.3901 27.9355 79.0323 27.9355C79.6744 27.9355 80.1936 27.4164 80.1936 26.7742C80.1936 24.2124 82.2769 22.129 84.8387 22.129C85.4809 22.129 86 21.6099 86 20.9677C86 20.3255 85.4809 19.8065 84.8387 19.8065ZM79.0323 22.9268C78.5166 22.1511 77.8489 21.4834 77.0732 20.9677C77.8489 20.4521 78.5166 19.7844 79.0323 19.0086C79.5479 19.7844 80.2156 20.4521 80.9914 20.9677C80.2156 21.4834 79.5479 22.1511 79.0323 22.9268Z" fill="black"/>
<path d="M20.9677 38.3871C21.6099 38.3871 22.129 37.868 22.129 37.2258C22.129 34.664 24.2124 32.5806 26.7742 32.5806C27.4164 32.5806 27.9355 32.0615 27.9355 31.4194C27.9355 30.7772 27.4164 30.2581 26.7742 30.2581C24.2124 30.2581 22.129 28.1747 22.129 25.6129C22.129 24.9707 21.6099 24.4516 20.9677 24.4516C20.3255 24.4516 19.8065 24.9707 19.8065 25.6129C19.8065 28.1747 17.7231 30.2581 15.1613 30.2581C14.5191 30.2581 14 30.7772 14 31.4194C14 32.0615 14.5191 32.5806 15.1613 32.5806C17.7231 32.5806 19.8065 34.664 19.8065 37.2258C19.8065 37.868 20.3255 38.3871 20.9677 38.3871ZM20.9677 29.4603C21.4834 30.236 22.1511 30.9037 22.9268 31.4194C22.1511 31.935 21.4834 32.6027 20.9677 33.3785C20.4521 32.6027 19.7844 31.935 19.0086 31.4194C19.7844 30.9037 20.4521 30.236 20.9677 29.4603Z" fill="black"/>
</svg>
