<svg width="100" height="100" viewBox="0 0 100 100" fill="none" xmlns="http://www.w3.org/2000/svg">
<path d="M20.7815 53.482C16.8344 53.482 13.6418 56.7279 13.6418 60.741C13.6418 64.7541 16.8344 68 20.7815 68C24.7287 68 27.9212 64.7541 27.9212 60.741C27.9212 56.7279 24.7287 53.482 20.7815 53.482ZM20.7815 65.4328C18.213 65.4328 16.1233 63.3082 16.1233 60.6967C16.1233 58.0852 18.213 55.9607 20.7815 55.9607C23.3501 55.9607 25.4398 58.0852 25.4398 60.6967C25.4398 63.323 23.3501 65.4328 20.7815 65.4328Z" fill="black"/>
<path d="M79.8003 53.482C75.8532 53.482 72.6606 56.7279 72.6606 60.741C72.6606 64.7541 75.8532 68 79.8003 68C83.7475 68 86.94 64.7541 86.94 60.741C86.9255 56.7279 83.733 53.482 79.8003 53.482ZM79.8003 65.4328C77.2318 65.4328 75.1421 63.3082 75.1421 60.6967C75.1421 58.0852 77.2318 55.9607 79.8003 55.9607C82.3689 55.9607 84.4585 58.0852 84.4585 60.6967C84.444 63.323 82.3689 65.4328 79.8003 65.4328Z" fill="black"/>
<path d="M65.4628 44.7771C64.2293 43.7443 62.7637 42.4311 61.3996 41.5902C58.8455 40.0115 56.8284 38.8164 53.0699 38.0492C51.8945 37.8131 50.5884 37.6213 49.1372 37.4738C49.0212 37.459 48.8035 37.5033 48.6584 37.6508C48.5132 37.7836 48.4407 38.0049 48.4552 38.1525C48.4842 38.4033 48.9486 43.582 49.0792 45.1459C49.0937 45.2639 49.1663 45.441 49.2969 45.559C49.4275 45.6771 49.5871 45.7066 49.6597 45.7213C53.0989 45.9279 56.4366 46.1344 59.8758 46.341C61.5592 46.4443 63.3006 46.6951 64.9839 46.6508C66.6818 46.5918 66.4206 45.559 65.4628 44.7771Z" fill="black"/>
<path d="M43.5793 37.2525C40.764 37.2377 38.1374 37.2377 35.3222 37.6213C33.5518 37.8574 31.999 38.2262 30.3012 38.7869C28.4727 39.3918 27.5875 41.0443 27.007 42.8443C26.5717 44.1721 28.3856 44.3492 30.2721 44.5115C33.218 44.777 36.1784 44.8656 39.1387 45.0426C40.6625 45.1311 43.2891 45.2934 43.5067 45.3082C43.8985 45.3377 44.1743 44.9984 44.1743 44.6738C44.1743 44.3934 44.1743 39.4361 44.1743 37.8869C44.1743 37.7541 44.1307 37.577 43.9711 37.4148C43.8405 37.2967 43.6518 37.2525 43.5793 37.2525Z" fill="black"/>
<path d="M65.6515 61.2721L34.1322 60.741C33.8855 60.741 32.4053 60.6525 30.2866 60.5344C30.2866 60.5934 30.2866 60.6672 30.2866 60.7262C30.2866 61.5967 30.1705 62.4377 29.9529 63.2344C32.3618 63.3672 34.0161 63.4557 34.0742 63.4557L65.5934 63.9869C65.8982 63.9869 68.0314 64.0016 70.9047 64.0016C70.5999 63.1459 70.4113 62.2164 70.3532 61.2721C67.7847 61.2869 65.9127 61.2869 65.6515 61.2721Z" fill="black"/>
<path d="M96.3 53.5262C96.1404 53.2164 95.9953 52.9803 95.8792 52.8033C95.7196 52.5525 95.647 52.4344 95.5599 52.1689L95.4729 51.8738C95.3278 51.3721 95.1391 50.7377 94.9214 50.2656C94.37 49.1148 93.7025 48.3328 92.5996 47.5508C91.221 46.577 89.2184 45.4705 84.6907 44.5557C82.7897 44.1721 81.4837 43.9361 80.1051 43.7C78.6974 43.4492 77.2318 43.1836 75.0405 42.741L74.9389 42.7262C73.4152 42.4164 72.8492 42.3131 71.6303 41.5459C70.4984 40.8377 68.9166 39.8049 67.5235 38.8902C66.972 38.5213 66.4496 38.182 65.9997 37.8869L65.4048 37.4885C62.4009 35.5262 60.4128 34.2279 55.8271 33.1361C52.562 32.3541 48.8905 32 44.3049 32C40.1691 32 37.1797 32.0295 33.4502 32.3984C30.1125 32.723 26.2379 33.8738 21.9425 35.8066C20.5348 36.441 19.1707 37.1492 17.8357 37.8426L17.1246 38.2115C15.775 38.9197 14.6141 39.3918 13.0033 39.6279L9.50599 40.1443C9.3899 40.159 9.28831 40.1738 9.17222 40.1885C8.46115 40.2623 6.96646 40.4098 6.42953 41.9443C6.22636 42.5197 6.18283 43.1098 6.1538 43.641C6.13929 43.8328 6.12478 44.0246 6.11027 44.2016C6.05222 44.6443 5.96515 45.3672 5.86357 46.1639C5.70394 47.4475 5.51529 49.0557 5.42822 49.5869C5.35566 50 5.12348 50.4574 4.87678 50.959C4.74618 51.2246 4.60106 51.5049 4.48497 51.7852C3.41111 54.3082 4.13669 58.882 6.50209 60.4164C7.66302 61.1689 9.08515 61.759 10.4057 62.0541C10.5073 62.0836 10.8701 62.1131 11.436 62.1574C11.378 61.7 11.3345 61.2426 11.3345 60.7705C11.3345 60.3131 11.3635 59.8705 11.4215 59.4279C11.1748 59.4131 11.0152 59.3984 10.9281 59.3836C9.94134 59.1623 8.82395 58.6902 7.95325 58.1295C6.8939 57.4361 6.31343 54.3967 6.95194 52.8918C7.03901 52.6852 7.15511 52.4492 7.2712 52.2131C7.59046 51.5934 7.93873 50.8852 8.08385 50.059C8.18543 49.4541 8.37408 47.9492 8.54822 46.5033C8.63529 45.7213 8.72237 45.0131 8.78041 44.5705C8.80944 44.3344 8.82395 44.0836 8.85297 43.8475C8.86748 43.5525 8.8965 43.2131 8.95455 42.9918C9.08515 42.9623 9.31734 42.9328 9.46245 42.918C9.62208 42.9033 9.7672 42.8885 9.92683 42.859L13.4241 42.3426C15.3832 42.0475 16.8198 41.4574 18.3726 40.6607L19.0837 40.2918C20.3752 39.6279 21.7103 38.9197 23.0453 38.3295C27.0796 36.5148 30.6785 35.4525 33.7259 35.1426C37.3393 34.7885 40.2706 34.759 44.3194 34.759C48.7019 34.759 52.1702 35.0984 55.2321 35.8213C59.3679 36.8098 61.1093 37.9311 63.9681 39.8197L64.5776 40.218C65.0275 40.5131 65.5499 40.8525 66.1013 41.2066C67.509 42.1213 69.0907 43.1689 70.2517 43.8918C71.877 44.9098 72.8347 45.1016 74.4455 45.4115L74.5471 45.4262C76.7674 45.8689 78.2476 46.1344 79.6697 46.3852C81.0338 46.6361 82.3398 46.8574 84.1973 47.241C88.2316 48.0525 89.9439 48.9967 91.0904 49.7934C91.8159 50.3098 92.1787 50.723 92.527 51.4607C92.6576 51.7262 92.8027 52.2574 92.9188 52.641C92.9478 52.759 92.9769 52.8623 93.0059 52.9656C93.1945 53.5852 93.4267 53.9541 93.6154 54.2787C93.717 54.441 93.804 54.5738 93.8911 54.7656C94.1088 55.2082 94.4426 56.4918 94.2394 60.0623C94.1959 60.8 92.7157 61.1246 92.5415 61.1689C91.6708 61.3459 90.6695 61.3607 89.7843 61.3607C89.7698 61.3607 89.5811 61.3607 89.2619 61.3607C89.2038 62.3197 89.0152 63.2344 88.6959 64.0902C89.3635 64.0902 89.7553 64.0902 89.7843 64.0902C90.8001 64.0902 91.9611 64.0754 93.0785 63.8393C95.3858 63.3672 96.8225 62.0098 96.924 60.2098C97.1272 56.9049 96.924 54.7803 96.3 53.5262Z" fill="black"/>
</svg>
