<svg width="271" height="30" viewBox="0 0 271 30" fill="none" xmlns="http://www.w3.org/2000/svg">
<path d="M8.0539 17.9691C4.8335 16.7291 2.41859 17.0475 1.60082 19.491C1.18419 21.5249 1.15415 24.7729 6.61869 26.0546C8.1201 26.6328 9.58849 26.9073 10.7883 26.9059L10.7811 26.9247C10.7811 26.9247 13.8478 27.0066 15.7872 27.0961L15.8234 27.0669C16.1134 27.0924 16.338 27.0281 16.3959 26.8779C16.4464 26.7466 16.3411 26.5659 16.156 26.3977L16.0943 26.2985C14.5956 25.0643 15.4894 22.6075 15.4894 22.6075L13.9062 21.8105C13.0171 21.0049 9.55531 18.5472 8.0539 17.9691Z" fill="black" fill-opacity="0.2"/>
<path d="M26.9404 10.792C26.9404 4.85438 22.0337 0 15.9605 0C9.88741 0 4.94043 4.85438 4.94043 10.792C4.94043 13.5602 6.02635 16.0877 7.75579 18.0134H7.67535C7.67535 18.0134 11.7777 22.9881 14.2311 26.1575L14.392 26.1976C14.7137 26.6791 15.2768 27 15.9203 27C16.4834 27 17.0062 26.7192 17.3682 26.318L17.6498 26.1575C20.1031 22.9881 24.2055 18.0134 24.2055 18.0134H24.1251C25.8545 16.0877 26.9404 13.5602 26.9404 10.792ZM15.9605 17.3715C12.3408 17.3715 9.40478 14.4428 9.40478 10.8321C9.40478 7.2214 12.3408 4.29272 15.9605 4.29272C19.5803 4.29272 22.4761 7.2214 22.4761 10.8321C22.4761 14.4428 19.5401 17.3715 15.9605 17.3715Z" fill="white"/>
<path d="M48.0985 4.49175V11.4712L54.1623 4.49175H58.2213L51.2418 12.1147L58.5925 21H54.3355L48.4698 13.5997L48.0985 13.971V21H44.881V4.49175H48.0985ZM60.1701 10.2832H63.1896V16.8915L68.1396 10.2832H71.1591V21H68.1396V14.3917L63.1896 21H60.1701V10.2832ZM81.7662 17.5597L84.5382 18.0052C84.4227 18.3022 84.266 18.5992 84.068 18.8962C83.8865 19.1767 83.5977 19.5315 83.2017 19.9605C82.8057 20.373 82.2695 20.7112 81.593 20.9752C80.9165 21.2228 80.141 21.3465 79.2665 21.3465C77.5835 21.3465 76.214 20.8432 75.158 19.8367C74.036 18.7807 73.475 17.3865 73.475 15.654C73.475 13.938 74.0195 12.5355 75.1085 11.4465C76.1315 10.44 77.4762 9.93675 79.1427 9.93675C80.9577 9.93675 82.352 10.5225 83.3255 11.694C84.1835 12.717 84.6125 14.1195 84.6125 15.9015V16.149H76.5935C76.5935 16.875 76.7667 17.4772 77.1132 17.9557C77.6082 18.6322 78.326 18.9705 79.2665 18.9705C80.3885 18.9705 81.2217 18.5002 81.7662 17.5597ZM76.6925 14.2185H81.7662C81.6507 13.5255 81.3455 12.9975 80.8505 12.6345C80.372 12.255 79.8275 12.0652 79.217 12.0652C78.623 12.0652 78.0785 12.255 77.5835 12.6345C77.105 13.014 76.808 13.542 76.6925 14.2185ZM86.9504 10.2832H91.6776C92.8161 10.2832 93.6659 10.4977 94.2269 10.9267C94.9199 11.4547 95.2664 12.156 95.2664 13.0305C95.2664 13.4925 95.1344 13.9297 94.8704 14.3422C94.6229 14.7382 94.2599 15.0352 93.7814 15.2332C94.3094 15.3322 94.7796 15.5632 95.1921 15.9262C95.7366 16.4212 96.0089 17.0895 96.0089 17.931C96.0089 18.9375 95.6294 19.7295 94.8704 20.307C94.2434 20.769 93.4431 21 92.4696 21H86.9504V10.2832ZM89.9699 14.5402H91.3559C91.6694 14.5402 91.9334 14.4742 92.1479 14.3422C92.4119 14.1772 92.5439 13.9297 92.5439 13.5997C92.5439 13.2532 92.4284 12.9975 92.1974 12.8325C92.0324 12.717 91.7354 12.6592 91.3064 12.6592H89.9699V14.5402ZM89.9699 18.624H91.3806C91.8921 18.624 92.2634 18.5332 92.4944 18.3517C92.7584 18.1537 92.8904 17.865 92.8904 17.4855C92.8904 17.139 92.7584 16.8832 92.4944 16.7182C92.2634 16.5532 91.9169 16.4707 91.4549 16.4707H89.9699V18.624Z" fill="black"/>
</svg>
