<svg width="55" height="55" viewBox="0 0 55 55" fill="none" xmlns="http://www.w3.org/2000/svg">
<path d="M44.7962 41.5488L43.1244 38.409L42.7402 33.878C42.7333 33.795 42.7093 33.7143 42.6696 33.6411L40.6505 29.8496C40.4775 29.5606 40.2538 29.3053 39.9902 29.0959C39.8705 28.9955 39.74 28.9088 39.6011 28.8375V11.5437C39.6001 10.7301 39.2765 9.9502 38.7012 9.37494C38.126 8.79968 37.346 8.47607 36.5325 8.4751H20.5759C19.7624 8.47607 18.9824 8.79968 18.4072 9.37494C17.8319 9.9502 17.5083 10.7301 17.5073 11.5437V43.4568C17.5083 44.2704 17.8319 45.0503 18.4072 45.6256C18.9824 46.2008 19.7624 46.5244 20.5759 46.5254H36.5325C36.9917 46.5243 37.4449 46.4201 37.8585 46.2205C38.2721 46.0209 38.6356 45.731 38.9223 45.3722L44.5427 42.3785C44.6863 42.3021 44.7936 42.1717 44.8412 42.0161C44.8887 41.8605 44.8725 41.6925 44.7962 41.5488ZM31.8572 9.70253L31.2435 10.93H25.8649L25.2512 9.70253H31.8572ZM20.5759 45.298C20.0876 45.298 19.6193 45.104 19.274 44.7587C18.9287 44.4134 18.7348 43.9451 18.7348 43.4568V11.5437C18.7348 11.0554 18.9287 10.5871 19.274 10.2418C19.6193 9.8965 20.0876 9.70253 20.5759 9.70253H23.8789L24.9363 11.818C24.9873 11.92 25.0657 12.0058 25.1627 12.0658C25.2598 12.1257 25.3716 12.1574 25.4856 12.1574H31.6228C31.7373 12.158 31.8498 12.1266 31.9474 12.0666C32.045 12.0066 32.1239 11.9205 32.1751 11.818L33.2295 9.70253H36.5325C37.0208 9.70253 37.4891 9.8965 37.8344 10.2418C38.1796 10.5871 38.3736 11.0554 38.3736 11.5437V28.9762L38.1607 29.0898L37.8716 28.5473C37.7185 28.2601 37.4576 28.0455 37.1463 27.9507C36.835 27.8559 36.4987 27.8886 36.2115 28.0416L35.1283 28.6184C35.0517 28.4749 34.9213 28.3676 34.7656 28.3202C34.6099 28.2732 34.4419 28.2893 34.2979 28.365L33.4639 28.8093V27.1406L33.6437 27.3204C33.7595 27.4322 33.9145 27.4941 34.0754 27.4927C34.2363 27.4913 34.3903 27.4267 34.504 27.313C34.6178 27.1992 34.6824 27.0452 34.6838 26.8843C34.6852 26.7234 34.6233 26.5684 34.5115 26.4526L28.9537 21.511C28.8426 21.4159 28.7011 21.3637 28.5548 21.3637C28.4085 21.3637 28.2671 21.4159 28.1559 21.511L22.5981 26.4526C22.5395 26.5093 22.4927 26.577 22.4606 26.6519C22.4284 26.7267 22.4115 26.8073 22.4108 26.8888C22.41 26.9702 22.4256 27.0511 22.4564 27.1265C22.4873 27.2019 22.5329 27.2704 22.5905 27.328C22.6481 27.3857 22.7166 27.4312 22.7921 27.4621C22.8675 27.493 22.9483 27.5085 23.0298 27.5078C23.1113 27.5071 23.1918 27.4901 23.2667 27.458C23.3415 27.4258 23.4093 27.3791 23.4659 27.3204L23.6445 27.1406V31.1825C23.6445 31.3453 23.7091 31.5014 23.8242 31.6165C23.9393 31.7316 24.0954 31.7963 24.2582 31.7963H29.8675L31.4423 34.7531L30.901 35.0422C30.6146 35.1952 30.4005 35.4555 30.3056 35.7661C30.2107 36.0767 30.2427 36.4122 30.3947 36.6992L31.837 39.4075C31.8872 39.5019 31.9613 39.5814 32.0518 39.6383L36.1023 42.1889L37.5752 44.9568C37.2707 45.1745 36.9068 45.2935 36.5325 45.298H20.5759ZM28.5573 29.3365L29.2133 30.5688H24.8719V25.9414L28.5542 22.7851L32.2365 25.9414V28.4116L31.8069 27.6058C31.6538 27.3186 31.393 27.1039 31.0817 27.0089C30.7704 26.914 30.4341 26.9465 30.1468 27.0995L29.063 27.6764C28.7758 27.8295 28.5612 28.0904 28.4664 28.4017C28.3716 28.713 28.4043 29.0493 28.5573 29.3365ZM38.5492 44.1804L37.1069 41.4721C37.0569 41.3776 36.9828 41.298 36.8921 41.2413L32.8416 38.6901L31.4761 36.1254L32.5587 35.5485C32.7023 35.472 32.8096 35.3417 32.8572 35.1861C32.9047 35.0305 32.8885 34.8624 32.8121 34.7188L29.6386 28.7602L30.7218 28.1827L33.8953 34.1406C33.9319 34.2141 33.9827 34.2795 34.0449 34.3329C34.1071 34.3864 34.1794 34.4268 34.2575 34.4519C34.3356 34.4769 34.418 34.4861 34.4997 34.4787C34.5814 34.4714 34.6608 34.4478 34.7332 34.4093C34.8056 34.3708 34.8695 34.3181 34.9213 34.2545C34.973 34.1908 35.0114 34.1174 35.0343 34.0386C35.0572 33.9599 35.064 33.8773 35.0544 33.7959C35.0449 33.7144 35.0191 33.6357 34.9786 33.5644L33.4639 30.7161V30.2006L34.3335 29.7372L36.0642 32.9869C36.0999 33.0617 36.1503 33.1286 36.2126 33.1835C36.2748 33.2383 36.3475 33.2799 36.4263 33.3059C36.505 33.3318 36.5883 33.3416 36.6709 33.3344C36.7535 33.3273 36.8339 33.3036 36.907 33.2645C36.9802 33.2255 37.0448 33.1721 37.0967 33.1074C37.1487 33.0428 37.187 32.9682 37.2093 32.8884C37.2317 32.8085 37.2376 32.7249 37.2267 32.6427C37.2159 32.5605 37.1885 32.4813 37.1462 32.41L35.7034 29.701L36.7866 29.1235L37.3635 30.2073C37.4176 30.3018 37.4963 30.3798 37.5911 30.4332C37.5823 30.5424 37.6035 30.6519 37.6525 30.7499L38.2294 31.8331C38.2674 31.9042 38.319 31.9672 38.3813 32.0183C38.4435 32.0695 38.5153 32.1079 38.5924 32.1314C38.6696 32.1548 38.7506 32.1629 38.8308 32.155C38.911 32.1472 38.9889 32.1236 39.0601 32.0856C39.1312 32.0477 39.1941 31.9961 39.2453 31.9338C39.2965 31.8715 39.3349 31.7997 39.3584 31.7226C39.3818 31.6455 39.3899 31.5645 39.382 31.4842C39.3741 31.404 39.3506 31.3261 39.3126 31.255L38.7357 30.1724L39.1162 29.9692C39.2914 30.0941 39.4435 30.2486 39.5655 30.4258L41.5293 34.1081L41.9129 38.6392C41.9199 38.7221 41.9438 38.8027 41.9829 38.8761L43.4251 41.585L38.5492 44.1804Z" fill="black"/>
<path d="M39.8501 41.4004L38.7669 41.9779C38.6944 42.0149 38.6299 42.0661 38.5773 42.1283C38.5247 42.1905 38.4851 42.2626 38.4606 42.3403C38.4362 42.4181 38.4275 42.4999 38.435 42.581C38.4425 42.6622 38.4661 42.741 38.5044 42.8129C38.5427 42.8848 38.5949 42.9484 38.6581 42.9999C38.7212 43.0514 38.794 43.0898 38.8721 43.1129C38.9502 43.136 39.0322 43.1434 39.1132 43.1344C39.1942 43.1255 39.2726 43.1006 39.3438 43.0611L40.427 42.4842C40.4982 42.4463 40.5612 42.3948 40.6124 42.3325C40.6637 42.2703 40.7022 42.1986 40.7257 42.1215C40.7493 42.0444 40.7574 41.9634 40.7496 41.8832C40.7419 41.8029 40.7184 41.725 40.6805 41.6538C40.6426 41.5827 40.5911 41.5196 40.5289 41.4684C40.4666 41.4171 40.3949 41.3787 40.3178 41.3551C40.1621 41.3076 39.9939 41.3239 39.8501 41.4004Z" fill="black"/>
<path d="M24.8718 43.4568H19.9621C19.7993 43.4568 19.6432 43.5214 19.5281 43.6365C19.413 43.7516 19.3484 43.9077 19.3484 44.0705C19.3484 44.2333 19.413 44.3894 19.5281 44.5045C19.6432 44.6196 19.7993 44.6842 19.9621 44.6842H24.8718C25.0346 44.6842 25.1907 44.6196 25.3058 44.5045C25.4209 44.3894 25.4855 44.2333 25.4855 44.0705C25.4855 43.9077 25.4209 43.7516 25.3058 43.6365C25.1907 43.5214 25.0346 43.4568 24.8718 43.4568Z" fill="black"/>
<path d="M27.3266 43.4568H26.7128C26.5501 43.4568 26.394 43.5214 26.2789 43.6365C26.1638 43.7516 26.0991 43.9077 26.0991 44.0705C26.0991 44.2333 26.1638 44.3894 26.2789 44.5045C26.394 44.6196 26.5501 44.6842 26.7128 44.6842H27.3266C27.4893 44.6842 27.6454 44.6196 27.7605 44.5045C27.8756 44.3894 27.9403 44.2333 27.9403 44.0705C27.9403 43.9077 27.8756 43.7516 27.7605 43.6365C27.6454 43.5214 27.4893 43.4568 27.3266 43.4568Z" fill="black"/>
<path d="M28.5541 20.1358C28.7169 20.1358 28.873 20.0711 28.9881 19.956C29.1032 19.8409 29.1679 19.6848 29.1679 19.5221V18.2946C29.1679 18.1319 29.1032 17.9758 28.9881 17.8607C28.873 17.7456 28.7169 17.6809 28.5541 17.6809C28.3914 17.6809 28.2353 17.7456 28.1202 17.8607C28.0051 17.9758 27.9404 18.1319 27.9404 18.2946V19.5221C27.9404 19.6848 28.0051 19.8409 28.1202 19.956C28.2353 20.0711 28.3914 20.1358 28.5541 20.1358Z" fill="black"/>
<path d="M25.6653 20.5695C25.7811 20.6813 25.9361 20.7432 26.097 20.7418C26.2579 20.7404 26.4119 20.6758 26.5256 20.562C26.6394 20.4482 26.704 20.2943 26.7054 20.1334C26.7068 19.9725 26.6449 19.8175 26.5331 19.7017L25.3057 18.4743C25.1899 18.3625 25.0349 18.3006 24.874 18.302C24.7131 18.3034 24.5592 18.368 24.4454 18.4818C24.3316 18.5955 24.267 18.7495 24.2656 18.9104C24.2642 19.0713 24.3261 19.2263 24.4379 19.3421L25.6653 20.5695Z" fill="black"/>
<path d="M31.0091 20.7493C31.1718 20.7493 31.3279 20.6846 31.443 20.5695L32.6704 19.3421C32.7822 19.2263 32.8441 19.0713 32.8427 18.9104C32.8413 18.7495 32.7767 18.5955 32.6629 18.4818C32.5492 18.368 32.3952 18.3034 32.2343 18.302C32.0734 18.3006 31.9184 18.3625 31.8026 18.4743L30.5752 19.7017C30.4894 19.7875 30.431 19.8969 30.4073 20.0159C30.3836 20.1349 30.3958 20.2583 30.4422 20.3704C30.4887 20.4826 30.5673 20.5784 30.6682 20.6458C30.7691 20.7133 30.8877 20.7493 31.0091 20.7493Z" fill="black"/>
</svg>
