<svg width="32" height="32" viewBox="0 0 32 32" fill="none" xmlns="http://www.w3.org/2000/svg">
<rect width="32" height="32" rx="10" fill="white"/>
<path fill-rule="evenodd" clip-rule="evenodd" d="M19.8088 12.2368C21.0633 13.1331 22.6003 13.6605 24.2602 13.6605V10.4679C23.9461 10.468 23.6328 10.4352 23.3254 10.3701V12.8832C21.6656 12.8832 20.1288 12.3558 18.8739 11.4594V17.9747C18.8739 21.2339 16.2305 23.8759 12.9697 23.8759C11.7531 23.8759 10.6222 23.5083 9.68282 22.8778C10.755 23.9735 12.2502 24.6532 13.9043 24.6532C17.1653 24.6532 19.8089 22.0113 19.8089 18.7519V12.2368H19.8088ZM20.962 9.01579C20.3209 8.31572 19.8999 7.41091 19.8088 6.41062V6H18.9229C19.1459 7.27129 19.9065 8.35745 20.962 9.01579ZM11.7452 20.3768C11.387 19.9074 11.1934 19.3331 11.1943 18.7426C11.1943 17.2519 12.4034 16.0433 13.8952 16.0433C14.1731 16.0431 14.4495 16.0858 14.7145 16.1698V12.9058C14.4048 12.8634 14.0924 12.8454 13.78 12.852V15.3925C13.5149 15.3085 13.2384 15.2659 12.9603 15.2661C11.4686 15.2661 10.2595 16.4747 10.2595 17.9655C10.2595 19.0196 10.8639 19.9323 11.7452 20.3768Z" fill="black"/>
<path fill-rule="evenodd" clip-rule="evenodd" d="M18.8739 11.4594C20.1288 12.3558 21.6656 12.8832 23.3254 12.8832V10.3701C22.3989 10.1729 21.5787 9.68892 20.962 9.01579C19.9065 8.35745 19.1459 7.27129 18.9229 6H16.5959V18.7518C16.5907 20.2383 15.3836 21.442 13.8951 21.442C13.0179 21.442 12.2386 21.0242 11.7451 20.3768C10.8638 19.9323 10.2594 19.0196 10.2594 17.9655C10.2594 16.4747 11.4685 15.2661 12.9602 15.2661C13.246 15.2661 13.5215 15.3106 13.7798 15.3925V12.852C10.5764 12.9182 8 15.5343 8 18.7519C8 20.358 8.64161 21.8141 9.68283 22.8779C10.6223 23.5084 11.7531 23.876 12.9697 23.876C16.2305 23.876 18.8739 21.2339 18.8739 17.9748L18.8739 11.4594Z" fill="black"/>
</svg>
