<svg width="24" height="24" viewBox="0 0 24 24" fill="none" xmlns="http://www.w3.org/2000/svg">
<g clip-path="url(#clip0)">
<path d="M6.01098 16.868C6.48418 16.6066 7.07349 16.2809 7.12027 16.2552C8.47392 15.5291 10.2067 15.1294 12 15.1294C13.8994 15.1294 15.7082 15.5715 17.0933 16.3743C17.1027 16.3797 17.103 16.3799 17.6906 16.7058C17.8647 16.8024 18.043 16.9013 18.1719 16.9728V20.1108C18.1719 21.4878 17.1028 22.6191 15.7512 22.7201V23.5322C15.7512 23.9206 15.4363 24.2354 15.048 24.2354C14.6596 24.2354 14.3448 23.9206 14.3448 23.5322V22.7284H9.65513V23.5322C9.65513 23.9206 9.34031 24.2354 8.95195 24.2354C8.5636 24.2354 8.24878 23.9206 8.24878 23.5322V22.7202C6.89715 22.6191 5.82807 21.4879 5.82807 20.1108V16.9691C5.88601 16.9371 5.94737 16.9032 6.01098 16.868Z" fill="black"/>
<path d="M8.11932 4.47754V2.55867C8.11932 1.14783 9.26714 0 10.6779 0H13.3221C14.7329 0 15.8807 1.14783 15.8807 2.55867V4.47754C17.1705 4.63874 18.1719 5.74124 18.1719 7.07399V15.1293C17.9786 15.0221 17.8219 14.9352 17.7935 14.9194C16.1988 13.9963 14.1413 13.4878 12 13.4878C9.97748 13.4878 8.00752 13.9474 6.45287 14.782C6.44448 14.7865 6.37815 14.8231 5.82807 15.127V7.07389C5.82812 5.74119 6.82955 4.63874 8.11932 4.47754ZM9.52566 4.45649H14.4744V2.55867C14.4744 1.92328 13.9574 1.40634 13.3221 1.40634H10.678C10.0426 1.40634 9.52566 1.92328 9.52566 2.55867V4.45649Z" fill="black"/>
</g>
<defs>
<clipPath id="clip0">
<rect width="24" height="24" fill="white" transform="matrix(-1 0 0 1 24 0)"/>
</clipPath>
</defs>
</svg>
