<svg width="24" height="24" viewBox="0 0 24 24" fill="none" xmlns="http://www.w3.org/2000/svg">
<path d="M12 0C18.6167 0 24 5.38332 24 12C24 18.6167 18.6167 24 12 24C5.38332 24 0 18.6167 0 12C0 5.38332 5.38332 0 12 0ZM12 22.5C17.7898 22.5 22.5 17.7898 22.5 12C22.5 6.2102 17.7898 1.50001 12 1.50001C6.2102 1.50001 1.50001 6.2102 1.50001 12C1.50001 17.7898 6.2102 22.5 12 22.5Z" fill="#FECA40"/>
<path d="M11.25 5.25C11.25 4.83579 11.5858 4.5 12 4.5C12.4142 4.5 12.75 4.83579 12.75 5.25V12.3105L8.56056 16.5C8.2677 16.7928 7.79287 16.7928 7.50001 16.5C7.20715 16.2071 7.20715 15.7323 7.50001 15.4394L11.25 11.6894V5.25Z" fill="#FECA40"/>
</svg>
