<svg width="100" height="100" viewBox="0 0 100 100" fill="none" xmlns="http://www.w3.org/2000/svg">
<path d="M32.7305 44.6094H29.2148C26.3071 44.6094 23.9414 42.2437 23.9414 39.3359V25.2734C23.9414 22.3657 26.3071 20 29.2148 20H32.7305C35.6382 20 38.0039 22.3657 38.0039 25.2734V30.5469H45.3375C46.0631 28.501 48.017 27.0312 50.3086 27.0312C52.6002 27.0312 54.5541 28.501 55.2797 30.5469H62.6133V25.2734C62.6133 22.3657 64.9789 20 67.8867 20H71.4023C74.3101 20 76.6758 22.3657 76.6758 25.2734V39.3359C76.6758 42.2437 74.3101 44.6094 71.4023 44.6094H67.8867C64.9789 44.6094 62.6133 42.2437 62.6133 39.3359V34.0625H55.2797C54.7492 35.5583 53.5622 36.7453 52.0664 37.2758V48.5446C54.1124 49.2703 55.582 51.2241 55.582 53.5157V57.0314C55.582 59.323 54.1124 61.2768 52.0664 62.0025V65.8203H62.6133V60.5469C62.6133 57.6391 64.9789 55.2734 67.8867 55.2734H71.4023C74.3101 55.2734 76.6758 57.6391 76.6758 60.5469V74.7266C76.6758 77.6343 74.3101 80 71.4023 80H67.8867C64.9789 80 62.6133 77.6343 62.6133 74.7266V69.3359H38.0039V74.7266C38.0039 77.6343 35.6382 80 32.7305 80H29.2148C26.3071 80 23.9414 77.6343 23.9414 74.7266V60.5469C23.9414 57.6391 26.3071 55.2734 29.2148 55.2734H32.7305C35.6382 55.2734 38.0039 57.6391 38.0039 60.5469V65.8203H48.5508V62.0023C46.5048 61.2767 45.0352 59.3229 45.0352 57.0312V53.5156C45.0352 51.224 46.5048 49.2702 48.5508 48.5445V37.2758C47.055 36.7453 45.868 35.5583 45.3375 34.0625H38.0039V39.3359C38.0039 42.2437 35.6382 44.6094 32.7305 44.6094ZM34.4883 25.2734C34.4883 24.3042 33.6997 23.5156 32.7305 23.5156H29.2148C28.2456 23.5156 27.457 24.3042 27.457 25.2734V39.3359C27.457 40.3052 28.2456 41.0938 29.2148 41.0938H32.7305C33.6997 41.0938 34.4883 40.3052 34.4883 39.3359V25.2734ZM66.1289 39.3359C66.1289 40.3052 66.9175 41.0938 67.8867 41.0938H71.4023C72.3716 41.0938 73.1602 40.3052 73.1602 39.3359V25.2734C73.1602 24.3042 72.3716 23.5156 71.4023 23.5156H67.8867C66.9175 23.5156 66.1289 24.3042 66.1289 25.2734V39.3359ZM66.1289 74.7266C66.1289 75.6958 66.9175 76.4844 67.8867 76.4844H71.4023C72.3716 76.4844 73.1602 75.6958 73.1602 74.7266V60.5469C73.1602 59.5776 72.3716 58.7891 71.4023 58.7891H67.8867C66.9175 58.7891 66.1289 59.5776 66.1289 60.5469V74.7266ZM34.4883 60.5469C34.4883 59.5776 33.6997 58.7891 32.7305 58.7891H29.2148C28.2456 58.7891 27.457 59.5776 27.457 60.5469V74.7266C27.457 75.6958 28.2456 76.4844 29.2148 76.4844H32.7305C33.6997 76.4844 34.4883 75.6958 34.4883 74.7266V60.5469ZM48.5508 57.0312C48.5508 58.0005 49.3393 58.7891 50.3086 58.7891C51.2779 58.7891 52.0664 58.0005 52.0664 57.0312V53.5156C52.0664 52.5464 51.2779 51.7578 50.3086 51.7578C49.3393 51.7578 48.5508 52.5464 48.5508 53.5156V57.0312ZM50.3086 34.0625C51.2779 34.0625 52.0664 33.2739 52.0664 32.3047C52.0664 31.3354 51.2779 30.5469 50.3086 30.5469C49.3393 30.5469 48.5508 31.3354 48.5508 32.3047C48.5508 33.2739 49.3393 34.0625 50.3086 34.0625Z" fill="black"/>
</svg>
